<?xml version="1.0" encoding="utf-8"?>
<!-- Generator: Adobe Illustrator 24.0.1, SVG Export Plug-In . SVG Version: 6.00 Build 0)  -->
<svg version="1.1" id="Layer_2" xmlns="http://www.w3.org/2000/svg" xmlns:xlink="http://www.w3.org/1999/xlink" x="0px" y="0px"
	 viewBox="0 0 792 612" style="enable-background:new 0 0 792 612;" xml:space="preserve">
<g>
	<path d="M257.13,319.46h0.27c-0.85,0-1.7-0.05-2.53-0.13C255.61,319.41,256.36,319.46,257.13,319.46z"/>
	<g>
		<path d="M330.03,257.11c-3.43-1.39-6.86-2.82-10.3-4.33C323.17,254.28,326.6,255.71,330.03,257.11z"/>
		<path d="M331.65,257.77c0.4,0.16,0.81,0.33,1.21,0.49c3.19,1.27,6.38,2.48,9.56,3.64C338.83,260.59,335.24,259.21,331.65,257.77z"
			/>
		<path d="M437.83,281.49c-2.7-0.13-5.4-0.29-8.09-0.48C432.43,281.2,435.12,281.37,437.83,281.49z"/>
		<path d="M555.07,314.83h-39.4h-15.91c0.17-1.56,0.35-3.12,0.52-4.68c1.19-10.82,2.31-21.65,3.4-32.49
			c4.64-0.71,9.31-1.49,14.04-2.4c0.18-0.04,0.35-0.11,0.53-0.16c7.37-2.17,13.66-10.47,14.17-18.35
			c0.65-9.87,0.96-14.81,1.58-24.68c0.44-7.02-3.69-11.4-9.61-11.09c-4.52-36.21-25.85-67.17-55.96-84.84
			c0.56-2.26,0.89-4.6,0.89-7.03c0-16.22-13.27-29.48-29.48-29.48h0c-13.19,0-24.43,8.78-28.16,20.78c-0.44,0-0.88-0.03-1.32-0.03
			c-48.8,0-90.48,30.43-107.16,73.33c-4.28,0.12-7.66,2.77-8.6,7.55c-1.73,8.79-2.6,13.17-4.35,21.94
			c-1.01,5.05,1.06,11.25,4.91,15.93c0.11,0.14,0.22,0.28,0.33,0.42c1.09,1.27,2.31,2.41,3.64,3.38c-0.32,3.53-0.64,7.06-0.96,10.59
			h-12.44h-12.16v-27.5c0-15.74-12.88-28.62-28.62-28.62s-28.62,12.88-28.62,28.62v64.83c0,14.89,11.52,27.19,26.09,28.49
			c0.84,0.07,1.68,0.13,2.53,0.13h20.01h14.46h12.44c-3.55,35.21-7.47,70.38-11.89,105.5c-6.1-2.16-11.53,0.51-12.75,7.01
			c-1.61,8.56-2.42,12.83-4.05,21.37c-1.4,7.33,3.19,17.12,10.36,21.31c68.02,35.09,131.55,46.24,206.86,31.18
			c7.44-1.95,13.87-10.68,14.38-18.94c0.6-9.61,0.9-14.42,1.47-24.04c0.49-8.26-4.91-12.96-12.11-10.9
			c-0.46,0.1-0.91,0.19-1.37,0.29c3.14-23.82,6.24-47.63,9.2-71.46h5.33h10.17h11.3v43.19c0,15.74,12.88,28.62,28.62,28.62h0
			c15.74,0,28.62-12.88,28.62-28.62v-64.12v-0.71v-23.37C576,324.25,566.58,314.83,555.07,314.83z M329.06,271.74
			c0.45-4.96,1.8-9.54,3.8-13.48c-0.4-0.16-6.25-2.54-2.83-1.15c0.54,0.22,1.08,0.44,1.62,0.66c3.59,1.44,7.18,2.83,10.77,4.14
			c4.04,1.48,8.07,2.87,12.11,4.19c6.07,1.98,12.15,3.81,18.22,5.42c-6.08-1.61-12.15-3.43-18.22-5.42c6.12,2,12.23,3.84,18.36,5.46
			c0.02,1.36,0,2.74-0.13,4.14c-1.46,16.14-12.42,28.35-24.49,27.26C336.19,301.86,327.59,287.89,329.06,271.74z M401.14,357.49
			c-1.5,16.56-14.24,28.95-28.47,27.66c-14.22-1.29-24.54-15.76-23.04-32.32c1.5-16.56,14.24-28.95,28.47-27.66
			C392.32,326.45,402.64,340.92,401.14,357.49z M447.79,296.51c-1.46,16.14-12.42,28.35-24.49,27.26
			c-12.06-1.09-20.66-15.06-19.2-31.21c0.46-5.11,1.88-9.82,3.98-13.84c4.34,0.62,8.7,1.12,13.06,1.56
			c-0.76-0.08-1.53-0.14-2.29-0.22c0.76,0.08,1.53,0.14,2.29,0.22c2.86,0.29,5.72,0.54,8.6,0.74c2.7,0.19,5.41,0.35,8.12,0.48
			c2.78,0.12,5.56,0.23,8.35,0.27C447.65,286.21,448.26,291.24,447.79,296.51z"/>
		<path d="M437.83,281.49c0.01,0,0.02,0,0.03,0c-2.72-0.13-5.42-0.29-8.12-0.48l0,0C432.43,281.2,435.12,281.37,437.83,281.49z"/>
		<path d="M372.74,271.52c-6.08-1.61-12.15-3.44-18.22-5.42c0,0,0,0,0,0C360.6,268.08,366.67,269.91,372.74,271.52z"/>
	</g>
</g>
</svg>
