<?xml version="1.0" encoding="iso-8859-1"?>
<!-- Generator: Adobe Illustrator 19.0.0, SVG Export Plug-In . SVG Version: 6.00 Build 0)  -->
<svg version="1.1" id="Capa_1" xmlns="http://www.w3.org/2000/svg" xmlns:xlink="http://www.w3.org/1999/xlink" x="0px" y="0px"
	 viewBox="0 0 512 512" style="enable-background:new 0 0 512 512;" xml:space="preserve">
<g>
	<g>
		<path d="M401.476,68.07c-13.164-13.163-33.802-15.857-50.411-8.617c18.93,18.165,39.872,33.679,62.407,46.425
			C415.291,92.421,411.796,78.397,401.476,68.07z"/>
	</g>
</g>
<g>
	<g>
		<path d="M324.931,76.439l-29.594-29.594c-5.863-5.863-15.362-5.863-21.225,0L167.974,152.97c-5.863,5.863-5.863,15.362,0,21.225
			l29.594,29.609c31.907,31.898,56.732,69.429,73.821,110.507c67.96-27.836,136.387-97.029,163.968-164.097
			C394.314,133.127,356.807,108.315,324.931,76.439z"/>
	</g>
</g>
<g>
	<g>
		<path d="M499.934,170.091c-12.408-2.483-24.521-5.845-36.469-9.632c-30.708,75.305-105.648,151.139-181.813,182.031
			c3.765,11.899,7.109,23.963,9.581,36.317c1.781,8.996,11.101,14.126,19.466,11.286c84.327-28.099,172.423-116.194,200.522-200.536
			C514.102,180.91,508.685,171.822,499.934,170.091z"/>
	</g>
</g>
<g>
	<g>
		<path d="M178.422,227.436L13.17,392.687c-17.56,17.561-17.56,46.129,0,63.689c17.546,17.574,46.114,17.56,63.675,0L232.09,301.131
			C218.007,274.227,199.987,249.444,178.422,227.436z"/>
	</g>
</g>
<g>
</g>
<g>
</g>
<g>
</g>
<g>
</g>
<g>
</g>
<g>
</g>
<g>
</g>
<g>
</g>
<g>
</g>
<g>
</g>
<g>
</g>
<g>
</g>
<g>
</g>
<g>
</g>
<g>
</g>
</svg>
