<?xml version="1.0" standalone="no"?>
<!DOCTYPE svg PUBLIC "-//W3C//DTD SVG 20010904//EN"
 "http://www.w3.org/TR/2001/REC-SVG-20010904/DTD/svg10.dtd">
<svg version="1.0" xmlns="http://www.w3.org/2000/svg"
 width="320.000000pt" height="256.000000pt" viewBox="0 0 320.000000 256.000000"
 preserveAspectRatio="xMidYMid meet">

<g transform="translate(0.000000,256.000000) scale(0.100000,-0.100000)"
fill="#000000" stroke="none">
<path d="M1480 1795 c0 -8 5 -15 10 -15 6 0 10 7 10 15 0 8 -4 15 -10 15 -5 0
-10 -7 -10 -15z"/>
<path d="M2722 993 c5 -26 38 -29 38 -4 0 15 -6 21 -21 21 -14 0 -19 -5 -17
-17z"/>
<path d="M2188 648 c-72 -38 -245 -34 -340 7 -13 5 -18 3 -18 -9 0 -9 8 -16
19 -16 27 0 81 -48 81 -71 0 -47 -27 -86 -71 -102 -93 -33 -278 -29 -350 8
l-29 16 0 -36 c0 -19 5 -35 10 -35 6 0 10 -11 10 -25 0 -14 -4 -25 -10 -25 -6
0 -10 -41 -10 -103 0 -112 13 -147 54 -147 12 0 28 -6 34 -12 9 -9 50 -13 130
-13 99 0 124 3 165 22 l47 22 2 78 c0 43 1 83 1 88 0 7 19 7 59 1 47 -8 61 -7
68 3 6 10 20 12 53 7 62 -9 124 16 130 52 5 32 10 313 5 311 -2 -1 -20 -10
-40 -21z m-37 -281 c-6 -6 -48 -13 -93 -15 l-83 -4 3 100 3 101 87 3 87 3 3
-89 c2 -51 -2 -94 -7 -99z m-311 -102 c0 -93 -1 -96 -26 -105 -14 -6 -57 -10
-95 -10 l-69 0 0 100 0 99 73 4 c39 1 82 4 95 5 21 2 22 -1 22 -93z"/>
</g>
</svg>
