<svg id="Capa_1" enable-background="new 0 0 511.23 511.23" height="512" viewBox="0 0 511.23 511.23" width="512" xmlns="http://www.w3.org/2000/svg"><path d="m469.449 145.544c-26.783-52.031-66.976-97.055-119.461-133.823l-16.582-11.615-333.406 488.469 33.038 22.55 175.353-256.907c73.365 16.04 142.505 59.602 216.458 136.141 14.117 14.611 34.686 19.191 53.677 11.955 19.05-7.259 31.391-24.424 32.207-44.796.37-9.227.535-18.637.49-27.968-.325-68.879-14.38-130.788-41.774-184.006zm-67.748-31.778c9.205 11.584 17.483 23.691 24.843 36.336l-28.29 41.447c-4.266-3.576-8.649-7.17-13.15-10.781-6.42-5.151-12.786-10.099-19.019-14.822zm-41.241 98.512c5.219 4.192 10.248 8.354 15.122 12.488l-30.976 45.383c-11.768-7.703-23.547-14.674-35.369-20.914l34.266-50.203c5.583 4.245 11.257 8.667 16.957 13.246zm45.053 39.59c10.764 10.479 20.298 20.705 28.556 30.627l-25.288 37.049c-10.565-9.333-21.09-18.062-31.598-26.171zm22.873-33.511 18.265-26.759c6.302 15.959 11.381 32.659 15.251 50.12l-4.493 6.583c-8.674-9.819-18.341-19.802-29.023-29.944zm-85.05-161.847c10.97 8.532 21.217 17.449 30.756 26.753l-40.402 59.193c-13.237-9.193-24.848-16.785-33.717-22.414zm-65.939 96.608c8.655 5.482 20.345 13.105 33.728 22.398l-38.693 56.689c-13.202-5.272-26.5-9.706-39.941-13.296zm186.886 211.818c-1.841.701-6.564 1.874-10.667-2.371-5.103-5.281-10.187-10.404-15.259-15.397l20.251-29.67c6.015 10.784 10.177 21.056 12.408 30.73-.069 2.573-.149 5.14-.251 7.689-.241 6.002-4.614 8.306-6.482 9.019z"/></svg>