<?xml version="1.0" encoding="iso-8859-1"?>
<!-- Generator: Adobe Illustrator 19.0.0, SVG Export Plug-In . SVG Version: 6.00 Build 0)  -->
<svg version="1.1" id="Capa_1" xmlns="http://www.w3.org/2000/svg" xmlns:xlink="http://www.w3.org/1999/xlink" x="0px" y="0px"
	 viewBox="0 0 512 512" style="enable-background:new 0 0 512 512;" xml:space="preserve">
<g>
	<g>
		<path d="M467.532,287.089C496.208,258.413,512,220.643,512,180.734c0-39.908-15.792-77.679-44.408-106.295L403.724,9.848
			c-0.006-0.006-0.012-0.011-0.018-0.017c-0.014-0.014-0.027-0.029-0.041-0.043c-5.838-5.839-13.601-9.054-21.858-9.054
			c-8.257,0-16.019,3.216-21.861,9.058L9.201,360.752C3.267,366.685,0,374.573,0,382.964c0,8.39,3.267,16.277,9.2,22.211
			l13.929,13.93c5.869,5.868,13.935,9.199,22.222,9.199c0.213,0,0.428-0.002,0.642-0.007c8.511-0.177,16.697-3.87,22.467-10.14
			l203.328-221.166l22.563,22.563c2.928,2.929,6.766,4.393,10.604,4.393c3.837,0,7.676-1.465,10.604-4.393
			c5.857-5.856,5.857-15.352,0-21.208l-23.455-23.455l27.611-30.032l24.665,24.665c2.928,2.929,6.766,4.393,10.604,4.393
			c3.837,0,7.676-1.465,10.604-4.393c5.857-5.856,5.857-15.352,0-21.208l-25.557-25.557l64.156-69.785l42.136,42.612
			c23.011,23.011,35.683,53.25,35.683,85.147s-12.672,62.136-35.683,85.147c-0.001,0.001,0,0-0.001,0.001l-106.327,106.33
			c-15.385,15.385-23.859,35.841-23.859,57.598c0,21.759,8.473,42.214,23.858,57.599c15.385,15.385,35.842,23.859,57.6,23.859
			c21.758,0,42.213-8.474,57.599-23.859c5.856-5.856,5.856-15.352,0-21.208c-5.856-5.856-15.352-5.856-21.208,0
			c-9.72,9.721-22.644,15.074-36.39,15.074c-13.747,0-26.671-5.353-36.391-15.074c-9.72-9.721-15.074-22.644-15.074-36.391
			c-0.001-13.746,5.353-26.67,15.073-36.39L467.532,287.089z"/>
	</g>
</g>
<g>
	<g>
		<path d="M263.453,250.048L140.967,383.281c16.123,12.146,35.389,18.239,54.666,18.239c23.288,0,46.575-8.864,64.304-26.594
			C294.178,340.685,295.344,285.713,263.453,250.048z"/>
	</g>
</g>
<g>
</g>
<g>
</g>
<g>
</g>
<g>
</g>
<g>
</g>
<g>
</g>
<g>
</g>
<g>
</g>
<g>
</g>
<g>
</g>
<g>
</g>
<g>
</g>
<g>
</g>
<g>
</g>
<g>
</g>
</svg>
