<?xml version="1.0" ?><svg height="64px" version="1.1" viewBox="0 0 64 64" width="64px" xmlns="http://www.w3.org/2000/svg" xmlns:xlink="http://www.w3.org/1999/xlink"><title/><desc/><defs/><g fill="none" fill-rule="evenodd" id="Icons---Nintendo-Switch" stroke="none" stroke-width="1"><g fill="#4A4A4A" id="ico-nsw-bttn-home"><path d="M32,52 C20.954305,52 12,43.045695 12,32 C12,20.954305 20.954305,12 32,12 C43.045695,12 52,20.954305 52,32 C52,43.045695 43.045695,52 32,52 Z M32,50.4615385 C42.1960262,50.4615385 50.4615385,42.1960262 50.4615385,32 C50.4615385,21.8039738 42.1960262,13.5384615 32,13.5384615 C21.8039738,13.5384615 13.5384615,21.8039738 13.5384615,32 C13.5384615,42.1960262 21.8039738,50.4615385 32,50.4615385 Z" id="button"/><path d="M40,32 L40,43 L24,43 L24,32 L19,32 L32,21 L45,32 L40,32 Z M28.2666667,32 L28.2666667,39 L35.7333333,39 L35.7333333,32 L28.2666667,32 Z" id="Combined-Shape"/></g></g></svg>