<svg height="512" viewBox="0 0 56 59" width="512" xmlns="http://www.w3.org/2000/svg"><g id="015---Slingshot" transform="translate(0 -1)"><path id="Shape" d="m49.65 3.33c-1.1609666-1.30997951-3.0469833-1.69695917-4.63-.95-.76.34-.806.481-4.26 3.71-.8041497.76313014-.8399153 2.03281169-.08 2.84l8.29 8.72c.7541676.7973839 2.0116881.8331852 2.81.08l2.95-2.75c1.5925935-1.5106994 1.7073865-4.0096549.26-5.66z"/><path id="Shape" d="m33.63 15.49c-1.12-4.44-.8-8.09.91-10.33 1.622-2.107 3.85-2.384 6.46-2.03 1.255-1.177 1.714-1.617 1.83-1.7-1.2510617-.29841482-2.5339042-.44281855-3.82-.43-2.3716454-.03742861-4.6189683 1.05837346-6.05 2.95-2.17 2.83-2.57 7.29-1.13 12.57.0429058.1610981.1254072.3089132.24.43l-.72.67c-.7504463.7048483-1.9195537.7048483-2.67 0l-7.87-7.35c-10.546 11.075-7.41 7.83-8.31 8.73l10.88 10.19c.4145793.3887372.6498527.9316756.65 1.5v3.31h11.96v-3.31c.0001473-.5683244.2354207-1.1112628.65-1.5l10.86-10.18-8.3-8.73z"/><path id="Shape" d="m5.04 9.32c-1.16380924 1.3127277-1.35335172 3.2242837-.47 4.74.409.731.674.876 3.65 3.67.80061589.7471114 2.0531866.711451 2.81-.08.05-.1-.138.136 8.32-8.75.7518372-.8098547.7071242-2.07523227-.1-2.83l-3.2-3c-.7781125-.73055826-1.8187503-1.11513526-2.8849472-1.06615802-1.0661968.04897724-2.0671943.52733961-2.7750528 1.32615802z"/><path id="Shape" d="m24.01 57c0 1.6568542 1.3431458 3 3 3h6c1.6568542 0 3-1.3431458 3-3v-3h-12z"/><path id="Shape" d="m4.69 37.9c.2-.28.4-.55.61-.84 2.84-3.85 6.34-8.59 6.68-17.59-.5918351.4489825-1.2995911.7195951-2.04.78-.2405651 4.8016019-1.84301101 9.4355147-4.62 13.36-.144-4.981-4.42-9.868-1.66-17.44-.57494186-.6114299-1.01450267-1.3372164-1.29-2.13-2.86 6.31-1.35 11.06-.12 14.93 1.944 6.1.773 5.706.46 8.26-1.53 2.15-2.7 4.18-2.7 6.77 0 4.116 2.229 6.414 5.99 6.91v-2.02c-2.693-.453-3.99-1.96-3.99-4.89.04089903-1.4166834.47357495-2.7943235 1.25-3.98.62645439 1.0325092 1.59653397 1.8114053 2.74 2.2v-1.22c.00176048-.3126089.05237127-.6230218.15-.92-.85951871-.3923857-1.42438931-1.2358227-1.46-2.18z"/><path id="Shape" d="m20 40h-11c-.46248997.0014762-.86362912.3199062-.97.77-.047.164-.03-.488-.03 10.28.03010189.5310821.46807306.9471547 1 .95h11c.5522847 0 1-.4477153 1-1v-10c0-.5522847-.4477153-1-1-1z"/><path id="Shape" d="m36.01 36h-12c-.5522847 0-1 .4477153-1 1v14c0 .5522847.4477153 1 1 1h12c.5522847 0 1-.4477153 1-1v-14c0-.5522847-.4477153-1-1-1z"/></g></svg>