<?xml version="1.0" encoding="utf-8"?>
<!-- Generator: Adobe Illustrator 24.0.1, SVG Export Plug-In . SVG Version: 6.00 Build 0)  -->
<svg version="1.1" id="Layer_2" xmlns="http://www.w3.org/2000/svg" xmlns:xlink="http://www.w3.org/1999/xlink" x="0px" y="0px"
	 viewBox="0 0 792 612" style="enable-background:new 0 0 792 612;" xml:space="preserve">
<g>
	<path d="M489.82,217.48c33.64-21.19,37.02-82.51,37.02-82.51l-71.23-22.61c11.72,38.09,6.09,79.87,2.37,99.01
		c-20.75-21.01-49.53-34.05-81.39-34.05c-63.2,0-114.43,51.23-114.43,114.43c0,4.48,0.29,8.89,0.79,13.24
		c1.15,31.73-0.45,111.84-43.06,143.7c0,0,128.73,103.07,253.4,16.01c-0.74,0.03-1.47,0.11-2.22,0.11
		c-27.24,0-49.33-22.09-49.33-49.33c0-27.24,22.09-49.33,49.33-49.33c27.24,0,49.33,22.09,49.33,49.33c0,5.23-0.83,10.27-2.34,15
		c1.23-1.1,2.47-2.21,3.71-3.36c16.32-11.49,29.61-26.97,38.42-45.06c0.01-0.02,0.03-0.04,0.04-0.06c0.54-0.88,0.91-1.76,1.21-2.64
		c6.84-14.97,10.67-31.59,10.67-49.13C572.11,277.45,537.55,232.77,489.82,217.48z M419.84,276.84
		c32.42,49.75-2.95,94.56-2.95,94.56c17.81-56.65-7.87-80.64-7.87-80.64c-4.45,6.36-8.79,13.4-12.94,20.99
		c-8.23,15.04-19.75,31.67-34.23,49.47c7.91,60.78-7.89,71.59-7.89,71.59c4.48-28.31-6.74-54.37-6.74-54.37s-0.75,0.86-2.16,2.4
		c-7.4,8.04-33.23,34.7-68,55.02c0,0,29.74-27.74,52.57-63.46c-13.71-7.1-41.43,1.71-41.43,1.71
		c15.88-20.44,53.11-14.99,53.11-14.99c17.26-20.24,30.63-38.94,39.76-55.6c2.71-4.96,5.52-9.73,8.37-14.23
		c-12.9-11.66-82.21-13.81-82.21-13.81c34.7-15.21,90.98,0.99,90.98,0.99s0.68-0.96,1.92-2.54c7.1-9.03,32.95-38.79,59.76-30.73
		C459.88,243.2,426.74,252.69,419.84,276.84z"/>
</g>
</svg>
