<?xml version="1.0" encoding="UTF-8" standalone="no"?>
<svg
   xmlns:dc="http://purl.org/dc/elements/1.1/"
   xmlns:cc="http://creativecommons.org/ns#"
   xmlns:rdf="http://www.w3.org/1999/02/22-rdf-syntax-ns#"
   xmlns:svg="http://www.w3.org/2000/svg"
   xmlns="http://www.w3.org/2000/svg"
   xmlns:sodipodi="http://sodipodi.sourceforge.net/DTD/sodipodi-0.dtd"
   xmlns:inkscape="http://www.inkscape.org/namespaces/inkscape"
   sodipodi:docname="Accessory.svg"
   inkscape:version="1.0 (4035a4fb49, 2020-05-01)"
   id="svg8"
   version="1.1"
   viewBox="0 0 210 297"
   height="297mm"
   width="210mm">
  <defs
     id="defs2" />
  <sodipodi:namedview
     inkscape:window-maximized="1"
     inkscape:window-y="-8"
     inkscape:window-x="2552"
     inkscape:window-height="1417"
     inkscape:window-width="2560"
     showguides="false"
     showgrid="false"
     inkscape:document-rotation="0"
     inkscape:current-layer="layer2"
     inkscape:document-units="mm"
     inkscape:cy="510.98484"
     inkscape:cx="561.38795"
     inkscape:zoom="2.8"
     inkscape:pageshadow="2"
     inkscape:pageopacity="0.0"
     borderopacity="1.0"
     bordercolor="#666666"
     pagecolor="#ffffff"
     id="base" />
  <metadata
     id="metadata5">
    <rdf:RDF>
      <cc:Work
         rdf:about="">
        <dc:format>image/svg+xml</dc:format>
        <dc:type
           rdf:resource="http://purl.org/dc/dcmitype/StillImage" />
        <dc:title></dc:title>
      </cc:Work>
    </rdf:RDF>
  </metadata>
  <g
     style="display:inline"
     inkscape:label="Trace Layer"
     id="layer2"
     inkscape:groupmode="layer">
    <path
       transform="scale(0.26458333)"
       d="M 537.68555 493.77539 A 25.380083 25.50635 0 0 0 512.40039 519.28125 A 25.380083 25.50635 0 0 0 537.7793 544.78711 A 25.380083 25.50635 0 0 0 563.16016 519.28125 A 25.380083 25.50635 0 0 0 537.7793 493.77539 A 25.380083 25.50635 0 0 0 537.68555 493.77539 z M 537.32812 504.9082 A 14.441864 14.441864 0 0 1 537.96289 504.91992 A 14.441864 14.441864 0 0 1 551.7793 519.96094 A 14.441864 14.441864 0 0 1 536.74023 533.7793 A 14.441864 14.441864 0 0 1 522.92188 518.73828 A 14.441864 14.441864 0 0 1 537.32812 504.9082 z "
       style="fill:#000000;stroke-width:0.999999"
       id="path29" />
    <path
       transform="scale(0.26458333)"
       d="M 592.23242 493.77539 A 25.380083 25.50635 0 0 0 566.94727 519.28125 A 25.380083 25.50635 0 0 0 592.32812 544.78711 A 25.380083 25.50635 0 0 0 617.70898 519.28125 A 25.380083 25.50635 0 0 0 592.32812 493.77539 A 25.380083 25.50635 0 0 0 592.23242 493.77539 z M 593.40039 504.88477 A 14.441864 14.441864 0 0 1 594.03516 504.89844 A 14.441864 14.441864 0 0 1 607.85352 519.9375 A 14.441864 14.441864 0 0 1 592.8125 533.75586 A 14.441864 14.441864 0 0 1 578.99414 518.71484 A 14.441864 14.441864 0 0 1 593.40039 504.88477 z "
       style="fill:#000000;stroke-width:0.999999"
       id="ellipse31" />
    <rect
       y="135.93996"
       x="148.03391"
       height="2.8731475"
       width="2.8731472"
       id="rect37"
       style="fill:#000000;stroke-width:0.30913" />
    <path
       sodipodi:nodetypes="cccccccccccccccc"
       style="fill:#000000;stroke-width:0.0334087"
       d="m 140.91851,119.33502 c -0.85788,1.30809 -1.62902,2.67287 -2.36512,4.05278 -0.94062,1.79793 -1.58483,3.73232 -2.12849,5.68176 -0.56034,2.10496 -0.81679,6.01721 -0.86548,8.18435 0.73058,-0.96833 2.04349,-4.69002 3.15651,-5.45991 0.14256,-0.30523 0.0985,-0.66919 0.18011,-0.99011 0.27108,-1.50592 0.7733,-2.96426 1.31783,-4.39216 0.34742,-0.866 0.77588,-1.69438 1.15074,-2.54956 0.20736,0.54113 0.41271,1.08417 0.64957,1.61306 0.14681,0.12839 0.32954,-0.0666 0.48675,-0.0921 0.6439,-0.27236 1.31414,-0.49453 1.92949,-0.82789 0.11454,-0.15033 -0.0611,-0.33996 -0.0857,-0.50001 -0.55608,-1.5989 -1.29117,-3.12544 -1.9605,-4.67796 -0.15339,-0.14026 -0.40487,-0.0313 -0.59796,-0.0676 -0.28587,0.0172 -0.59252,-0.0429 -0.86775,0.0254 z"
       id="path120" />
    <path
       id="path182"
       d="m 158.07812,119.33503 c 0.85788,1.30809 1.62902,2.67287 2.36512,4.05278 0.94062,1.79793 1.58483,3.73232 2.12849,5.68176 0.56034,2.10496 0.81679,6.01721 0.86548,8.18434 -0.73058,-0.96833 -2.04349,-4.69002 -3.15651,-5.45991 -0.14256,-0.30523 -0.0985,-0.66918 -0.18011,-0.9901 -0.27108,-1.50592 -0.7733,-2.96427 -1.31783,-4.39217 -0.34742,-0.866 -0.77588,-1.69438 -1.15074,-2.54956 -0.20736,0.54113 -0.41271,1.08417 -0.64957,1.61306 -0.14681,0.12839 -0.32954,-0.0666 -0.48675,-0.0921 -0.6439,-0.27236 -1.31414,-0.49453 -1.92949,-0.82789 -0.11454,-0.15033 0.0611,-0.33996 0.0857,-0.50001 0.55608,-1.5989 1.29117,-3.12544 1.9605,-4.67796 0.15339,-0.14026 0.40487,-0.0313 0.59796,-0.0676 0.28587,0.0172 0.59252,-0.0429 0.86775,0.0254 z"
       style="fill:#000000;stroke-width:0.0334087"
       sodipodi:nodetypes="cccccccccccccccc" />
    <ellipse
       ry="8.1292067"
       rx="8.3616829"
       cy="154.51859"
       cx="81.812172"
       id="path192"
       style="fill:none;stroke-width:0.264583" />
  </g>
</svg>
