<?xml version="1.0" encoding="UTF-8" standalone="no"?>
<svg
   xmlns:dc="http://purl.org/dc/elements/1.1/"
   xmlns:cc="http://creativecommons.org/ns#"
   xmlns:rdf="http://www.w3.org/1999/02/22-rdf-syntax-ns#"
   xmlns:svg="http://www.w3.org/2000/svg"
   xmlns="http://www.w3.org/2000/svg"
   xmlns:sodipodi="http://sodipodi.sourceforge.net/DTD/sodipodi-0.dtd"
   xmlns:inkscape="http://www.inkscape.org/namespaces/inkscape"
   sodipodi:docname="Bag.svg"
   inkscape:version="1.0 (4035a4fb49, 2020-05-01)"
   id="svg1981"
   version="1.1"
   viewBox="0 0 210 297"
   height="297mm"
   width="210mm">
  <defs
     id="defs1975" />
  <sodipodi:namedview
     inkscape:window-maximized="1"
     inkscape:window-y="-8"
     inkscape:window-x="2552"
     inkscape:window-height="1417"
     inkscape:window-width="2560"
     showborder="false"
     showgrid="false"
     inkscape:document-rotation="0"
     inkscape:current-layer="layer7"
     inkscape:document-units="mm"
     inkscape:cy="772.62779"
     inkscape:cx="498.51627"
     inkscape:zoom="0.35"
     inkscape:pageshadow="2"
     inkscape:pageopacity="0.0"
     borderopacity="1.0"
     bordercolor="#666666"
     pagecolor="#ffffff"
     id="base" />
  <metadata
     id="metadata1978">
    <rdf:RDF>
      <cc:Work
         rdf:about="">
        <dc:format>image/svg+xml</dc:format>
        <dc:type
           rdf:resource="http://purl.org/dc/dcmitype/StillImage" />
        <dc:title></dc:title>
      </cc:Work>
    </rdf:RDF>
  </metadata>
  <g
     inkscape:label="Trace"
     id="layer7"
     inkscape:groupmode="layer">
    <path
       id="path1998"
       d="m -47.322607,277.29071 c -43.453081,-5.77715 -57.350073,-8.28023 -59.872023,-10.78394 -4.55468,-4.52176 -9.90947,-36.62417 -8.46038,-50.72064 0.62271,-6.05756 3.26516,-16.08145 5.87212,-22.2753 2.60696,-6.19385 5.67653,-18.79871 6.82126,-28.0108 3.350599,-26.96341 13.846461,-48.74204 28.245332,-58.60831 6.748432,-4.6241 25.269211,-9.460281 36.505279,-9.532329 4.137297,-0.02653 6.234245,-0.971819 6.234245,-2.810352 0,-5.660978 8.452771,-12.789948 16.307947,-13.753934 11.2424535,-1.379673 19.6856564,4.385335 21.3112598,14.551302 1.1345328,7.094973 1.8650079,7.874203 9.1416932,9.751823 14.522304,3.74722 15.55322,4.15487 21.336238,8.43687 4.589635,3.39837 6.919739,3.93477 11.509375,2.64951 12.790465,-3.58176 23.846773,4.61481 32.90047,24.39071 13.937834,30.44423 8.385539,86.25105 -9.639313,96.88597 -3.618816,2.13515 -7.11523,6.01601 -7.769826,8.62414 -1.46217,5.82569 -24.827197,36.42576 -29.050887,38.04653 -5.873033,2.25371 -25.2091975,0.62845 -81.39279,-6.84125 z M 69.543436,187.34479 c 0.168804,-21.23989 -3.534107,-36.33293 -10.66311,-43.46194 -5.887487,-5.88748 -7.475387,-4.66995 -4.775374,3.66156 2.736814,8.44508 7.330187,37.14781 8.999698,56.23673 1.334858,15.26259 1.355555,15.30941 3.817487,8.63203 1.361464,-3.69259 2.54104,-14.97336 2.621299,-25.06838 z M 3.6137654,212.24603 c 0.7088547,-1.14695 0.4871861,-2.88701 -0.4925994,-3.8668 -1.4571464,-1.45714 -84.993153,-13.23013 -93.875284,-13.23013 -3.59104,0 -3.292107,5.61181 0.373869,7.01858 2.815097,1.08025 79.517881,11.41561 88.5023773,11.92529 2.31154487,0.13113 4.7827804,-0.69999 5.4916371,-1.84694 z M -37.031037,168.15467 c 6.607124,-5.19716 6.75321,-13.68205 0.345883,-20.08937 -2.589609,-2.58961 -6.513261,-4.70838 -8.719224,-4.70838 -5.57738,0 -13.427605,8.41095 -13.427605,14.38672 0,5.81138 7.797479,14.38671 13.081723,14.38671 2.015727,0 5.939379,-1.78905 8.719223,-3.97568 z M -8.9580231,97.319415 c 0,-1.055026 -1.6754619,-1.91823 -3.7232499,-1.91823 -2.047789,0 -4.256739,0.863204 -4.908782,1.91823 -0.672383,1.087939 0.939196,1.918229 3.723251,1.918229 2.699829,0 4.9087809,-0.863203 4.9087809,-1.918229 z"
       style="fill:#000000;stroke-width:1.91823" />
  </g>
</svg>
