<?xml version="1.0" encoding="UTF-8" standalone="no"?>
<svg
   xmlns:dc="http://purl.org/dc/elements/1.1/"
   xmlns:cc="http://creativecommons.org/ns#"
   xmlns:rdf="http://www.w3.org/1999/02/22-rdf-syntax-ns#"
   xmlns:svg="http://www.w3.org/2000/svg"
   xmlns="http://www.w3.org/2000/svg"
   xmlns:sodipodi="http://sodipodi.sourceforge.net/DTD/sodipodi-0.dtd"
   xmlns:inkscape="http://www.inkscape.org/namespaces/inkscape"
   sodipodi:docname="Bottoms.svg"
   inkscape:version="1.0 (4035a4fb49, 2020-05-01)"
   id="svg2007"
   version="1.1"
   viewBox="0 0 210 297"
   height="297mm"
   width="210mm">
  <defs
     id="defs2001" />
  <sodipodi:namedview
     inkscape:window-maximized="1"
     inkscape:window-y="-8"
     inkscape:window-x="2552"
     inkscape:window-height="1417"
     inkscape:window-width="2560"
     showgrid="false"
     inkscape:document-rotation="0"
     inkscape:current-layer="layer8"
     inkscape:document-units="mm"
     inkscape:cy="560"
     inkscape:cx="400"
     inkscape:zoom="0.35"
     inkscape:pageshadow="2"
     inkscape:pageopacity="0.0"
     borderopacity="1.0"
     bordercolor="#666666"
     pagecolor="#ffffff"
     id="base" />
  <metadata
     id="metadata2004">
    <rdf:RDF>
      <cc:Work
         rdf:about="">
        <dc:format>image/svg+xml</dc:format>
        <dc:type
           rdf:resource="http://purl.org/dc/dcmitype/StillImage" />
        <dc:title></dc:title>
      </cc:Work>
    </rdf:RDF>
  </metadata>
  <g
     inkscape:label="Trace"
     id="layer8"
     inkscape:groupmode="layer">
    <path
       id="path2024"
       d="m 58.814262,211.62705 c -23.582288,-1.93685 -39.377173,-4.95658 -45.545064,-8.70751 -5.0431981,-3.06695 -5.4109207,-3.91668 -4.6613191,-10.77141 0.4475882,-4.09299 1.6676641,-15.66827 2.7112751,-25.72285 1.828755,-17.61895 9.58497,-59.46415 14.36072,-77.476851 l 2.308046,-8.705265 66.394375,-0.455869 66.394375,-0.455868 1.82381,6.549554 c 7.70167,27.657649 15.10722,70.900519 16.95225,98.988529 l 1.07308,16.33619 -6.25224,2.61237 c -7.28807,3.04513 -32.79661,7.17656 -52.25178,8.46282 -16.13416,1.06669 -14.92873,2.6768 -20.8853,-27.8967 -2.989154,-15.34254 -4.451633,-19.67758 -6.641785,-19.68739 -2.148351,-0.01 -3.499941,3.56863 -5.74957,15.22164 -4.83478,25.044 -7.666909,33.54938 -11.077327,33.26717 -1.649014,-0.1365 -10.178108,-0.83781 -18.953546,-1.55856 z"
       style="fill:#000000;stroke-width:1.74105" />
  </g>
</svg>
