<?xml version="1.0" encoding="UTF-8" standalone="no"?>
<svg
   xmlns:dc="http://purl.org/dc/elements/1.1/"
   xmlns:cc="http://creativecommons.org/ns#"
   xmlns:rdf="http://www.w3.org/1999/02/22-rdf-syntax-ns#"
   xmlns:svg="http://www.w3.org/2000/svg"
   xmlns="http://www.w3.org/2000/svg"
   xmlns:sodipodi="http://sodipodi.sourceforge.net/DTD/sodipodi-0.dtd"
   xmlns:inkscape="http://www.inkscape.org/namespaces/inkscape"
   inkscape:version="1.0 (4035a4fb49, 2020-05-01)"
   sodipodi:docname="CameraColor.svg"
   viewBox="0 0 180 180"
   height="180"
   width="180"
   id="svg2808"
   version="1.1">
  <metadata
     id="metadata2814">
    <rdf:RDF>
      <cc:Work
         rdf:about="">
        <dc:format>image/svg+xml</dc:format>
        <dc:type
           rdf:resource="http://purl.org/dc/dcmitype/StillImage" />
        <dc:title></dc:title>
      </cc:Work>
    </rdf:RDF>
  </metadata>
  <defs
     id="defs2812" />
  <sodipodi:namedview
     inkscape:current-layer="layer18"
     inkscape:window-maximized="1"
     inkscape:window-y="0"
     inkscape:window-x="2560"
     inkscape:cy="175.32987"
     inkscape:cx="246.1061"
     inkscape:zoom="1.1500306"
     showgrid="false"
     id="namedview2810"
     inkscape:window-height="1361"
     inkscape:window-width="2544"
     inkscape:pageshadow="2"
     inkscape:pageopacity="0"
     guidetolerance="10"
     gridtolerance="10"
     objecttolerance="10"
     borderopacity="1"
     bordercolor="#666666"
     pagecolor="#ffffff" />
  <g
     inkscape:label="Trace"
     id="layer18"
     inkscape:groupmode="layer">
    <g
       transform="translate(484.96792,-429.71)"
       id="g2938">
      <g
         id="g2958">
        <path
           style="fill:#f7f4e4;stroke-width:3.41161"
           d="m -547.00884,875.20668 c -46.12752,-20.01 -51.25859,-34.66844 -51.25859,-146.43544 0,-97.92799 3.41199,-115.46904 25.24277,-129.77311 8.21596,-5.38331 8.80672,-7.54685 8.80672,-32.25319 0,-34.53322 0.10605,-34.60665 48.2509,-33.40375 l 38.74525,0.96805 1.70581,20.0136 c 1.61824,18.98626 1.99672,19.68677 7.37296,13.64646 3.11693,-3.50193 6.80252,-14.04328 8.1902,-23.42522 1.87696,-12.68988 5.36179,-19.8974 13.60847,-28.14582 l 11.08542,-11.08774 h 83.87187 83.8719 l 10.30499,9.38194 c 7.51125,6.83844 11.20626,14.2626 13.62939,27.38472 5.51597,29.87108 5.87296,30.15323 41.56172,32.84737 46.97567,3.5462 71.65273,19.02061 86.32281,54.13104 7.6532,18.31669 7.6532,181.11461 0,199.43129 -8.71067,20.84762 -22.07175,35.35575 -40.43456,43.90594 l -17.45733,8.12858 -180.81554,-0.10031 c -153.00147,-0.0849 -182.62909,-0.88691 -192.60516,-5.21451 z"
           id="path2950" />
        <path
           style="fill:#fc64aa;stroke-width:3.41161"
           d="m -543.28061,875.91708 c -18.04584,-6.53051 -38.06748,-25.51952 -46.89404,-44.47544 -7.83669,-16.83007 -8.09278,-20.07902 -8.09278,-102.6704 0,-93.96751 2.54598,-106.93432 25.06894,-127.67732 8.03078,-7.39611 8.98055,-10.75729 8.98055,-31.78171 0,-36.37634 0.39655,-36.70878 43.78869,-36.70878 42.45294,0 44.91327,1.34559 44.91327,24.56362 0,25.37753 11.46645,19.76407 15.67711,-7.67481 3.19994,-20.85257 9.90768,-32.88835 21.73897,-39.00655 15.6489,-8.09237 160.49111,-7.55639 174.37539,0.64526 11.56202,6.82986 20.19829,23.22658 20.19829,38.34832 0,19.25195 12.40817,27.46208 41.63721,27.55007 40.59752,0.1222 67.54801,16.10565 83.28487,49.39348 7.80795,16.51599 8.0642,19.76844 8.0642,102.34842 0,94.58368 -2.42068,106.5824 -25.94185,128.58731 -25.11299,23.49411 -21.35796,23.09959 -217.92189,22.89503 -130.39091,-0.13578 -180.44434,-1.28488 -188.87693,-4.3365 z m 240.18811,-43.93354 c 84.66439,-43.2419 81.65593,-163.25138 -5.09872,-203.38929 -82.287,-38.07091 -172.87955,41.11267 -150.52609,131.56926 16.32563,66.0641 95.4237,102.56744 155.62481,71.82003 z m -63.60208,-19.41092 c -68.26992,-13.28059 -90.01515,-99.1919 -36.66523,-144.85745 52.74142,-45.14469 132.38814,-6.84165 132.50734,63.72436 0.0873,51.64235 -46.16555,90.79673 -95.84211,81.13309 z m 73.45626,-63.57539 c 6.52218,-6.52219 6.63439,-8.65155 0.87108,-16.5333 -6.68945,-9.14839 -17.46067,-5.59771 -18.81157,6.20112 -1.6315,14.24984 8.302,19.97067 17.94049,10.33218 z m -3.61133,-39.71984 c 7.62871,-12.17127 -18.96571,-36.55505 -42.79912,-39.24141 -28.07468,-3.16443 -31.9844,18.83806 -4.15222,23.36724 9.23743,1.50323 15.86545,5.4163 21.80422,12.87284 9.22692,11.58507 19.0334,12.75548 25.14712,3.00133 z M -317.81317,572.6899 c 0.82425,-2.34549 0.53928,-8.10259 -0.63319,-12.79356 -3.33052,-13.32498 -59.47856,-15.08999 -65.41707,-2.05637 -7.46848,16.39152 -2.85309,19.11444 32.39928,19.11444 22.64827,0 32.59539,-1.26057 33.65098,-4.26451 z"
           id="path2948" />
        <path
           style="fill:#9263dd;stroke-width:3.41161"
           d="m -543.28061,875.91708 c -18.04584,-6.53051 -38.06748,-25.51952 -46.89404,-44.47544 -12.45151,-26.74087 -12.49683,-178.50297 -0.0613,-205.20854 15.59234,-33.48483 43.09173,-49.23684 86.11705,-49.32898 32.90133,-0.0704 39.6726,-4.25967 44.26164,-27.38361 8.58181,-43.2433 10.96568,-44.20999 109.02226,-44.20999 66.6957,0 78.60425,0.79569 87.11046,5.82043 11.56202,6.82986 20.19829,23.22658 20.19829,38.34832 0,19.25195 12.40817,27.46208 41.63721,27.55007 40.59752,0.1222 67.54801,16.10565 83.28487,49.39348 7.80795,16.51599 8.0642,19.76844 8.0642,102.34842 0,94.58368 -2.42068,106.5824 -25.94185,128.58731 -25.11299,23.49411 -21.35796,23.09959 -217.92189,22.89503 -130.39091,-0.13578 -180.44434,-1.28488 -188.87693,-4.3365 z m 240.18811,-43.93354 c 84.66439,-43.2419 81.65593,-163.25138 -5.09872,-203.38929 -82.287,-38.07091 -172.87955,41.11267 -150.52609,131.56926 16.32563,66.0641 95.4237,102.56744 155.62481,71.82003 z m -63.60208,-19.41092 c -68.26992,-13.28059 -90.01515,-99.1919 -36.66523,-144.85745 52.74142,-45.14469 132.38814,-6.84165 132.50734,63.72436 0.0873,51.64235 -46.16555,90.79673 -95.84211,81.13309 z m 73.45626,-63.57539 c 6.52218,-6.52219 6.63439,-8.65155 0.87108,-16.5333 -6.68945,-9.14839 -17.46067,-5.59771 -18.81157,6.20112 -1.6315,14.24984 8.302,19.97067 17.94049,10.33218 z m -3.61133,-39.71984 c 7.62871,-12.17127 -18.96571,-36.55505 -42.79912,-39.24141 -28.07468,-3.16443 -31.9844,18.83806 -4.15222,23.36724 9.23743,1.50323 15.86545,5.4163 21.80422,12.87284 9.22692,11.58507 19.0334,12.75548 25.14712,3.00133 z M -317.81317,572.6899 c 0.82425,-2.34549 0.53928,-8.10259 -0.63319,-12.79356 -3.33052,-13.32498 -59.47856,-15.08999 -65.41707,-2.05637 -7.46848,16.39152 -2.85309,19.11444 32.39928,19.11444 22.64827,0 32.59539,-1.26057 33.65098,-4.26451 z"
           id="path2946" />
        <path
           style="fill:#877972;stroke-width:3.41161"
           d="m -543.28061,875.91708 c -18.04584,-6.53051 -38.06748,-25.51952 -46.89404,-44.47544 -12.45151,-26.74087 -12.49683,-178.50297 -0.0613,-205.20854 15.59234,-33.48483 43.09173,-49.23684 86.11705,-49.32898 32.90133,-0.0704 39.6726,-4.25967 44.26164,-27.38361 8.58181,-43.2433 10.96568,-44.20999 109.02226,-44.20999 66.6957,0 78.60425,0.79569 87.11046,5.82043 11.56202,6.82986 20.19829,23.22658 20.19829,38.34832 0,19.25195 12.40817,27.46208 41.63721,27.55007 40.59752,0.1222 67.54801,16.10565 83.28487,49.39348 7.80795,16.51599 8.0642,19.76844 8.0642,102.34842 0,94.58368 -2.42068,106.5824 -25.94185,128.58731 -25.11299,23.49411 -21.35796,23.09959 -217.92189,22.89503 -130.39091,-0.13578 -180.44434,-1.28488 -188.87693,-4.3365 z m 240.18811,-43.93354 c 84.66439,-43.2419 81.65593,-163.25138 -5.09872,-203.38929 -82.287,-38.07091 -172.87955,41.11267 -150.52609,131.56926 16.32563,66.0641 95.4237,102.56744 155.62481,71.82003 z M -317.81317,572.6899 c 0.82425,-2.34549 0.53928,-8.10259 -0.63319,-12.79356 -3.33052,-13.32498 -59.47856,-15.08999 -65.41707,-2.05637 -7.46848,16.39152 -2.85309,19.11444 32.39928,19.11444 22.64827,0 32.59539,-1.26057 33.65098,-4.26451 z"
           id="path2944" />
        <path
           style="fill:#695a52;stroke-width:3.41161"
           d="m -541.46201,875.05033 c -23.45804,-7.20711 -44.67281,-29.29993 -51.8531,-53.99927 -9.45824,-32.5352 -6.10338,-175.31641 4.63147,-197.11294 15.52614,-31.52497 43.8115,-46.59488 87.9047,-46.83396 32.42358,-0.17581 37.9634,-4.01708 42.75087,-29.6432 7.24318,-38.77083 15.82528,-42.15044 107.036,-42.15044 91.63934,0 100.2977,3.45256 105.9499,42.24798 3.47807,23.87283 10.377,29.39591 36.71869,29.39591 47.61381,0 81.54361,21.38372 92.50686,58.30095 7.68368,25.87372 7.68368,161.15802 0,187.03176 -7.24118,24.3837 -28.5739,45.71642 -52.95759,52.9576 -25.98606,7.71704 -347.4831,7.54932 -372.6878,-0.19446 z m 223.08214,-35.68067 c 77.86126,-19.52522 104.32416,-129.57018 45.34185,-188.55247 -43.86892,-43.86891 -119.45853,-43.0475 -159.91937,1.73781 -39.90437,44.16937 -41.02754,110.32269 -2.59875,153.06472 30.98435,34.46208 69.77855,45.63583 117.17627,33.74994 z m 1.97894,-267.5403 c 1.08169,-2.81877 0.99043,-9.01475 -0.20265,-13.76884 -2.15788,-8.59763 -2.34658,-8.63858 -35.33697,-7.6685 l -33.16766,0.97529 -1.05884,12.79355 -1.05885,12.79355 h 34.42916 c 27.47928,0 34.82613,-1.03454 36.39581,-5.12505 z"
           id="path2942" />
        <path
           style="fill:#4b3a32;stroke-width:3.41161"
           d="m -531.80761,877.47097 c -24.43209,-6.12221 -44.71519,-22.4604 -57.48751,-46.30659 -11.4478,-21.37332 -11.28071,-183.71465 0.21121,-205.20027 18.10888,-33.85688 39.72217,-45.91075 87.41617,-48.75254 38.61492,-2.30083 41.01603,-3.99236 44.66,-31.46201 4.94636,-37.28745 17.58454,-41.55513 118.03094,-39.8568 82.35125,1.39239 86.20641,3.19001 93.86637,43.76874 4.46962,23.67799 8.10511,26.13473 41.49099,28.03831 43.23849,2.46535 66.54903,15.71283 83.47507,47.43922 7.75893,14.54341 7.9653,17.22848 7.9653,103.63221 0,98.00738 -0.2511,99.33797 -23.41033,123.96996 -25.54535,27.17006 -16.82393,26.07088 -211.99104,26.71775 -95.69578,0.31728 -178.598,-0.57741 -184.22716,-1.98798 z m 227.71206,-43.59115 c 85.04581,-38.16627 85.5215,-164.22829 0.7771,-205.92995 -24.17011,-11.89381 -74.56701,-12.09628 -96.62828,-0.3882 -82.91742,44.00487 -86.19322,156.52585 -5.92636,203.56536 29.71526,17.41431 66.86819,18.4192 101.77754,2.75279 z m -12.30538,-262.05046 c 1.08169,-2.81877 0.99043,-9.01475 -0.20265,-13.76884 -2.15788,-8.59763 -2.34658,-8.63858 -35.33697,-7.6685 l -33.16766,0.97529 -1.05884,12.79355 -1.05885,12.79355 h 34.42916 c 27.47928,0 34.82613,-1.03454 36.39581,-5.12505 z"
           id="path2940" />
      </g>
    </g>
  </g>
</svg>
