<?xml version="1.0" encoding="UTF-8" standalone="no"?>
<svg
   xmlns:dc="http://purl.org/dc/elements/1.1/"
   xmlns:cc="http://creativecommons.org/ns#"
   xmlns:rdf="http://www.w3.org/1999/02/22-rdf-syntax-ns#"
   xmlns:svg="http://www.w3.org/2000/svg"
   xmlns="http://www.w3.org/2000/svg"
   xmlns:sodipodi="http://sodipodi.sourceforge.net/DTD/sodipodi-0.dtd"
   xmlns:inkscape="http://www.inkscape.org/namespaces/inkscape"
   inkscape:version="1.0 (4035a4fb49, 2020-05-01)"
   sodipodi:docname="Camera.svg"
   viewBox="0 0 180 180"
   height="180"
   width="180"
   id="svg3430"
   version="1.1">
  <metadata
     id="metadata3436">
    <rdf:RDF>
      <cc:Work
         rdf:about="">
        <dc:format>image/svg+xml</dc:format>
        <dc:type
           rdf:resource="http://purl.org/dc/dcmitype/StillImage" />
        <dc:title></dc:title>
      </cc:Work>
    </rdf:RDF>
  </metadata>
  <defs
     id="defs3434" />
  <sodipodi:namedview
     inkscape:current-layer="layer19"
     inkscape:window-maximized="1"
     inkscape:window-y="0"
     inkscape:window-x="2560"
     inkscape:cy="198.4492"
     inkscape:cx="158.13778"
     inkscape:zoom="0.81319445"
     showgrid="false"
     id="namedview3432"
     inkscape:window-height="1361"
     inkscape:window-width="2544"
     inkscape:pageshadow="2"
     inkscape:pageopacity="0"
     guidetolerance="10"
     gridtolerance="10"
     objecttolerance="10"
     borderopacity="1"
     bordercolor="#666666"
     pagecolor="#ffffff" />
  <g
     inkscape:label="Trace"
     id="layer19"
     inkscape:groupmode="layer">
    <path
       id="path3443"
       d="M 131.04298,576.07548 C 108.84307,568.04167 84.212551,544.68148 73.354161,521.362 63.7135,500.65773 63.39846,496.66089 63.39846,395.05736 c 0,-117.09399 2.868268,-130.94858 32.962787,-159.22012 12.366423,-11.61731 13.121673,-14.08488 13.121673,-42.87107 0,-37.74753 2.04467,-39.23349 53.98467,-39.23349 44.81658,0 50.9391,3.81936 50.9391,31.77691 0,29.87681 14.26134,21.74236 19.28591,-11.00039 3.93656,-25.65272 12.18838,-40.45908 26.74318,-47.98567 19.2512,-9.95518 197.43538,-9.29582 214.51576,0.79381 14.22354,8.40206 24.84783,28.57322 24.84783,47.17591 0,23.68366 15.26449,33.78372 51.2219,33.89197 49.94288,0.15033 83.09724,19.81309 102.45664,60.76361 9.60531,20.31789 9.92055,24.31904 9.92055,125.90853 0,116.35641 -2.97791,131.11717 -31.91353,158.1875 -30.89389,28.90234 -26.27447,28.417 -268.08646,28.16536 -160.40627,-0.16704 -221.98176,-1.58065 -232.35549,-5.33474 z M 426.52124,522.02865 C 527.89205,470.25401 527.30808,323.62521 425.53105,273.40233 322.49488,222.55814 206.72272,320.01078 235.12852,433.67599 c 20.49367,82.00507 116.78715,126.45702 191.39272,88.35266 z M 325.62591,489.90909 c -74.40233,-34.52131 -77.72518,-144.44849 -5.48046,-181.305 84.07487,-42.8918 174.98771,42.8772 137.59162,129.80673 -21.58538,50.17665 -83.19708,74.19349 -132.11116,51.49827 z m 117.06454,-72.81774 c 9.76274,-15.57395 -14.96934,-32.12839 -26.76517,-17.91527 -4.29025,5.16943 -4.43094,8.9597 -0.64138,17.27692 5.58484,12.25741 19.91378,12.59115 27.40655,0.63835 z m -6.67852,-47.68615 c 3.50219,-24.53549 -52.68598,-59.58241 -75.74175,-47.24334 -16.39583,8.77478 -5.854,25.52919 19.44248,30.90045 6.66448,1.41508 17.05193,8.21122 23.08323,15.10252 13.0768,14.94147 31.16393,15.61688 33.21604,1.24037 z M 408.41194,203.04685 c 1.01398,-2.8854 0.66307,-9.96775 -0.77972,-15.73857 -4.15989,-16.63847 -78.22099,-18.67464 -82.33986,-2.26377 -5.26431,20.97472 -1.18369,23.24853 41.7223,23.24853 27.8618,0 40.09869,-1.55075 41.39728,-5.24619 z"
       style="fill:#000000;stroke-width:4.19695" />
  </g>
</svg>
