<?xml version="1.0" encoding="UTF-8" standalone="no"?>
<svg
   xmlns:dc="http://purl.org/dc/elements/1.1/"
   xmlns:cc="http://creativecommons.org/ns#"
   xmlns:rdf="http://www.w3.org/1999/02/22-rdf-syntax-ns#"
   xmlns:svg="http://www.w3.org/2000/svg"
   xmlns="http://www.w3.org/2000/svg"
   xmlns:sodipodi="http://sodipodi.sourceforge.net/DTD/sodipodi-0.dtd"
   xmlns:inkscape="http://www.inkscape.org/namespaces/inkscape"
   sodipodi:docname="Clothes.svg"
   inkscape:version="1.0 (4035a4fb49, 2020-05-01)"
   id="svg217"
   version="1.1"
   viewBox="0 0 210 297"
   height="297mm"
   width="210mm">
  <defs
     id="defs211" />
  <sodipodi:namedview
     inkscape:window-maximized="1"
     inkscape:window-y="-8"
     inkscape:window-x="2552"
     inkscape:window-height="1417"
     inkscape:window-width="2560"
     showgrid="false"
     inkscape:document-rotation="0"
     inkscape:current-layer="layer3"
     inkscape:document-units="mm"
     inkscape:cy="622.33613"
     inkscape:cx="318.81146"
     inkscape:zoom="11.2"
     inkscape:pageshadow="2"
     inkscape:pageopacity="0.0"
     borderopacity="1.0"
     bordercolor="#666666"
     pagecolor="#ffffff"
     id="base" />
  <metadata
     id="metadata214">
    <rdf:RDF>
      <cc:Work
         rdf:about="">
        <dc:format>image/svg+xml</dc:format>
        <dc:type
           rdf:resource="http://purl.org/dc/dcmitype/StillImage" />
        <dc:title></dc:title>
      </cc:Work>
    </rdf:RDF>
  </metadata>
  <g
     style="display:inline"
     inkscape:label="Trace"
     id="layer3"
     inkscape:groupmode="layer">
    <path
       sodipodi:nodetypes="ccccccccccccccccccccccc"
       id="path233"
       d="m 79.134514,153.41922 c -3.543006,1.04978 -7.045668,2.52881 -10.422168,5.3502 -0.300611,0.34042 -0.204291,0.81579 0.02545,1.33652 1.446611,2.05772 2.891375,4.42559 4.339834,6.17317 0.316003,0.43122 0.905654,0.33906 1.470353,-0.0581 l 1.310283,-1.22834 -1.674222,6.23756 c -0.103212,0.73966 -0.559604,1.5027 0.219127,2.4736 0.69289,0.64976 1.09217,1.28048 3.228642,2.02379 1.036643,0.29783 2.277152,0.54598 3.670511,0.75688 1.604097,0.1724 3.64274,0.20283 6.581992,-0.061 1.309073,-0.17341 2.458538,-0.42782 3.412403,-0.78149 0.789251,-0.23681 1.189701,-0.47061 1.64078,-0.62501 0.458078,-0.24929 0.882658,-0.48359 1.343886,-1.26154 0.227197,-0.57671 0.534728,-1.18976 0.313214,-2.10292 l -1.830443,-6.79299 1.627442,1.61334 c 0.358432,0.30628 1.160359,0.38749 1.470154,-0.0247 2.147945,-2.49063 2.785359,-3.94797 4.178038,-5.92196 0.52967,-0.98835 0.22823,-1.15542 0.0756,-1.46955 -3.692719,-3.25261 -6.945343,-4.5449 -10.123621,-5.50604 -0.359003,0.76631 -0.710782,4.10804 -5.238726,4.1706 -2.110992,-0.0997 -4.531473,-0.01 -5.618529,-4.30202 z"
       style="fill:none;stroke:#000000;stroke-width:0.264583px;stroke-linecap:butt;stroke-linejoin:miter;stroke-opacity:1" />
    <g
       id="g1088">
      <ellipse
         style="fill:none;stroke-width:0.264583"
         id="path1060"
         cx="84.136604"
         cy="166.19467"
         rx="0.89614642"
         ry="0.99091345" />
      <ellipse
         style="fill:none;stroke:#000000;stroke-width:0.179836;stroke-miterlimit:4;stroke-dasharray:none;stroke-opacity:1"
         id="path1064"
         cx="84.390564"
         cy="161.55679"
         rx="1.6436079"
         ry="1.6694582" />
      <ellipse
         ry="1.6694582"
         rx="1.6436079"
         cy="166.50119"
         cx="84.390564"
         id="ellipse1066"
         style="fill:none;stroke:#000000;stroke-width:0.179836;stroke-miterlimit:4;stroke-dasharray:none;stroke-opacity:1" />
      <path
         style="fill:none;stroke:#000000;stroke-width:0.0789651;stroke-miterlimit:4;stroke-dasharray:none;stroke-opacity:1"
         d="m 294.84699,581.41088 c -12.63486,4.07844 -24.75573,10.14312 -34.89807,18.78794 -1.08991,0.94407 -0.65396,2.63137 -0.33258,3.83702 3.05595,5.21379 6.62042,10.11789 9.9758,15.14272 2.33664,3.25727 4.54243,6.65149 7.28299,9.58771 1.34872,1.04974 3.31625,0.3141 4.51118,-0.65707 1.98994,-1.55109 3.7315,-3.38831 5.62208,-5.05413 -2.27736,9.10428 -5.00046,18.09563 -7.05705,27.25405 -0.66612,2.35353 0.20487,4.87554 1.9323,6.54553 3.54695,3.86912 8.35971,6.35012 13.41798,7.58845 6.74602,1.68118 13.6526,2.95249 20.63134,2.85973 7.84735,0.0129 15.78012,-0.24972 23.45746,-2.00836 4.36866,-1.09846 8.67394,-2.55985 12.72235,-4.54056 2.97948,-1.72021 4.83839,-4.97593 5.36386,-8.31222 0.33331,-3.57582 -1.17414,-6.95953 -1.93442,-10.38541 -1.74778,-6.48761 -3.53366,-12.96235 -5.21659,-19.46729 2.52493,2.28705 4.75374,4.93033 7.50754,6.95194 1.47459,0.58462 3.50496,0.63155 4.48026,-0.85292 6.02091,-6.68536 10.5355,-14.54065 15.48006,-21.98789 0.93046,-1.5138 1.87824,-3.76447 0.41361,-5.26095 -4.06331,-3.90632 -8.71427,-7.16988 -13.46779,-10.17908 -7.45306,-4.62463 -15.62355,-8.01723 -24.02914,-10.46637 -0.95166,0.23942 -0.92645,1.58128 -1.28556,2.33473 -1.30022,4.44469 -3.92202,8.85059 -8.18456,10.96706 -2.72767,1.45059 -5.83981,2.00621 -8.90257,1.877 -5.02083,-2.3e-4 -10.37929,0.41042 -14.84521,-2.32159 -4.36654,-2.55575 -6.70836,-7.39281 -8.12207,-12.05121 -0.0109,-1.45816 -1.14094,-1.59928 -2.21248,-0.94783 -0.77024,0.253 -1.54048,0.506 -2.31072,0.759 z m 24.18748,22.99748 c 2.46439,-0.29359 4.56735,1.56108 5.65456,3.6024 0.53601,1.48372 0.3704,3.10349 0.19809,4.62598 -0.89293,2.57812 -3.51987,4.4351 -6.27642,4.23967 -3.71685,0.0422 -6.57077,-3.96594 -5.75724,-7.50026 0.52363,-2.81776 3.17757,-5.30768 6.18101,-4.96779 z m 0.0214,18.58758 c 3.34514,-0.0555 6.40941,3.13661 6.03011,6.49915 0.17557,3.45589 -3.20041,6.4232 -6.59096,6.08981 -3.35761,-0.15078 -6.13568,-3.4384 -5.69004,-6.77963 0.003,-3.25668 3.09733,-5.91537 6.25089,-5.80933 z"
         id="path1068"
         transform="scale(0.26458333)" />
      <path
         style="fill:none;stroke:#000000;stroke-width:0.0789651;stroke-miterlimit:4;stroke-dasharray:none;stroke-opacity:1"
         d="m 294.84699,581.41088 c -12.63486,4.07844 -24.75573,10.14312 -34.89807,18.78794 -1.08991,0.94407 -0.65396,2.63137 -0.33258,3.83702 3.05595,5.21379 6.62042,10.11789 9.9758,15.14272 2.33664,3.25727 4.54243,6.65149 7.28299,9.58771 1.34872,1.04974 3.31625,0.3141 4.51118,-0.65707 1.98994,-1.55109 3.7315,-3.38831 5.62208,-5.05413 -2.27736,9.10428 -5.00046,18.09563 -7.05705,27.25405 -0.66612,2.35353 0.20487,4.87554 1.9323,6.54553 3.54695,3.86912 8.35971,6.35012 13.41798,7.58845 6.74602,1.68118 13.6526,2.95249 20.63134,2.85973 7.84735,0.0129 15.78012,-0.24972 23.45746,-2.00836 4.36866,-1.09846 8.67394,-2.55985 12.72235,-4.54056 2.97948,-1.72021 4.83839,-4.97593 5.36386,-8.31222 0.33331,-3.57582 -1.17414,-6.95953 -1.93442,-10.38541 -1.74778,-6.48761 -3.53366,-12.96235 -5.21659,-19.46729 2.52493,2.28705 4.75374,4.93033 7.50754,6.95194 1.47459,0.58462 3.50496,0.63155 4.48026,-0.85292 6.02091,-6.68536 10.5355,-14.54065 15.48006,-21.98789 0.93046,-1.5138 1.87824,-3.76447 0.41361,-5.26095 -4.06331,-3.90632 -8.71427,-7.16988 -13.46779,-10.17908 -7.45306,-4.62463 -15.62355,-8.01723 -24.02914,-10.46637 -0.95166,0.23942 -0.92645,1.58128 -1.28556,2.33473 -1.30022,4.44469 -3.92202,8.85059 -8.18456,10.96706 -2.72767,1.45059 -5.83981,2.00621 -8.90257,1.877 -5.02083,-2.3e-4 -10.37929,0.41042 -14.84521,-2.32159 -4.36654,-2.55575 -6.70836,-7.39281 -8.12207,-12.05121 -0.0109,-1.45816 -1.14094,-1.59928 -2.21248,-0.94783 -0.77024,0.253 -1.54048,0.506 -2.31072,0.759 z m 24.18748,22.99748 c 2.46439,-0.29359 4.56735,1.56108 5.65456,3.6024 0.53601,1.48372 0.3704,3.10349 0.19809,4.62598 -0.89293,2.57812 -3.51987,4.4351 -6.27642,4.23967 -3.71685,0.0422 -6.57077,-3.96594 -5.75724,-7.50026 0.52363,-2.81776 3.17757,-5.30768 6.18101,-4.96779 z m 0.0214,18.58758 c 3.34514,-0.0555 6.40941,3.13661 6.03011,6.49915 0.17557,3.45589 -3.20041,6.4232 -6.59096,6.08981 -3.35761,-0.15078 -6.13568,-3.4384 -5.69004,-6.77963 0.003,-3.25668 3.09733,-5.91537 6.25089,-5.80933 z"
         id="path1070"
         transform="scale(0.26458333)" />
      <path
         style="fill:#000000;stroke:#000000;stroke-width:0.0104464;stroke-miterlimit:4;stroke-dasharray:none;stroke-opacity:1"
         d="m 78.993063,153.48105 c -1.277131,0.39862 -2.550382,0.81921 -3.77866,1.35296 -2.318679,0.98838 -4.510974,2.29225 -6.437802,3.92087 -0.283763,0.23479 -0.237453,0.65349 -0.14264,0.96885 0.137486,0.44932 0.470517,0.80048 0.714024,1.19313 1.225589,1.77684 2.362988,3.62309 3.738334,5.29215 0.154395,0.23094 0.445172,0.3438 0.714886,0.27793 0.414044,-0.0733 0.751634,-0.34163 1.042847,-0.62934 0.35886,-0.33328 0.715431,-0.66901 1.073256,-1.00339 -0.593585,2.28062 -1.234289,4.54889 -1.800656,6.83659 -0.110495,0.4403 -0.203211,0.91551 -0.03368,1.35447 0.176546,0.5467 0.650296,0.90699 1.052867,1.28472 0.734457,0.66404 1.664909,1.05756 2.596073,1.35913 1.122003,0.32375 2.272946,0.543 3.428408,0.70727 1.286121,0.18721 2.588955,0.15902 3.884662,0.14676 1.105609,-0.0467 2.214565,-0.094 3.311374,-0.2478 1.450626,-0.20298 2.859479,-0.63535 4.210439,-1.19457 0.705749,-0.24876 1.333429,-0.74605 1.671249,-1.42101 0.2981,-0.6185 0.49851,-1.33556 0.30653,-2.01649 -0.6062,-2.31543 -1.2467,-4.62155 -1.854255,-6.93661 0.616395,0.58187 1.190775,1.21349 1.833975,1.76815 0.32695,0.19801 0.77524,0.24641 1.11527,0.053 0.33221,-0.26273 0.56998,-0.62376 0.84599,-0.94127 1.27546,-1.5678 2.29242,-3.32159 3.41436,-4.99542 0.220676,-0.33888 0.442476,-0.74506 0.363466,-1.16272 -0.0859,-0.28906 -0.304846,-0.50411 -0.536456,-0.6839 -2.03546,-1.75488 -4.3517,-3.1864 -6.84782,-4.18621 -0.907481,-0.36326 -1.834364,-0.6792 -2.769899,-0.96146 -0.176638,-0.0308 -0.174437,0.20305 -0.227563,0.3142 -0.265036,0.86438 -0.629409,1.72755 -1.272987,2.38143 -0.359656,0.4014 -0.806574,0.71312 -1.298202,0.91768 -0.801092,0.34131 -1.670812,0.51768 -2.538402,0.48955 -0.967216,-0.004 -1.957596,-0.045 -2.874592,-0.39636 -0.842896,-0.3253 -1.526698,-0.98053 -1.969794,-1.75956 -0.373528,-0.62841 -0.603678,-1.31716 -0.814062,-2.0166 -0.02782,-0.0418 -0.06693,-0.0773 -0.120541,-0.0661 z m 5.348473,6.40336 c 0.478004,-0.0192 0.954878,0.18141 1.265232,0.54729 0.455694,0.50433 0.529367,1.30196 0.218241,1.898 -0.269303,0.46754 -0.753218,0.82846 -1.302588,0.86235 -0.742829,0.0824 -1.482336,-0.42416 -1.700123,-1.13387 -0.09056,-0.30317 -0.08697,-0.63394 -0.02976,-0.94321 0.179639,-0.68213 0.828554,-1.24569 1.548996,-1.23056 z m 0.05026,4.93811 c 0.809921,-0.017 1.546018,0.66283 1.615453,1.46572 0.0869,0.68599 -0.294619,1.39896 -0.9213,1.69563 -0.346242,0.17285 -0.757029,0.19835 -1.133131,0.10638 -0.656696,-0.1732 -1.154295,-0.78876 -1.201177,-1.46429 -0.0793,-0.72515 0.380894,-1.46181 1.067446,-1.70824 0.182192,-0.0698 0.378735,-0.0925 0.572709,-0.0952 z"
         id="path1072" />
    </g>
  </g>
</svg>
