<?xml version="1.0" standalone="no"?>
<!DOCTYPE svg PUBLIC "-//W3C//DTD SVG 20010904//EN"
 "http://www.w3.org/TR/2001/REC-SVG-20010904/DTD/svg10.dtd">
<svg version="1.0" xmlns="http://www.w3.org/2000/svg"
 width="80.000000pt" height="80.000000pt" viewBox="0 0 80.000000 80.000000"
 preserveAspectRatio="xMidYMid meet">
<metadata>
Created by potrace 1.16, written by Peter Selinger 2001-2019
</metadata>
<g transform="translate(0.000000,80.000000) scale(0.100000,-0.100000)"
fill="#000000" stroke="none">
<path d="M504 706 c-19 -19 -34 -41 -34 -50 0 -20 -4 -20 -58 -1 -33 12 -52
13 -81 5 -46 -12 -58 -25 -111 -120 -64 -113 -86 -140 -119 -140 -35 0 -61
-28 -61 -67 0 -44 -10 -36 282 -206 113 -65 141 -77 178 -77 70 0 96 25 177
166 58 101 73 136 73 168 0 48 -29 102 -64 117 l-24 11 24 46 c28 52 29 70 10
117 -17 41 -60 65 -117 65 -33 0 -47 -6 -75 -34z m124 -32 c36 -25 30 -79 -14
-120 -19 -19 -34 -39 -32 -44 2 -5 25 -25 53 -42 63 -42 75 -72 50 -128 -32
-71 -27 -72 -230 45 -101 58 -187 110 -190 115 -3 4 10 30 28 56 40 61 74 68
142 29 25 -15 51 -25 59 -22 7 3 16 22 19 43 12 70 66 103 115 68z m-182 -311
c101 -59 184 -111 184 -115 0 -17 -73 -129 -90 -138 -36 -19 -66 -9 -191 63
l-126 72 30 16 c17 8 33 21 35 28 3 9 -4 8 -26 -3 -17 -9 -40 -16 -52 -16 -36
0 -120 50 -120 72 0 4 15 8 34 8 36 0 70 31 102 91 8 16 19 29 25 29 6 0 94
-48 195 -107z"/>
</g>
</svg>
