<?xml version="1.0" encoding="UTF-8" standalone="no"?>
<svg
   xmlns:dc="http://purl.org/dc/elements/1.1/"
   xmlns:cc="http://creativecommons.org/ns#"
   xmlns:rdf="http://www.w3.org/1999/02/22-rdf-syntax-ns#"
   xmlns:svg="http://www.w3.org/2000/svg"
   xmlns="http://www.w3.org/2000/svg"
   xmlns:sodipodi="http://sodipodi.sourceforge.net/DTD/sodipodi-0.dtd"
   xmlns:inkscape="http://www.inkscape.org/namespaces/inkscape"
   inkscape:version="1.0 (4035a4fb49, 2020-05-01)"
   sodipodi:docname="fencing.svg"
   viewBox="0 0 16.32 14.08"
   height="14.08"
   width="16.32"
   id="svg833"
   version="1.1">
  <metadata
     id="metadata839">
    <rdf:RDF>
      <cc:Work
         rdf:about="">
        <dc:format>image/svg+xml</dc:format>
        <dc:type
           rdf:resource="http://purl.org/dc/dcmitype/StillImage" />
        <dc:title></dc:title>
      </cc:Work>
    </rdf:RDF>
  </metadata>
  <defs
     id="defs837">
    <marker
       inkscape:isstock="true"
       style="overflow:visible"
       id="Arrow1Lstart"
       refX="0.0"
       refY="0.0"
       orient="auto"
       inkscape:stockid="Arrow1Lstart">
      <path
         transform="scale(0.8) translate(12.5,0)"
         style="fill-rule:evenodd;stroke:#000000;stroke-width:1pt;stroke-opacity:1;fill:#000000;fill-opacity:1"
         d="M 0.0,0.0 L 5.0,-5.0 L -12.5,0.0 L 5.0,5.0 L 0.0,0.0 z "
         id="path938" />
    </marker>
    <marker
       inkscape:isstock="true"
       style="overflow:visible;"
       id="Arrow1Lend"
       refX="0.0"
       refY="0.0"
       orient="auto"
       inkscape:stockid="Arrow1Lend">
      <path
         transform="scale(0.8) rotate(180) translate(12.5,0)"
         style="fill-rule:evenodd;stroke:#000000;stroke-width:1pt;stroke-opacity:1;fill:#000000;fill-opacity:1"
         d="M 0.0,0.0 L 5.0,-5.0 L -12.5,0.0 L 5.0,5.0 L 0.0,0.0 z "
         id="path941" />
    </marker>
  </defs>
  <sodipodi:namedview
     inkscape:current-layer="layer1"
     inkscape:window-maximized="1"
     inkscape:window-y="-8"
     inkscape:window-x="2552"
     inkscape:cy="7.1516067"
     inkscape:cx="6.4889282"
     inkscape:zoom="64"
     showgrid="false"
     id="namedview835"
     inkscape:window-height="1417"
     inkscape:window-width="2560"
     inkscape:pageshadow="2"
     inkscape:pageopacity="0"
     guidetolerance="10"
     gridtolerance="10"
     objecttolerance="10"
     borderopacity="1"
     bordercolor="#666666"
     pagecolor="#ffffff" />
  <g
     style="display:inline"
     inkscape:label="Trace"
     id="layer1"
     inkscape:groupmode="layer">
    <path
       d="M 1.5470592 7.3836939 L 1.3770171 7.3899918 L 1.3770171 7.3899918 L 1.3731712 7.5502395 "
       style="opacity:1;fill:none;stroke:#000000;stroke-width:0.377953;stroke-linecap:round;stroke-linejoin:round;stroke-miterlimit:4;stroke-dasharray:none;stroke-dashoffset:0;stroke-opacity:1;paint-order:normal"
       id="path846" />
    <path
       d="M 1.3731712 7.5502395 L 1.3081661 10.258777 L 2.5474814 10.235827 L 2.5704314 12.140701 L 6.9539359 11.980049 L 6.9309859 10.373529 L 7.9178482 10.373529 L 7.9407982 11.911198 L 12.186601 11.934148 L 12.163381 10.211245 L 12.747916 10.234895 L 12.811516 7.4379881 L 12.070951 7.4363481 L 12.117751 4.9113579 L 9.8456723 3.4654931 L 7.6424449 4.8884107 L 7.7571964 7.5735941 L 7.2981907 7.5276935 L 7.321141 5.072013 L 4.7966096 3.2130399 L 1.9048737 5.1638142 L 1.9966748 7.3670415 L 1.5470592 7.3836939 "
       style="opacity:1;fill:none;stroke:#000000;stroke-width:0.377953;stroke-linecap:round;stroke-linejoin:round;stroke-miterlimit:4;stroke-dasharray:none;stroke-dashoffset:0;stroke-opacity:1;paint-order:normal"
       id="path1243" />
    <path
       id="path1248"
       d="m 4.728125,3.3722793 c -0.8919261,0.591888 -1.7794736,1.1907068 -2.6633911,1.7945252 -0.096002,0.096627 -0.042893,0.2499544 -0.053777,0.3713923 0.01473,0.6227066 0.062107,1.243921 0.06162,1.8656682 C 2.0506169,7.473288 1.942709,7.439194 1.8898377,7.456325 1.7609428,7.471723 1.6243951,7.44425 1.5013184,7.489772 c -0.084002,0.096542 -0.027791,0.2377664 -0.047851,0.3545656 -0.01444,0.7420284 -0.037807,1.4858163 -0.052545,2.2269414 0.02259,0.141674 0.1949887,0.08904 0.2955464,0.09503 0.2984125,0.0012 0.5993386,-0.02776 0.8964025,-0.0039 0.051286,0.04187 0.025206,0.133704 0.038602,0.194992 0.019572,0.530088 0.00919,1.062899 0.032355,1.591659 0.029703,0.137493 0.1951134,0.08359 0.2949111,0.09064 1.2651044,-0.04756 2.5306263,-0.09088 3.7955093,-0.14017 0.1422804,-0.04286 0.097781,-0.221137 0.1065622,-0.333038 0.00357,-0.411596 -0.02598,-0.824616 -0.00283,-1.235382 0.034513,-0.06018 0.1335816,-0.02114 0.1916691,-0.03676 0.3078857,0.0018 0.6198078,-0.01214 0.9233821,0.01143 0.041972,0.07632 0.020692,0.184878 0.032166,0.272919 0.011855,0.382011 0.00672,0.766181 0.024161,1.146915 0.031487,0.139395 0.203923,0.08237 0.3068172,0.09594 1.2169365,0.01832 2.4340317,0.01908 3.6510777,0.01814 0.143756,-0.01526 0.106878,-0.181913 0.107938,-0.28316 -0.0055,-0.457778 -0.01089,-0.915556 -0.01632,-1.373334 0.05389,-0.09658 0.175289,-0.03482 0.264427,-0.04874 0.106902,-0.0065 0.287656,0.04918 0.314857,-0.09885 0.04221,-0.7971024 0.02908,-1.5958361 0.06869,-2.3924561 -0.0065,-0.1388379 -0.166207,-0.1176371 -0.264416,-0.1177305 -0.142299,-0.0022 -0.284599,-0.00436 -0.426898,-0.00654 -0.08858,-0.071569 -0.02737,-0.200915 -0.04458,-0.3000153 0.0042,-0.7365748 0.03047,-1.4746345 0.03327,-2.2100697 C 11.993987,4.8934113 11.850943,4.8646001 11.767425,4.792908 11.141817,4.3974743 10.520488,3.9917805 9.8911684,3.6043927 9.7704979,3.5669092 9.6800082,3.6994476 9.5775295,3.7443357 8.9795318,4.134043 8.372416,4.5132941 7.7801625,4.9096666 c -0.081087,0.087225 -0.020282,0.2199207 -0.033332,0.3267682 0.023998,0.7858506 0.077002,1.5734948 0.086611,2.3559983 0.00389,0.093741 -0.1124756,0.05553 -0.1706237,0.058258 C 7.5166623,7.6308184 7.3634639,7.6391315 7.2266296,7.5831253 7.203252,7.1778984 7.2232232,6.7587187 7.2220251,6.3479576 7.2221929,5.9516643 7.23746,5.5533437 7.228344,5.1582393 7.1934387,5.0421011 7.0515023,5.004697 6.9704964,4.9236779 6.2616909,4.4066379 5.5641576,3.8733058 4.8415893,3.3756057 4.8056948,3.3501884 4.7670226,3.3635188 4.728125,3.3722793 Z"
       style="opacity:1;fill:#000000;fill-opacity:1;stroke:#000000;stroke-width:0.00590552;stroke-linecap:round;stroke-linejoin:bevel;stroke-miterlimit:4;stroke-dasharray:none;stroke-dashoffset:0;paint-order:normal" />
  </g>
</svg>
