<?xml version="1.0" encoding="UTF-8" standalone="no"?>
<svg
   xmlns:dc="http://purl.org/dc/elements/1.1/"
   xmlns:cc="http://creativecommons.org/ns#"
   xmlns:rdf="http://www.w3.org/1999/02/22-rdf-syntax-ns#"
   xmlns:svg="http://www.w3.org/2000/svg"
   xmlns="http://www.w3.org/2000/svg"
   xmlns:sodipodi="http://sodipodi.sourceforge.net/DTD/sodipodi-0.dtd"
   xmlns:inkscape="http://www.inkscape.org/namespaces/inkscape"
   inkscape:version="1.0 (4035a4fb49, 2020-05-01)"
   sodipodi:docname="Floor.svg"
   viewBox="0 0 128 128"
   height="128"
   width="128"
   id="svg2712"
   version="1.1">
  <metadata
     id="metadata2718">
    <rdf:RDF>
      <cc:Work
         rdf:about="">
        <dc:format>image/svg+xml</dc:format>
        <dc:type
           rdf:resource="http://purl.org/dc/dcmitype/StillImage" />
        <dc:title></dc:title>
      </cc:Work>
    </rdf:RDF>
  </metadata>
  <defs
     id="defs2716" />
  <sodipodi:namedview
     inkscape:current-layer="layer14"
     inkscape:window-maximized="1"
     inkscape:window-y="0"
     inkscape:window-x="2560"
     inkscape:cy="185.54825"
     inkscape:cx="-146.5173"
     inkscape:zoom="1.1982422"
     showgrid="false"
     id="namedview2714"
     inkscape:window-height="1361"
     inkscape:window-width="2544"
     inkscape:pageshadow="2"
     inkscape:pageopacity="0"
     guidetolerance="10"
     gridtolerance="10"
     objecttolerance="10"
     borderopacity="1"
     bordercolor="#666666"
     pagecolor="#ffffff" />
  <g
     inkscape:label="Trace"
     id="layer14"
     inkscape:groupmode="layer">
    <path
       id="path2724"
       d="M 8.2006925,292.004 C 5.2710932,290.29766 2.9806914,285.43239 2.9789271,280.91192 2.9745305,269.64732 47.499171,127.88937 53.04241,121.51935 c 4.196906,-4.82287 14.534478,-5.21862 136.31903,-5.21862 121.78455,0 132.12214,0.39575 136.31904,5.21862 5.5559,6.38456 50.06785,148.14065 50.06347,159.43583 -0.002,4.94973 -2.24463,9.29538 -5.77123,11.18276 -7.87845,4.21642 -354.523254,4.08808 -361.7720275,-0.13394 z m 87.2255475,-38.56191 1.491035,-10.40338 93.266935,-0.78812 c 73.12261,-0.61789 93.5185,0.0263 94.43165,2.98207 0.64059,2.0736 1.97333,7.4605 2.96164,11.97088 1.02938,4.69781 3.79527,8.20069 6.47533,8.20069 3.80597,0 4.30259,-2.2244 2.66314,-11.92828 l -2.01528,-11.92828 h 19.64557 c 15.47468,0 19.64558,-0.94967 19.64558,-4.47311 0,-3.84919 -9.77457,-4.4731 -70.07864,-4.4731 h -70.07865 v -13.41931 -13.41932 h 65.32636 c 63.85819,0 65.29132,-0.13404 63.7667,-5.96414 -1.3379,-5.11611 -4.0676,-5.96414 -19.19788,-5.96414 -11.51004,0 -18.03718,-1.2951 -18.78657,-3.72759 -6.13369,-19.90982 -6.00344,-20.12897 11.9645,-20.12897 12.03879,0 16.36017,-1.0415 15.46644,-3.72759 -0.9237,-2.7762 -16.20927,-3.93395 -59.8899,-4.53614 l -58.64965,-0.80856 v -7.39214 c 0,-4.58273 -1.70001,-7.39213 -4.47311,-7.39213 -2.77309,0 -4.4731,2.8094 -4.4731,7.39213 v 7.39214 l -58.85716,0.80856 c -53.309875,0.73235 -58.951686,1.30041 -59.860061,6.02718 -0.865745,4.50495 1.461072,5.21862 17.014591,5.21862 13.03841,0 17.70014,1.03011 16.86911,3.72759 -0.631601,2.05017 -1.956982,7.4179 -2.945288,11.92828 -1.734933,7.9178 -2.463616,8.20069 -21.123561,8.20069 -10.629652,0 -19.326641,0.56121 -19.326641,1.24714 0,0.68592 -0.805916,3.34733 -1.790927,5.91422 -1.605174,4.18302 5.044753,4.46834 64.114507,2.7509 l 65.90543,-1.91618 v 13.89438 13.89438 H 114.8097 c -60.304087,0 -70.07865,0.62391 -70.07865,4.4731 0,3.55773 4.349781,4.47311 21.255622,4.47311 h 21.255623 l -1.944602,12.16089 c -1.694409,10.59624 -1.263846,12.03068 3.346452,11.1489 3.479271,-0.66545 5.801626,-4.57435 6.782095,-11.41537 z m 12.87271,-67.2541 c 0.98042,-6.04166 2.17546,-11.36416 2.65563,-11.82777 0.48018,-0.46362 36.5865,-1.81983 80.23628,-3.01379 l 79.36322,-2.17085 2.09047,11.14317 c 1.14976,6.12874 1.22339,12.01249 0.16363,13.075 -1.05977,1.06251 -38.90896,2.34746 -84.10934,2.85545 l -82.18249,0.92362 1.78259,-10.98483 z"
       style="fill:#000000;stroke-width:2.98207" />
  </g>
</svg>
