<?xml version="1.0" encoding="UTF-8" standalone="no"?>
<svg
   xmlns:dc="http://purl.org/dc/elements/1.1/"
   xmlns:cc="http://creativecommons.org/ns#"
   xmlns:rdf="http://www.w3.org/1999/02/22-rdf-syntax-ns#"
   xmlns:svg="http://www.w3.org/2000/svg"
   xmlns="http://www.w3.org/2000/svg"
   xmlns:sodipodi="http://sodipodi.sourceforge.net/DTD/sodipodi-0.dtd"
   xmlns:inkscape="http://www.inkscape.org/namespaces/inkscape"
   sodipodi:docname="FloorAndWall.svg"
   inkscape:version="1.0 (4035a4fb49, 2020-05-01)"
   id="svg1292"
   version="1.1"
   viewBox="0 0 210 297"
   height="297mm"
   width="210mm">
  <defs
     id="defs1286" />
  <sodipodi:namedview
     inkscape:window-maximized="1"
     inkscape:window-y="-8"
     inkscape:window-x="2552"
     inkscape:window-height="1417"
     inkscape:window-width="2560"
     showgrid="false"
     inkscape:document-rotation="0"
     inkscape:current-layer="layer3"
     inkscape:document-units="mm"
     inkscape:cy="606.24248"
     inkscape:cx="373.54364"
     inkscape:zoom="1.4"
     inkscape:pageshadow="2"
     inkscape:pageopacity="0.0"
     borderopacity="1.0"
     bordercolor="#666666"
     pagecolor="#ffffff"
     id="base" />
  <metadata
     id="metadata1289">
    <rdf:RDF>
      <cc:Work
         rdf:about="">
        <dc:format>image/svg+xml</dc:format>
        <dc:type
           rdf:resource="http://purl.org/dc/dcmitype/StillImage" />
        <dc:title></dc:title>
      </cc:Work>
    </rdf:RDF>
  </metadata>
  <g
     inkscape:label="Trace"
     id="layer3"
     inkscape:groupmode="layer">
    <path
       id="path1879"
       d="m 68.752583,185.30162 c -0.725967,-0.29293 -1.319496,-1.79975 -1.318954,-3.34847 0.0012,-3.38681 12.136475,-42.08227 13.841849,-44.13712 1.68149,-2.02607 74.027682,-2.14544 75.673922,-0.12486 1.52451,1.87117 13.96651,41.55767 13.96651,44.54926 0,1.36324 -0.75162,2.76706 -1.67029,3.11958 -1.99499,0.76555 -98.590189,0.70943 -100.493037,-0.0584 z m 24.216751,-10.65214 0.334127,-2.90387 26.046899,-0.28225 26.04689,-0.28224 0.69978,3.18611 c 0.90276,4.11022 2.6439,4.12225 2.6439,0.0183 0,-3.09746 0.11732,-3.16786 5.27975,-3.16786 2.90387,0 5.27976,-0.47517 5.27976,-1.05595 0,-0.65368 -5.63174,-1.05595 -14.78332,-1.05595 -13.3699,0 -14.7847,-0.17668 -14.79774,-1.84792 -0.008,-1.01635 -0.30094,-2.91706 -0.65114,-4.2238 -0.6366,-2.37549 -0.63438,-2.37589 13.21382,-2.37589 8.52971,0 13.85053,-0.40566 13.85053,-1.05596 0,-0.58077 -2.32048,-1.05595 -5.15661,-1.05595 -4.45496,0 -5.24323,-0.32328 -5.79331,-2.37589 -1.19893,-4.47377 -0.81443,-5.01577 3.55826,-5.01577 2.32309,0 4.2238,-0.47518 4.2238,-1.05595 0,-0.66592 -7.21566,-1.05595 -19.5351,-1.05595 -18.83114,0 -19.53511,-0.0761 -19.53511,-2.11191 0,-1.17328 -0.70397,-2.1119 -1.58393,-2.1119 -0.87996,0 -1.58393,0.93862 -1.58393,2.1119 0,1.99352 -0.70396,2.11191 -12.558442,2.11191 -10.188957,0 -12.673126,0.29885 -13.166255,1.58393 -0.484395,1.26231 0.350313,1.58392 4.110832,1.58392 4.538967,0 4.718641,0.12063 4.718641,3.16786 0,3.13585 -0.05867,3.16785 -5.807734,3.16785 -4.655908,0 -5.807735,0.34016 -5.807735,1.71513 0,1.54262 2.230257,1.6701 22.174983,1.26752 l 22.17499,-0.4476 v 4.01223 4.01224 h -23.75891 c -15.135312,0 -23.758918,0.38327 -23.758918,1.05595 0,0.58078 2.672878,1.05595 5.939729,1.05595 h 5.939728 l -0.633571,3.16786 c -0.464077,2.32039 -0.235662,3.16785 0.853819,3.16785 0.837639,0 1.63335,-1.26852 1.821517,-2.90386 z m 3.47334,-19.00497 c 0.400554,-1.59594 0.966374,-3.14027 1.257378,-3.43184 0.291003,-0.29158 10.349918,-0.53014 22.353138,-0.53014 h 21.82405 l 0.33089,3.43184 0.33089,3.43184 H 119.12671 95.714393 Z m -51.537001,9.5894 C 44.518491,164.84673 44.201706,151.191 44.201706,134.88784 v -29.6421 l 2.794899,3.92812 c 3.029876,4.25837 9.935196,8.19024 14.38407,8.19024 2.087363,0 32.555349,-8.77368 45.914145,-13.22161 1.01538,-0.33808 1.31994,3.08572 1.31994,14.83867 v 15.27816 H 95.051048 c -16.131018,0 -15.815892,-0.20087 -20.021297,12.76206 l -2.845325,8.77057 -12.143445,5.02044 c -12.581265,5.20145 -13.954278,5.60255 -15.135308,4.42152 z m 9.053935,-53.14387 c -7.079959,-4.3167 -9.565499,-13.06469 -5.904229,-20.780243 0.957973,-2.018779 2.873562,-4.412086 4.256863,-5.31846 3.366171,-2.2056 51.784068,-17.20102 55.539438,-17.20102 8.93779,0 16.45595,9.261173 15.06234,18.554395 -1.10025,7.337006 -5.37767,10.900086 -17.5067,14.583018 -5.495575,1.66872 -16.644452,5.10746 -24.77528,7.64166 -16.455765,5.12889 -21.597604,5.61481 -26.672432,2.52065 z m 9.582636,-3.29715 c 9.323814,-4.76824 7.289025,-20.001844 -2.658878,-19.905908 -1.915245,0.01847 -4.236209,0.612444 -5.157697,1.31994 -6.098166,4.682022 -5.137362,15.334288 1.649838,18.291468 3.949684,1.72087 3.42648,1.69588 6.166737,0.2945 z"
       style="display:inline;fill:#000000;stroke-width:1.05595" />
  </g>
</svg>
