<?xml version="1.0" encoding="UTF-8" standalone="no"?>
<svg
   xmlns:dc="http://purl.org/dc/elements/1.1/"
   xmlns:cc="http://creativecommons.org/ns#"
   xmlns:rdf="http://www.w3.org/1999/02/22-rdf-syntax-ns#"
   xmlns:svg="http://www.w3.org/2000/svg"
   xmlns="http://www.w3.org/2000/svg"
   xmlns:sodipodi="http://sodipodi.sourceforge.net/DTD/sodipodi-0.dtd"
   xmlns:inkscape="http://www.inkscape.org/namespaces/inkscape"
   inkscape:version="1.0 (4035a4fb49, 2020-05-01)"
   sodipodi:docname="fossil.svg"
   id="svg1256"
   version="1.1"
   viewBox="0 0 210 297"
   height="297mm"
   width="210mm">
  <defs
     id="defs1250" />
  <sodipodi:namedview
     inkscape:window-maximized="1"
     inkscape:window-y="-8"
     inkscape:window-x="2552"
     inkscape:window-height="1417"
     inkscape:window-width="2560"
     showgrid="false"
     inkscape:document-rotation="0"
     inkscape:current-layer="layer2"
     inkscape:document-units="mm"
     inkscape:cy="526.34473"
     inkscape:cx="363.07228"
     inkscape:zoom="1.979899"
     inkscape:pageshadow="2"
     inkscape:pageopacity="0.0"
     borderopacity="1.0"
     bordercolor="#666666"
     pagecolor="#ffffff"
     id="base" />
  <metadata
     id="metadata1253">
    <rdf:RDF>
      <cc:Work
         rdf:about="">
        <dc:format>image/svg+xml</dc:format>
        <dc:type
           rdf:resource="http://purl.org/dc/dcmitype/StillImage" />
      </cc:Work>
    </rdf:RDF>
  </metadata>
  <g
     inkscape:label="Trace"
     id="layer2"
     inkscape:groupmode="layer">
    <path
       id="path1282"
       d="m 107.69069,162.45712 c -0.96357,-0.18612 -1.73081,-1.38219 -1.57789,-2.45979 0.0723,-0.50933 0.20772,-1.11436 0.30099,-1.34453 0.1255,-0.3097 -0.10141,-0.52493 -0.87298,-0.82801 -2.01082,-0.78987 -2.35605,-2.45755 -0.78278,-3.78137 0.91407,-0.76914 1.41175,-0.8129 2.82294,-0.24826 l 1.03073,0.41242 3.18935,-1.79803 c 1.75415,-0.98892 3.15785,-1.82954 3.11934,-1.86806 -0.0385,-0.0385 -1.60698,0.0548 -3.48548,0.20733 -2.57816,0.20935 -3.96473,0.4689 -5.65606,1.05876 -3.44383,1.20103 -4.57379,1.01988 -6.425855,-1.03013 -0.926901,-1.02597 -1.669161,-2.15721 -1.415449,-2.15721 0.06956,0 0.536959,0.24219 1.038658,0.5382 0.501699,0.29601 1.534486,0.6119 2.295076,0.70199 1.35332,0.16028 1.37638,0.15159 1.07801,-0.40591 -0.2595,-0.48488 -0.53847,-0.56969 -1.87387,-0.56969 -1.360362,0 -1.68727,-0.10386 -2.458548,-0.78105 -1.531,-1.34424 -1.969749,-4.18779 -0.966065,-6.26113 0.573901,-1.18552 2.079807,-2.33163 4.132163,-3.14489 0.72927,-0.28898 1.65793,-1.06051 2.73441,-2.27174 2.9717,-3.34369 5.13277,-4.34541 8.97802,-4.16156 2.79241,0.1335 4.79502,0.98892 6.22432,2.65873 2.14268,2.50325 2.75502,6.52553 1.39064,9.13485 -0.39614,0.75761 -0.72026,1.6216 -0.72026,1.92 0,0.29839 -0.17193,0.95403 -0.38207,1.45698 l -0.38208,0.91444 1.36841,-0.78153 c 1.29001,-0.73675 1.36374,-0.83591 1.28667,-1.7304 -0.12903,-1.49773 0.51819,-2.24437 1.94553,-2.24437 0.96479,0 1.25694,0.11983 1.61151,0.66096 0.25649,0.39145 0.38542,0.98566 0.3162,1.45727 -0.10612,0.72305 -0.0298,0.82085 0.82979,1.06312 1.86172,0.52472 2.56538,1.62827 2.10391,3.29956 -0.48137,1.74339 -2.83851,2.1563 -4.3441,0.76097 l -0.68083,-0.63098 -3.35782,2.30011 c -8.691,5.95334 -8.5172,5.81072 -8.5172,6.98906 0,2.42841 -1.35089,3.45576 -3.89733,2.96389 z m -1.26425,-13.35372 c 0.17027,-0.15615 0.12383,-0.32819 -0.1323,-0.49012 -0.56043,-0.35432 -0.62796,-0.33355 -1.32372,0.40705 l -0.62443,0.66467 0.90904,-0.17049 c 0.49997,-0.0938 1.0271,-0.27877 1.17141,-0.41111 z m 4.74038,-0.61545 c -0.44476,-0.67878 -0.68076,-0.79422 -0.99049,-0.48449 -0.23704,0.23705 0.60521,1.14595 1.06192,1.14595 0.28719,0 0.27243,-0.13666 -0.0714,-0.66146 z m 4.70196,-0.5584 c 1.77229,-0.89064 1.77633,-1.1693 0.0101,-0.69606 -0.9889,0.26496 -1.69896,0.63777 -2.0165,1.05875 -0.48962,0.64911 -0.48948,0.64958 0.1391,0.45462 0.34608,-0.10733 1.18636,-0.47512 1.86729,-0.81731 z m -12.98499,-2.82413 c 1.14601,-0.77045 1.29459,-1.57195 0.36952,-1.99344 -1.06072,-0.48329 -2.44073,-0.38505 -3.04237,0.2166 -0.651262,0.65126 -0.670046,1.11818 -0.0661,1.64426 0.99905,0.87031 1.59849,0.89933 2.73899,0.13258 z m 11.16013,-1.34345 c 1.81297,-0.76735 2.21758,-1.82927 1.35585,-3.55855 -1.19161,-2.39125 -3.41544,-3.3546 -5.97225,-2.58714 -3.9057,1.17234 -4.54687,4.46952 -1.16759,6.00431 1.3097,0.59483 4.52684,0.67347 5.78399,0.14138 z"
       style="fill:#000000;stroke-width:0.264583" />
  </g>
</svg>
