<?xml version="1.0" encoding="UTF-8" standalone="no"?>
<svg
   xmlns:dc="http://purl.org/dc/elements/1.1/"
   xmlns:cc="http://creativecommons.org/ns#"
   xmlns:rdf="http://www.w3.org/1999/02/22-rdf-syntax-ns#"
   xmlns:svg="http://www.w3.org/2000/svg"
   xmlns="http://www.w3.org/2000/svg"
   xmlns:sodipodi="http://sodipodi.sourceforge.net/DTD/sodipodi-0.dtd"
   xmlns:inkscape="http://www.inkscape.org/namespaces/inkscape"
   sodipodi:docname="Furniture.svg"
   inkscape:version="1.0 (4035a4fb49, 2020-05-01)"
   id="svg1955"
   version="1.1"
   viewBox="0 0 210 297"
   height="297mm"
   width="210mm">
  <defs
     id="defs1949" />
  <sodipodi:namedview
     inkscape:window-maximized="1"
     inkscape:window-y="-8"
     inkscape:window-x="2552"
     inkscape:window-height="1417"
     inkscape:window-width="2560"
     showborder="false"
     showgrid="false"
     inkscape:document-rotation="0"
     inkscape:current-layer="layer6"
     inkscape:document-units="mm"
     inkscape:cy="492.3261"
     inkscape:cx="615.97875"
     inkscape:zoom="0.49497475"
     inkscape:pageshadow="2"
     inkscape:pageopacity="0.0"
     borderopacity="1.0"
     bordercolor="#666666"
     pagecolor="#ffffff"
     id="base" />
  <metadata
     id="metadata1952">
    <rdf:RDF>
      <cc:Work
         rdf:about="">
        <dc:format>image/svg+xml</dc:format>
        <dc:type
           rdf:resource="http://purl.org/dc/dcmitype/StillImage" />
        <dc:title></dc:title>
      </cc:Work>
    </rdf:RDF>
  </metadata>
  <g
     style="display:inline"
     inkscape:label="Trace"
     id="layer6"
     inkscape:groupmode="layer">
    <path
       sodipodi:nodetypes="cscccccccccssscccccccccscsssssssssssss"
       id="path1971"
       d="m 44.749471,285.65526 c 0,0 -0.389337,-12.44602 -0.389337,-24.40539 v -21.74425 l -11.417148,0.13363 H 23.396725 V 82.12595 -75.387354 H 174.54586 325.69499 V 82.12595 239.63925 h -7.81581 c -3.01225,0 -11.25914,-0.15698 -11.25914,-0.15698 0.22383,3.53768 0.24977,10.37077 0.71301,22.94363 l 0.86046,23.35361 h -19.02113 -19.02113 l -4.43656,-23.07013 -4.43657,-23.07013 H 176.3789 91.479674 l -4.607168,23.07013 -4.607172,23.07013 -17.89509,-0.13472 c -11.600792,-0.0873 -12.475321,0.0299 -19.620773,0.0105 z M 179.31899,82.12595 c 0,-115.26226 -0.60703,-132.056609 -4.77313,-132.056609 -4.16611,0 -4.77313,16.794349 -4.77313,132.056609 0,115.26226 0.60702,132.05661 4.77313,132.05661 4.1661,0 4.77313,-16.79435 4.77313,-132.05661 z M 146.4263,49.966621 c 1.32497,-3.511559 2.36932,-8.739267 -1.48875,-14.003582 -10.84225,-14.794181 -31.55394,-0.244162 -22.85839,16.0036 4.5526,8.506616 20.37567,8.525535 24.34714,-2.000018 z m 80.68832,1.809306 c 4.80875,-8.985234 1.01254,-18.580798 -8.27296,-20.911307 -9.47245,-2.377436 -17.24807,3.406236 -17.24807,12.8295 0,14.424842 18.91984,20.416235 25.52103,8.081807 z"
       style="fill:#000000;stroke-width:3.18209" />
  </g>
</svg>
