<?xml version="1.0" standalone="no"?>
<!DOCTYPE svg PUBLIC "-//W3C//DTD SVG 20010904//EN"
 "http://www.w3.org/TR/2001/REC-SVG-20010904/DTD/svg10.dtd">
<svg version="1.0" xmlns="http://www.w3.org/2000/svg"
 width="128.000000pt" height="128.000000pt" viewBox="0 0 128.000000 128.000000"
 preserveAspectRatio="xMidYMid meet">
<metadata>
Created by potrace 1.16, written by Peter Selinger 2001-2019
</metadata>
<g transform="translate(0.000000,128.000000) scale(0.100000,-0.100000)"
fill="#000000" stroke="none">
<path d="M459 1044 c-65 -65 -119 -125 -119 -134 0 -23 49 -66 91 -79 44 -14
65 -35 80 -82 7 -19 19 -42 27 -52 15 -16 2 -32 -186 -220 -111 -112 -202
-209 -202 -216 0 -22 112 -131 134 -131 14 0 94 73 241 220 124 125 228 220
238 220 69 0 158 -104 201 -237 29 -88 68 -67 106 56 29 93 27 201 -6 271 -35
75 -271 315 -319 324 -38 8 -69 38 -84 87 -11 33 -37 65 -69 83 -9 5 -53 -31
-133 -110z"/>
</g>
</svg>
