<?xml version="1.0" standalone="no"?>
<!DOCTYPE svg PUBLIC "-//W3C//DTD SVG 20010904//EN"
 "http://www.w3.org/TR/2001/REC-SVG-20010904/DTD/svg10.dtd">
<svg version="1.0" xmlns="http://www.w3.org/2000/svg"
 width="128.000000pt" height="128.000000pt" viewBox="0 0 128.000000 128.000000"
 preserveAspectRatio="xMidYMid meet">
<metadata>
Created by potrace 1.16, written by Peter Selinger 2001-2019
</metadata>
<g transform="translate(0.000000,128.000000) scale(0.100000,-0.100000)"
fill="#000000" stroke="none">
<path d="M620 1087 c-114 -17 -146 -25 -148 -38 -2 -9 6 -70 18 -136 29 -173
34 -159 -59 -166 -132 -9 -212 -56 -257 -152 -46 -97 -21 -197 65 -263 58 -44
67 -42 67 16 1 145 96 254 259 297 32 8 60 16 62 18 2 2 -8 48 -22 102 -26
102 -25 133 4 159 9 8 71 29 136 45 l120 29 -1 39 c-1 64 -8 73 -56 72 -24 -1
-108 -11 -188 -22z"/>
<path d="M800 937 c-195 -50 -185 -36 -141 -203 l29 -112 -54 -6 c-130 -15
-238 -85 -268 -173 -32 -95 -12 -181 56 -238 114 -96 235 -71 556 118 137 81
146 92 138 184 -5 64 -79 377 -105 446 -6 16 -18 27 -28 27 -10 -1 -92 -20
-183 -43z"/>
</g>
</svg>
