<?xml version="1.0" standalone="no"?>
<!DOCTYPE svg PUBLIC "-//W3C//DTD SVG 20010904//EN"
 "http://www.w3.org/TR/2001/REC-SVG-20010904/DTD/svg10.dtd">
<svg version="1.0" xmlns="http://www.w3.org/2000/svg"
 width="128.000000pt" height="128.000000pt" viewBox="0 0 128.000000 128.000000"
 preserveAspectRatio="xMidYMid meet">
<metadata>
Created by potrace 1.16, written by Peter Selinger 2001-2019
</metadata>
<g transform="translate(0.000000,128.000000) scale(0.100000,-0.100000)"
fill="#000000" stroke="none">
<path d="M242 1138 c-30 -30 -5 -68 43 -68 35 0 58 -20 74 -63 11 -29 1 -36
-19 -12 -18 21 -115 55 -159 55 -50 0 -102 -36 -118 -80 -27 -75 16 -190 97
-263 l49 -44 -15 -43 c-18 -53 -11 -93 23 -120 49 -38 141 -14 200 53 31 35
32 35 45 15 l14 -21 65 26 c35 14 86 28 112 32 43 7 47 10 41 29 -3 11 -7 23
-8 26 0 3 20 25 46 49 83 75 124 192 95 264 -39 92 -169 101 -275 20 l-34 -26
7 24 c13 47 41 74 80 79 73 10 73 72 0 78 -73 6 -123 -34 -151 -121 -7 -23
-13 -33 -13 -23 -2 36 -44 108 -75 127 -35 21 -106 25 -124 7z"/>
<path d="M613 565 c-111 -31 -172 -80 -192 -152 -22 -78 26 -179 108 -232 156
-100 319 -86 452 39 l50 47 22 -29 c12 -16 36 -38 53 -49 33 -20 99 -26 109
-9 3 5 -8 42 -26 81 -36 83 -35 108 6 195 14 30 23 59 20 64 -19 31 -131 -4
-154 -48 -10 -18 -13 -17 -50 18 -22 21 -66 48 -98 60 -76 29 -226 36 -300 15z"/>
</g>
</svg>
