<?xml version="1.0" standalone="no"?>
<!DOCTYPE svg PUBLIC "-//W3C//DTD SVG 20010904//EN"
 "http://www.w3.org/TR/2001/REC-SVG-20010904/DTD/svg10.dtd">
<svg version="1.0" xmlns="http://www.w3.org/2000/svg"
 width="128.000000pt" height="128.000000pt" viewBox="0 0 128.000000 128.000000"
 preserveAspectRatio="xMidYMid meet">
<metadata>
Created by potrace 1.16, written by Peter Selinger 2001-2019
</metadata>
<g transform="translate(0.000000,128.000000) scale(0.100000,-0.100000)"
fill="#000000" stroke="none">
<path d="M790 1198 c-12 -13 -39 -47 -62 -75 -45 -59 -46 -77 -13 -185 l18
-57 -64 -73 c-34 -40 -68 -79 -75 -87 -10 -11 -20 -9 -63 17 -66 41 -117 62
-151 62 -52 0 -180 -160 -221 -277 -23 -67 -29 -194 -11 -259 27 -95 100 -151
209 -161 135 -12 272 46 394 168 43 43 85 92 94 108 14 28 14 34 0 61 -8 16
-42 58 -75 94 l-60 64 72 85 73 86 102 0 101 1 66 72 c53 57 66 79 66 104 0
34 2 33 -220 196 -121 88 -143 95 -180 56z m168 -223 c39 -27 72 -55 72 -61 0
-27 -49 -45 -103 -38 -77 10 -104 29 -117 85 -10 40 -9 51 5 73 20 30 8 35
143 -59z"/>
</g>
</svg>
