<?xml version="1.0" standalone="no"?>
<!DOCTYPE svg PUBLIC "-//W3C//DTD SVG 20010904//EN"
 "http://www.w3.org/TR/2001/REC-SVG-20010904/DTD/svg10.dtd">
<svg version="1.0" xmlns="http://www.w3.org/2000/svg"
 width="128.000000pt" height="128.000000pt" viewBox="0 0 128.000000 128.000000"
 preserveAspectRatio="xMidYMid meet">
<metadata>
Created by potrace 1.16, written by Peter Selinger 2001-2019
</metadata>
<g transform="translate(0.000000,128.000000) scale(0.100000,-0.100000)"
fill="#000000" stroke="none">
<path d="M600 1118 c-19 -10 -38 -45 -79 -146 -42 -104 -58 -133 -75 -137 -11
-2 -74 -7 -139 -11 -132 -7 -162 -21 -173 -79 -7 -38 14 -66 109 -143 38 -31
81 -66 93 -77 l24 -20 -35 -135 c-33 -132 -34 -136 -17 -170 12 -24 27 -37 49
-44 35 -9 50 -2 221 106 l62 40 63 -40 c170 -108 185 -115 220 -106 22 7 37
20 49 44 17 34 16 38 -17 170 l-35 135 24 20 c12 11 55 46 93 77 95 77 116
105 109 143 -11 58 -41 72 -173 79 -65 4 -128 9 -139 11 -17 4 -33 32 -74 134
-28 72 -57 135 -64 140 -22 18 -70 22 -96 9z"/>
</g>
</svg>
