<?xml version="1.0" standalone="no"?>
<!DOCTYPE svg PUBLIC "-//W3C//DTD SVG 20010904//EN"
 "http://www.w3.org/TR/2001/REC-SVG-20010904/DTD/svg10.dtd">
<svg version="1.0" xmlns="http://www.w3.org/2000/svg"
 width="128.000000pt" height="128.000000pt" viewBox="0 0 128.000000 128.000000"
 preserveAspectRatio="xMidYMid meet">
<metadata>
Created by potrace 1.16, written by Peter Selinger 2001-2019
</metadata>
<g transform="translate(0.000000,128.000000) scale(0.100000,-0.100000)"
fill="#000000" stroke="none">
<path d="M352 1079 c-28 -11 -139 -236 -123 -252 5 -5 62 -16 127 -25 92 -12
119 -13 122 -3 8 25 47 51 77 51 34 0 75 -24 75 -45 0 -31 30 -43 125 -50 68
-5 99 -4 109 5 8 6 29 54 46 106 20 60 37 94 46 94 19 0 18 -19 -7 -98 -33
-102 -55 -141 -86 -148 -15 -4 -72 -2 -126 4 l-99 12 -31 -26 c-39 -32 -81
-27 -117 15 -21 25 -36 31 -103 40 -43 6 -86 11 -96 11 -15 0 -23 -33 -56
-233 -39 -239 -40 -278 -6 -296 31 -17 583 -103 624 -98 53 7 83 30 117 90 16
29 50 69 75 90 39 33 45 43 45 75 0 40 -67 576 -75 603 -10 31 -52 39 -305 59
-140 11 -273 22 -295 24 -22 2 -50 0 -63 -5z"/>
</g>
</svg>
