<?xml version="1.0" standalone="no"?>
<!DOCTYPE svg PUBLIC "-//W3C//DTD SVG 20010904//EN"
 "http://www.w3.org/TR/2001/REC-SVG-20010904/DTD/svg10.dtd">
<svg version="1.0" xmlns="http://www.w3.org/2000/svg"
 width="128.000000pt" height="128.000000pt" viewBox="0 0 128.000000 128.000000"
 preserveAspectRatio="xMidYMid meet">
<metadata>
Created by potrace 1.16, written by Peter Selinger 2001-2019
</metadata>
<g transform="translate(0.000000,128.000000) scale(0.100000,-0.100000)"
fill="#000000" stroke="none">
<path d="M476 1019 c-95 -10 -191 -41 -223 -71 l-23 -21 0 -303 0 -303 33 -26
c106 -80 490 -90 635 -16 48 24 52 34 52 117 l0 64 40 0 c78 0 145 42 182 114
31 61 23 162 -18 213 -38 48 -106 83 -161 83 -41 0 -42 1 -45 37 -3 32 -9 41
-43 60 -82 46 -275 69 -429 52z m276 -70 c67 -14 108 -35 108 -55 0 -22 -77
-52 -166 -65 -130 -18 -318 7 -359 48 -15 15 -15 17 2 34 10 10 43 25 73 33
67 18 267 21 342 5z m298 -225 c46 -45 18 -138 -45 -144 -55 -6 -55 -6 -55 84
0 72 3 85 18 89 27 7 55 -3 82 -29z"/>
</g>
</svg>
