<?xml version="1.0" standalone="no"?>
<!DOCTYPE svg PUBLIC "-//W3C//DTD SVG 20010904//EN"
 "http://www.w3.org/TR/2001/REC-SVG-20010904/DTD/svg10.dtd">
<svg version="1.0" xmlns="http://www.w3.org/2000/svg"
 width="128.000000pt" height="128.000000pt" viewBox="0 0 128.000000 128.000000"
 preserveAspectRatio="xMidYMid meet">
<metadata>
Created by potrace 1.16, written by Peter Selinger 2001-2019
</metadata>
<g transform="translate(0.000000,128.000000) scale(0.100000,-0.100000)"
fill="#000000" stroke="none">
<path d="M659 1140 c-151 -48 -289 -95 -306 -104 -71 -36 -111 -129 -93 -213
20 -88 95 -152 179 -153 28 0 258 68 595 178 61 19 121 72 137 119 6 19 9 62
7 94 -5 68 -40 122 -99 151 -63 33 -122 23 -420 -72z m-162 -171 c30 -26 45
-71 40 -123 -4 -41 -10 -55 -41 -83 -43 -39 -79 -43 -126 -10 -39 26 -64 87
-55 135 7 39 58 99 88 104 27 5 74 -7 94 -23z"/>
<path d="M780 729 c-305 -98 -324 -103 -379 -89 -61 15 -116 54 -146 104 l-25
41 0 -367 c0 -340 1 -368 18 -377 13 -7 104 27 377 141 198 82 366 154 372
160 10 8 13 67 13 234 0 123 -3 224 -7 223 -5 0 -105 -32 -223 -70z"/>
</g>
</svg>
