<?xml version="1.0" standalone="no"?>
<!DOCTYPE svg PUBLIC "-//W3C//DTD SVG 20010904//EN"
 "http://www.w3.org/TR/2001/REC-SVG-20010904/DTD/svg10.dtd">
<svg version="1.0" xmlns="http://www.w3.org/2000/svg"
 width="128.000000pt" height="128.000000pt" viewBox="0 0 128.000000 128.000000"
 preserveAspectRatio="xMidYMid meet">
<metadata>
Created by potrace 1.16, written by Peter Selinger 2001-2019
</metadata>
<g transform="translate(0.000000,128.000000) scale(0.100000,-0.100000)"
fill="#000000" stroke="none">
<path d="M507 1100 c-133 -23 -233 -77 -253 -139 -10 -31 -2 -104 30 -273 5
-25 1 -30 -45 -53 -98 -50 -160 -142 -144 -215 39 -176 378 -290 705 -236 385
63 505 309 223 456 -37 19 -42 25 -37 48 47 251 46 284 -16 334 -87 70 -298
105 -463 78z m-90 -632 c52 -20 74 -23 218 -23 144 0 166 3 218 23 31 13 71
35 87 49 l30 25 0 -35 c0 -94 -146 -167 -335 -167 -189 0 -335 73 -335 167 l0
35 30 -25 c16 -14 56 -36 87 -49z"/>
</g>
</svg>
