<?xml version="1.0" standalone="no"?>
<!DOCTYPE svg PUBLIC "-//W3C//DTD SVG 20010904//EN"
 "http://www.w3.org/TR/2001/REC-SVG-20010904/DTD/svg10.dtd">
<svg version="1.0" xmlns="http://www.w3.org/2000/svg"
 width="128.000000pt" height="128.000000pt" viewBox="0 0 128.000000 128.000000"
 preserveAspectRatio="xMidYMid meet">
<metadata>
Created by potrace 1.16, written by Peter Selinger 2001-2019
</metadata>
<g transform="translate(0.000000,128.000000) scale(0.100000,-0.100000)"
fill="#000000" stroke="none">
<path d="M304 1092 c-17 -11 -104 -188 -130 -266 -49 -144 -77 -382 -54 -466
30 -111 120 -180 234 -180 37 0 77 8 101 19 49 22 109 86 125 135 11 34 14 36
54 36 39 0 43 -2 55 -36 18 -49 77 -113 126 -135 85 -39 205 -18 271 49 58 58
69 94 68 227 -1 131 -21 247 -61 360 -30 83 -111 247 -127 257 -25 17 -56 8
-70 -19 -21 -42 -68 -164 -64 -167 1 -2 22 -10 44 -19 l42 -16 12 30 c10 22
15 27 21 17 19 -28 67 -166 82 -229 l14 -66 -31 15 c-53 27 -135 27 -195 2
-57 -25 -114 -84 -131 -136 -11 -32 -15 -34 -55 -34 -40 0 -44 2 -55 34 -17
52 -74 111 -131 136 -60 25 -142 25 -195 -1 l-31 -16 13 61 c15 73 44 158 71
210 l20 38 12 -30 13 -31 42 16 c22 9 43 17 44 19 4 3 -43 125 -64 167 -14 27
-45 36 -70 19z m127 -555 c19 -12 42 -38 52 -57 46 -88 -25 -203 -126 -203
-79 0 -137 53 -144 132 -10 114 122 192 218 128z m556 3 c91 -55 95 -179 7
-239 -88 -60 -207 -3 -220 105 -14 110 117 193 213 134z"/>
</g>
</svg>
