<?xml version="1.0" standalone="no"?>
<!DOCTYPE svg PUBLIC "-//W3C//DTD SVG 20010904//EN"
 "http://www.w3.org/TR/2001/REC-SVG-20010904/DTD/svg10.dtd">
<svg version="1.0" xmlns="http://www.w3.org/2000/svg"
 width="128.000000pt" height="128.000000pt" viewBox="0 0 128.000000 128.000000"
 preserveAspectRatio="xMidYMid meet">
<metadata>
Created by potrace 1.16, written by Peter Selinger 2001-2019
</metadata>
<g transform="translate(0.000000,128.000000) scale(0.100000,-0.100000)"
fill="#000000" stroke="none">
<path d="M178 873 c-19 -22 -168 -497 -168 -535 0 -17 8 -31 19 -38 27 -14
1185 -14 1212 0 11 7 19 21 19 38 0 38 -149 513 -168 535 -14 16 -49 17 -457
17 -408 0 -443 -1 -457 -17z m472 -108 l0 -25 197 -2 c146 -2 197 -6 201 -15
3 -10 -12 -13 -52 -13 -61 0 -61 -1 -40 -67 2 -9 24 -13 63 -13 50 0 59 -3 64
-20 5 -20 0 -20 -214 -20 l-219 0 0 -45 0 -45 235 0 c202 0 235 -2 235 -15 0
-12 -14 -15 -66 -15 l-66 0 7 -40 c5 -33 4 -40 -9 -40 -9 0 -18 12 -22 28 -3
15 -7 33 -10 40 -3 10 -71 12 -316 10 l-313 -3 -5 -35 c-3 -23 -11 -36 -23
-38 -15 -3 -17 2 -11 37 l7 41 -72 0 c-56 0 -71 3 -71 15 0 13 33 15 235 15
l235 0 0 47 0 46 -220 -6 c-121 -4 -220 -5 -220 -3 0 28 16 36 76 36 61 0 64
1 70 28 3 15 7 33 10 40 2 9 -13 12 -57 12 -52 0 -60 2 -57 18 3 15 22 17 201
20 l197 2 0 25 c0 16 6 25 15 25 9 0 15 -9 15 -25z"/>
<path d="M499 703 c-121 -3 -127 -5 -133 -26 -16 -62 -33 -58 268 -55 151 2
277 6 281 9 3 4 3 23 0 43 l-7 36 -142 -2 c-77 -1 -198 -4 -267 -5z"/>
</g>
</svg>
