<?xml version="1.0" standalone="no"?>
<!DOCTYPE svg PUBLIC "-//W3C//DTD SVG 20010904//EN"
 "http://www.w3.org/TR/2001/REC-SVG-20010904/DTD/svg10.dtd">
<svg version="1.0" xmlns="http://www.w3.org/2000/svg"
 width="128.000000pt" height="128.000000pt" viewBox="0 0 128.000000 128.000000"
 preserveAspectRatio="xMidYMid meet">
<metadata>
Created by potrace 1.16, written by Peter Selinger 2001-2019
</metadata>
<g transform="translate(0.000000,128.000000) scale(0.100000,-0.100000)"
fill="#000000" stroke="none">
<path d="M353 1031 c-142 -49 -303 -153 -303 -195 0 -22 131 -232 154 -248 22
-15 55 -7 87 19 27 23 31 24 26 7 -24 -79 -67 -248 -67 -265 0 -103 176 -166
435 -156 202 7 313 51 329 129 5 25 -37 231 -60 298 -3 8 10 0 28 -17 59 -57
74 -50 167 83 45 64 81 126 81 139 0 31 -95 101 -225 165 -120 60 -165 72
-165 44 0 -38 -40 -85 -93 -109 -120 -56 -264 -10 -300 97 l-13 37 -81 -28z"/>
</g>
</svg>
