<?xml version="1.0" standalone="no"?>
<!DOCTYPE svg PUBLIC "-//W3C//DTD SVG 20010904//EN"
 "http://www.w3.org/TR/2001/REC-SVG-20010904/DTD/svg10.dtd">
<svg version="1.0" xmlns="http://www.w3.org/2000/svg"
 width="128.000000pt" height="128.000000pt" viewBox="0 0 128.000000 128.000000"
 preserveAspectRatio="xMidYMid meet">
<metadata>
Created by potrace 1.16, written by Peter Selinger 2001-2019
</metadata>
<g transform="translate(0.000000,128.000000) scale(0.100000,-0.100000)"
fill="#000000" stroke="none">
<path d="M376 914 c-185 -40 -288 -138 -288 -273 0 -104 58 -200 162 -270 204
-136 448 -110 629 67 35 34 65 62 66 62 1 0 15 -18 30 -40 15 -22 48 -54 74
-70 38 -26 54 -30 96 -28 65 4 68 18 19 122 -50 106 -50 152 0 256 43 88 44
107 11 122 -41 19 -112 -8 -165 -62 l-46 -47 -37 43 c-96 110 -342 162 -551
118z m-56 -164 c43 -43 13 -130 -45 -130 -59 0 -86 81 -43 127 26 28 61 30 88
3z"/>
</g>
</svg>
