<?xml version="1.0" standalone="no"?>
<!DOCTYPE svg PUBLIC "-//W3C//DTD SVG 20010904//EN"
 "http://www.w3.org/TR/2001/REC-SVG-20010904/DTD/svg10.dtd">
<svg version="1.0" xmlns="http://www.w3.org/2000/svg"
 width="128.000000pt" height="128.000000pt" viewBox="0 0 128.000000 128.000000"
 preserveAspectRatio="xMidYMid meet">
<metadata>
Created by potrace 1.16, written by Peter Selinger 2001-2019
</metadata>
<g transform="translate(0.000000,128.000000) scale(0.100000,-0.100000)"
fill="#000000" stroke="none">
<path d="M237 963 c-10 -17 -57 -235 -76 -348 -22 -129 -42 -325 -34 -338 18
-29 155 -58 335 -70 l78 -5 14 51 c8 29 23 91 32 140 13 66 21 87 33 87 12 0
21 -25 38 -113 34 -176 27 -167 120 -160 112 7 258 31 300 48 l36 15 -6 94
c-11 161 -53 410 -97 569 l-11 37 -379 0 c-208 0 -381 -3 -383 -7z"/>
</g>
</svg>
