<?xml version="1.0" standalone="no"?>
<!DOCTYPE svg PUBLIC "-//W3C//DTD SVG 20010904//EN"
 "http://www.w3.org/TR/2001/REC-SVG-20010904/DTD/svg10.dtd">
<svg version="1.0" xmlns="http://www.w3.org/2000/svg"
 width="128.000000pt" height="128.000000pt" viewBox="0 0 128.000000 128.000000"
 preserveAspectRatio="xMidYMid meet">
<metadata>
Created by potrace 1.16, written by Peter Selinger 2001-2019
</metadata>
<g transform="translate(0.000000,128.000000) scale(0.100000,-0.100000)"
fill="#000000" stroke="none">
<path d="M205 1171 c-107 -27 -175 -113 -175 -222 0 -47 6 -61 50 -125 80
-116 94 -163 124 -423 18 -156 35 -192 113 -238 l48 -28 448 -3 447 -3 0 23
c0 36 -12 46 -54 50 -47 4 -60 25 -19 30 23 2 29 8 31 36 3 32 3 32 -42 32
-35 0 -48 5 -56 20 -9 17 -7 20 14 26 37 9 50 28 36 54 -10 19 -18 21 -50 16
-31 -5 -41 -2 -49 11 -7 14 -3 21 20 35 32 20 36 35 15 63 -12 17 -17 18 -41
7 -23 -11 -30 -11 -36 0 -13 20 -11 24 16 36 48 22 25 76 -27 62 -25 -8 -30
-6 -37 13 -7 18 -5 23 13 25 31 5 38 16 31 45 -6 22 -13 26 -48 29 -40 3 -67
28 -29 28 20 0 42 36 35 58 -3 7 -22 12 -49 12 -31 0 -44 4 -44 14 0 8 10 16
23 18 16 2 23 11 25 32 2 16 -2 32 -10 37 -7 5 -113 9 -235 9 l-223 0 0 35 c0
66 -50 135 -125 172 -29 15 -105 22 -140 14z m645 -531 c43 -102 98 -232 123
-290 l46 -105 -92 -6 c-51 -4 -144 -7 -207 -8 l-115 -1 31 19 c42 26 69 95 61
156 -8 57 -53 155 -107 235 -40 59 -70 118 -85 168 l-7 23 137 -3 137 -3 78
-185z m-343 -125 c52 -22 71 -42 83 -86 22 -79 -26 -122 -102 -92 l-41 16 -24
-27 c-30 -36 -29 -62 5 -81 l27 -16 -30 6 c-138 27 -167 212 -43 274 51 25 76
26 125 6z"/>
</g>
</svg>
