<?xml version="1.0" standalone="no"?>
<!DOCTYPE svg PUBLIC "-//W3C//DTD SVG 20010904//EN"
 "http://www.w3.org/TR/2001/REC-SVG-20010904/DTD/svg10.dtd">
<svg version="1.0" xmlns="http://www.w3.org/2000/svg"
 width="128.000000pt" height="128.000000pt" viewBox="0 0 128.000000 128.000000"
 preserveAspectRatio="xMidYMid meet">
<metadata>
Created by potrace 1.16, written by Peter Selinger 2001-2019
</metadata>
<g transform="translate(0.000000,128.000000) scale(0.100000,-0.100000)"
fill="#000000" stroke="none">
<path d="M380 1156 c-150 -53 -290 -143 -290 -186 0 -24 133 -225 155 -233 17
-7 48 5 78 31 9 8 17 11 17 6 0 -6 -23 -131 -50 -280 -28 -148 -49 -280 -48
-294 2 -21 13 -28 58 -44 184 -62 486 -62 671 -1 26 9 50 23 53 31 5 12 -74
465 -99 573 -6 23 -5 23 30 -7 58 -52 60 -51 165 98 33 47 60 95 60 107 0 39
-168 153 -287 194 -71 24 -69 24 -76 -10 -12 -60 -94 -111 -179 -111 -81 0
-159 48 -180 109 l-13 40 -65 -23z"/>
</g>
</svg>
