<?xml version="1.0" standalone="no"?>
<!DOCTYPE svg PUBLIC "-//W3C//DTD SVG 20010904//EN"
 "http://www.w3.org/TR/2001/REC-SVG-20010904/DTD/svg10.dtd">
<svg version="1.0" xmlns="http://www.w3.org/2000/svg"
 width="128.000000pt" height="128.000000pt" viewBox="0 0 128.000000 128.000000"
 preserveAspectRatio="xMidYMid meet">
<metadata>
Created by potrace 1.16, written by Peter Selinger 2001-2019
</metadata>
<g transform="translate(0.000000,128.000000) scale(0.100000,-0.100000)"
fill="#000000" stroke="none">
<path d="M520 1183 c-67 -24 -121 -65 -190 -142 -41 -46 -76 -75 -103 -86 -78
-31 -135 -74 -156 -119 -38 -78 -22 -186 36 -236 29 -26 42 -30 93 -30 50 0
61 -3 71 -22 11 -21 10 -21 -41 -15 -29 4 -68 15 -87 27 -19 11 -36 20 -39 20
-10 0 19 -43 54 -82 70 -77 112 -84 242 -38 64 22 117 32 214 40 71 5 130 9
132 7 1 -1 -52 -33 -118 -70 l-120 -68 -39 15 c-54 22 -73 20 -107 -9 -60 -50
-47 -113 29 -143 30 -11 38 -19 33 -31 -30 -76 -3 -135 69 -146 80 -12 127 30
127 114 0 45 -7 39 322 264 l127 87 26 -24 c56 -52 146 -37 164 29 17 63 -9
105 -80 125 -32 9 -35 13 -31 40 2 18 -2 40 -12 55 -13 20 -25 25 -61 25 -54
0 -78 -28 -74 -85 3 -34 1 -37 -48 -65 l-52 -30 15 35 c8 19 14 44 14 55 0 11
12 44 27 72 23 43 27 65 27 123 -1 132 -65 239 -171 292 -49 23 -72 28 -153
30 -68 2 -108 -2 -140 -14z m182 -209 c41 -29 90 -115 81 -142 -20 -56 -76
-82 -175 -82 -84 0 -142 22 -176 65 -92 117 136 251 270 159z"/>
</g>
</svg>
