<?xml version="1.0" standalone="no"?>
<!DOCTYPE svg PUBLIC "-//W3C//DTD SVG 20010904//EN"
 "http://www.w3.org/TR/2001/REC-SVG-20010904/DTD/svg10.dtd">
<svg version="1.0" xmlns="http://www.w3.org/2000/svg"
 width="128.000000pt" height="128.000000pt" viewBox="0 0 128.000000 128.000000"
 preserveAspectRatio="xMidYMid meet">
<metadata>
Created by potrace 1.16, written by Peter Selinger 2001-2019
</metadata>
<g transform="translate(0.000000,128.000000) scale(0.100000,-0.100000)"
fill="#000000" stroke="none">
<path d="M605 1111 c-96 -12 -194 -47 -263 -94 l-44 -29 -23 22 c-50 47 -103
-4 -56 -54 l21 -23 -34 -57 c-57 -95 -78 -167 -83 -295 -6 -130 5 -196 47
-286 41 -86 94 -145 131 -145 24 0 29 4 29 24 0 14 -5 37 -10 51 -12 32 13 98
50 130 33 29 116 27 174 -4 38 -21 47 -23 61 -11 17 14 16 33 -6 86 -11 27
-10 39 5 79 l18 47 79 -78 c44 -43 79 -87 79 -97 0 -27 125 -153 177 -178 105
-51 213 18 213 136 0 55 -18 93 -60 129 -40 33 -73 33 -99 0 -28 -35 -27 -47
9 -87 34 -39 37 -55 15 -64 -11 -4 -41 18 -89 66 -41 39 -82 71 -93 71 -22 0
-168 144 -159 158 3 5 26 15 52 21 38 10 51 9 76 -4 39 -19 52 -19 68 0 11 13
8 25 -15 70 -39 77 -32 137 19 181 43 38 79 47 122 32 75 -26 88 30 22 87
-106 91 -272 135 -433 116z"/>
</g>
</svg>
