<?xml version="1.0" standalone="no"?>
<!DOCTYPE svg PUBLIC "-//W3C//DTD SVG 20010904//EN"
 "http://www.w3.org/TR/2001/REC-SVG-20010904/DTD/svg10.dtd">
<svg version="1.0" xmlns="http://www.w3.org/2000/svg"
 width="128.000000pt" height="128.000000pt" viewBox="0 0 128.000000 128.000000"
 preserveAspectRatio="xMidYMid meet">
<metadata>
Created by potrace 1.16, written by Peter Selinger 2001-2019
</metadata>
<g transform="translate(0.000000,128.000000) scale(0.100000,-0.100000)"
fill="#000000" stroke="none">
<path d="M383 1136 c-128 -40 -243 -80 -256 -89 -32 -21 -57 -76 -57 -124 0
-76 68 -143 145 -143 22 0 103 20 180 44 77 24 183 56 235 72 114 35 155 69
165 138 14 91 -59 177 -147 175 -18 0 -137 -33 -265 -73z m-118 -142 c45 -49
29 -132 -32 -163 -48 -25 -113 29 -113 94 0 84 91 127 145 69z"/>
<path d="M447 815 c-115 -36 -220 -65 -235 -65 -41 0 -107 37 -136 78 l-26 37
0 -283 c0 -229 3 -284 14 -288 7 -3 67 17 132 44 l119 48 27 83 c40 123 37
121 190 121 l128 0 0 145 c0 80 -1 145 -2 145 -2 -1 -97 -30 -211 -65z"/>
<path d="M401 556 c-16 -19 -131 -386 -131 -417 0 -15 7 -30 16 -33 20 -8 928
-8 948 0 9 3 16 17 16 30 0 28 -118 404 -132 422 -16 19 -701 18 -717 -2z
m309 -86 c0 -19 7 -20 185 -20 117 0 185 -4 185 -10 0 -5 -18 -10 -40 -10 -41
0 -45 -5 -34 -47 6 -20 13 -23 55 -23 27 0 49 -4 49 -10 0 -6 -50 -10 -131
-10 -131 0 -131 0 -125 -22 3 -13 6 -31 6 -40 0 -16 13 -18 140 -18 87 0 140
-4 140 -10 0 -5 -22 -10 -50 -10 -49 0 -50 -1 -50 -30 0 -39 -16 -39 -25 0
l-7 30 -246 -2 -247 -3 -3 -27 c-2 -16 -9 -28 -17 -28 -11 0 -13 8 -8 30 l6
30 -57 0 c-31 0 -56 5 -56 10 0 6 82 10 225 10 l225 0 0 38 0 38 -210 -4
c-189 -4 -210 -3 -210 12 0 13 11 16 55 16 54 0 55 0 55 30 0 29 -2 30 -45 30
-35 0 -43 3 -39 15 5 12 29 15 125 15 112 0 119 1 119 20 0 11 7 20 15 20 8 0
15 -9 15 -20z"/>
<path d="M584 423 c-29 -4 -43 -22 -44 -55 0 -5 99 -8 221 -8 l220 0 -3 33 -3
32 -180 1 c-99 1 -194 -1 -211 -3z"/>
</g>
</svg>
