<?xml version="1.0" standalone="no"?>
<!DOCTYPE svg PUBLIC "-//W3C//DTD SVG 20010904//EN"
 "http://www.w3.org/TR/2001/REC-SVG-20010904/DTD/svg10.dtd">
<svg version="1.0" xmlns="http://www.w3.org/2000/svg"
 width="128.000000pt" height="128.000000pt" viewBox="0 0 128.000000 128.000000"
 preserveAspectRatio="xMidYMid meet">
<metadata>
Created by potrace 1.16, written by Peter Selinger 2001-2019
</metadata>
<g transform="translate(0.000000,128.000000) scale(0.100000,-0.100000)"
fill="#000000" stroke="none">
<path d="M160 705 l0 -495 30 0 29 0 3 -72 3 -73 60 0 60 0 14 73 15 72 267 0
267 0 14 -73 13 -72 60 0 60 0 3 73 c3 69 4 72 27 72 l25 0 0 495 0 495 -475
0 -475 0 0 -495z m490 0 c0 -362 -2 -415 -15 -415 -13 0 -15 53 -15 415 0 362
2 415 15 415 13 0 15 -53 15 -415z"/>
</g>
</svg>
