<?xml version="1.0" standalone="no"?>
<!DOCTYPE svg PUBLIC "-//W3C//DTD SVG 20010904//EN"
 "http://www.w3.org/TR/2001/REC-SVG-20010904/DTD/svg10.dtd">
<svg version="1.0" xmlns="http://www.w3.org/2000/svg"
 width="128.000000pt" height="128.000000pt" viewBox="0 0 128.000000 128.000000"
 preserveAspectRatio="xMidYMid meet">
<metadata>
Created by potrace 1.16, written by Peter Selinger 2001-2019
</metadata>
<g transform="translate(0.000000,128.000000) scale(0.100000,-0.100000)"
fill="#000000" stroke="none">
<path d="M349 1109 c-38 -38 0 -94 56 -83 51 9 92 -33 120 -124 6 -20 1 -19
-56 18 -76 49 -125 64 -204 64 -70 0 -113 -20 -146 -65 -79 -112 -3 -337 150
-443 l40 -28 -19 -39 c-13 -24 -20 -58 -20 -95 0 -51 3 -59 35 -91 34 -34 38
-35 93 -31 74 6 125 31 188 93 l51 50 40 -45 c51 -58 121 -93 195 -98 55 -4
59 -3 93 31 31 31 35 40 35 89 0 30 -8 71 -19 94 l-19 41 49 37 c114 85 195
257 171 364 -27 118 -130 166 -269 124 -37 -12 -90 -37 -118 -56 -27 -20 -50
-34 -52 -33 -10 11 25 87 53 115 30 30 39 33 69 28 27 -5 39 -2 55 14 71 71
-70 126 -166 64 -50 -32 -81 -77 -103 -148 l-17 -56 -13 50 c-17 65 -60 128
-107 157 -52 31 -135 32 -165 2z"/>
</g>
</svg>
