<?xml version="1.0" standalone="no"?>
<!DOCTYPE svg PUBLIC "-//W3C//DTD SVG 20010904//EN"
 "http://www.w3.org/TR/2001/REC-SVG-20010904/DTD/svg10.dtd">
<svg version="1.0" xmlns="http://www.w3.org/2000/svg"
 width="128.000000pt" height="128.000000pt" viewBox="0 0 128.000000 128.000000"
 preserveAspectRatio="xMidYMid meet">
<metadata>
Created by potrace 1.16, written by Peter Selinger 2001-2019
</metadata>
<g transform="translate(0.000000,128.000000) scale(0.100000,-0.100000)"
fill="#000000" stroke="none">
<path d="M620 1040 c-110 -57 -186 -90 -206 -90 -43 0 -175 -35 -222 -59 -52
-27 -125 -109 -140 -159 -17 -57 -14 -131 7 -179 27 -59 94 -144 135 -171 19
-13 37 -35 41 -50 10 -43 63 -119 116 -166 88 -79 184 -84 325 -17 130 61 501
274 527 302 16 18 27 40 26 57 0 15 -26 104 -58 197 -52 152 -61 172 -91 193
-18 12 -43 22 -56 22 -19 0 -25 8 -34 43 -26 99 -37 122 -70 145 -62 42 -103
33 -300 -68z m287 19 c9 -15 13 -34 10 -43 -8 -19 -245 -135 -292 -143 -21 -3
-38 1 -55 15 -21 17 -23 24 -15 48 8 24 32 40 135 91 144 72 189 78 217 32z
m157 -204 c10 -14 15 -34 11 -44 -7 -23 -241 -152 -288 -159 -27 -3 -43 0 -57
13 -43 39 -13 73 135 154 127 70 172 78 199 36z"/>
</g>
</svg>
