<?xml version="1.0" standalone="no"?>
<!DOCTYPE svg PUBLIC "-//W3C//DTD SVG 20010904//EN"
 "http://www.w3.org/TR/2001/REC-SVG-20010904/DTD/svg10.dtd">
<svg version="1.0" xmlns="http://www.w3.org/2000/svg"
 width="80.000000pt" height="80.000000pt" viewBox="0 0 80.000000 80.000000"
 preserveAspectRatio="xMidYMid meet">
<metadata>
Created by potrace 1.16, written by Peter Selinger 2001-2019
</metadata>
<g transform="translate(0.000000,80.000000) scale(0.100000,-0.100000)"
fill="#000000" stroke="none">
<path d="M504 706 c-19 -19 -34 -41 -34 -50 0 -20 -4 -20 -58 -1 -33 12 -52
13 -81 5 -46 -12 -58 -25 -111 -120 -64 -113 -86 -140 -119 -140 -35 0 -61
-28 -61 -67 0 -44 -10 -36 282 -206 113 -65 141 -77 178 -77 70 0 96 25 177
166 58 101 73 136 73 168 0 48 -29 102 -64 117 l-24 11 24 46 c28 52 29 70 10
117 -17 41 -60 65 -117 65 -33 0 -47 -6 -75 -34z m124 -32 c36 -25 30 -79 -14
-120 -19 -19 -34 -39 -32 -44 2 -5 25 -25 53 -42 63 -42 75 -72 50 -128 -32
-71 -27 -72 -230 45 -102 59 -187 111 -190 115 -3 4 10 30 28 56 40 61 74 68
142 29 25 -15 51 -25 59 -22 7 3 16 22 19 43 12 70 66 103 115 68z m-183 -301
c102 -59 185 -113 185 -120 0 -21 -70 -132 -90 -143 -36 -19 -65 -9 -195 65
-71 41 -122 75 -112 75 20 0 77 54 77 73 0 5 -11 -2 -24 -16 -43 -46 -93 -48
-156 -5 -47 32 -49 48 -7 48 38 0 75 34 105 97 9 18 19 33 24 33 4 0 91 -48
193 -107z"/>
</g>
</svg>
