<?xml version="1.0" encoding="UTF-8" standalone="no"?>
<svg
   xmlns:dc="http://purl.org/dc/elements/1.1/"
   xmlns:cc="http://creativecommons.org/ns#"
   xmlns:rdf="http://www.w3.org/1999/02/22-rdf-syntax-ns#"
   xmlns:svg="http://www.w3.org/2000/svg"
   xmlns="http://www.w3.org/2000/svg"
   xmlns:sodipodi="http://sodipodi.sourceforge.net/DTD/sodipodi-0.dtd"
   xmlns:inkscape="http://www.inkscape.org/namespaces/inkscape"
   sodipodi:docname="Onepiece.svg"
   inkscape:version="1.0 (4035a4fb49, 2020-05-01)"
   id="svg2033"
   version="1.1"
   viewBox="0 0 210 297"
   height="297mm"
   width="210mm">
  <defs
     id="defs2027" />
  <sodipodi:namedview
     inkscape:window-maximized="1"
     inkscape:window-y="-8"
     inkscape:window-x="2552"
     inkscape:window-height="1417"
     inkscape:window-width="2560"
     showgrid="false"
     inkscape:document-rotation="0"
     inkscape:current-layer="layer9"
     inkscape:document-units="mm"
     inkscape:cy="560"
     inkscape:cx="400"
     inkscape:zoom="0.35"
     inkscape:pageshadow="2"
     inkscape:pageopacity="0.0"
     borderopacity="1.0"
     bordercolor="#666666"
     pagecolor="#ffffff"
     id="base" />
  <metadata
     id="metadata2030">
    <rdf:RDF>
      <cc:Work
         rdf:about="">
        <dc:format>image/svg+xml</dc:format>
        <dc:type
           rdf:resource="http://purl.org/dc/dcmitype/StillImage" />
        <dc:title></dc:title>
      </cc:Work>
    </rdf:RDF>
  </metadata>
  <g
     inkscape:label="Trace"
     id="layer9"
     inkscape:groupmode="layer">
    <path
       id="path2050"
       d="m 56.698202,241.62334 c -9.272406,-1.72626 -22.819751,-5.15076 -30.105212,-7.61 -10.886958,-3.67495 -13.368745,-5.54379 -13.933783,-10.49241 -0.378122,-3.31157 4.769869,-35.22584 11.43998,-70.9206 6.670108,-35.69475 12.12747,-65.937835 12.12747,-67.206841 0,-1.26901 -1.896628,-0.652901 -4.214729,1.369129 -7.112477,6.204068 -14.505433,9.171009 -18.772242,7.53368 -5.1974148,-1.994434 -37.223452,-50.417275 -37.223452,-56.281246 0,-5.298237 4.031336,-9.555435 18.4283921,-19.460871 C 6.9943449,9.9197464 40.656011,-6.1540838 53.389306,-9.5925807 c 8.694882,-2.3479633 8.745403,-2.3175403 11.517696,6.9355472 4.368345,14.5802435 23.533473,26.2793575 43.050028,26.2793575 20.51638,0 40.1777,-12.227591 43.09206,-26.7994286 1.64245,-8.2122134 1.23121,-8.1615084 18.36981,-2.2649644 28.62301,9.8477568 69.13101,37.218729 69.0945,46.686659 -0.012,2.891731 -6.53146,14.46989 -14.48956,25.729239 -25.32843,35.835301 -25.68526,36.048241 -39.73491,23.712481 -8.35661,-7.337204 -8.60571,-7.398963 -7.28589,-1.806313 6.15467,26.079913 25.10399,135.029793 23.99016,137.932373 -5.43731,14.16942 -97.16681,23.58486 -144.294998,14.81097 z M 117.20164,104.1951 c 3.41762,-5.215951 3.54799,-7.005992 0.87411,-12.002176 -4.17816,-7.806977 -10.92049,-9.624761 -18.143967,-4.891755 -10.482574,6.868446 -6.154451,23.024161 6.168187,23.024161 4.93332,0 8.30483,-1.8617 11.10167,-6.13023 z m -0.22702,-39.70262 c 3.45581,-3.818624 3.93327,-6.269988 2.17959,-11.190504 -3.43359,-9.634066 -9.38947,-12.358876 -17.31898,-7.923415 -7.946974,4.445234 -9.732314,13.067023 -4.014205,19.385461 5.427255,5.997055 13.585265,5.881398 19.153595,-0.271542 z"
       style="fill:#000000;stroke-width:2.40842" />
  </g>
</svg>
