<?xml version="1.0" encoding="UTF-8" standalone="no"?>
<svg
   xmlns:dc="http://purl.org/dc/elements/1.1/"
   xmlns:cc="http://creativecommons.org/ns#"
   xmlns:rdf="http://www.w3.org/1999/02/22-rdf-syntax-ns#"
   xmlns:svg="http://www.w3.org/2000/svg"
   xmlns="http://www.w3.org/2000/svg"
   xmlns:sodipodi="http://sodipodi.sourceforge.net/DTD/sodipodi-0.dtd"
   xmlns:inkscape="http://www.inkscape.org/namespaces/inkscape"
   inkscape:version="1.0 (4035a4fb49, 2020-05-01)"
   sodipodi:docname="Palette.svg"
   viewBox="0 0 96 96"
   height="96"
   width="96"
   id="svg1129"
   version="1.1">
  <metadata
     id="metadata1135">
    <rdf:RDF>
      <cc:Work
         rdf:about="">
        <dc:format>image/svg+xml</dc:format>
        <dc:type
           rdf:resource="http://purl.org/dc/dcmitype/StillImage" />
        <dc:title></dc:title>
      </cc:Work>
    </rdf:RDF>
  </metadata>
  <defs
     id="defs1133" />
  <sodipodi:namedview
     inkscape:current-layer="layer5"
     inkscape:window-maximized="1"
     inkscape:window-y="-8"
     inkscape:window-x="2552"
     inkscape:cy="48"
     inkscape:cx="48"
     inkscape:zoom="12.78125"
     showgrid="false"
     id="namedview1131"
     inkscape:window-height="1417"
     inkscape:window-width="2560"
     inkscape:pageshadow="2"
     inkscape:pageopacity="0"
     guidetolerance="10"
     gridtolerance="10"
     objecttolerance="10"
     borderopacity="1"
     bordercolor="#666666"
     pagecolor="#ffffff" />
  <g
     style="display:inline"
     inkscape:label="Trace"
     id="layer5"
     inkscape:groupmode="layer">
    <path
       sodipodi:nodetypes="cccsccccc"
       id="path1144"
       d="m 70.026778,26.080294 c 1.352469,1.233834 1.182443,3.788694 0.04654,5.320665 -2.952398,4.769398 -12.02297,6.932492 -9.68437,10.191867 4.37319,3.959322 9.068816,-1.410245 14.798955,-1.976692 4.146953,-0.409942 7.656714,2.912407 8.346505,4.30535 C 94.719911,65.205315 58.158972,78.918937 45.462925,77.964196 14.711589,76.825364 10.372531,57.121707 9.8111616,47.316021 10.440812,23.295775 34.200616,18.536611 47.229234,17.885634 c 6.738148,0.413419 13.09592,-0.391445 22.797544,8.19466 z"
       style="fill:none;stroke:#000000;stroke-width:1px;stroke-linecap:butt;stroke-linejoin:miter;stroke-opacity:1" />
    <ellipse
       cx="45.17445"
       cy="33.818256"
       rx="9.2220259"
       ry="6.5092483"
       id="path1146"
       style="fill:none;stroke:#000000;stroke-width:0.656145;stroke-miterlimit:4;stroke-dasharray:none;stroke-opacity:1" />
    <path
       sodipodi:nodetypes="cccc"
       id="path1148"
       d="m 36.363595,68.755782 c 2.456426,0.829298 3.979105,0.120802 4.783254,-1.771042 3.415214,-0.892812 3.313335,-1.925846 3.929625,-2.949744 1.11329,-10.945398 -18.640046,-0.172606 -8.712879,4.720786 z"
       style="fill:none;stroke:#000000;stroke-width:1px;stroke-linecap:butt;stroke-linejoin:miter;stroke-opacity:1" />
    <path
       sodipodi:nodetypes="cccc"
       id="path1150"
       d="m 49.705117,61.950069 c -1.54202,1.966515 -3.286297,4.86298 0.889443,8.298845 2.487797,3.355065 3.232934,-2.508103 7.140656,-3.478298 3.585458,-1.810895 -3.180575,-11.640194 -8.030099,-4.820547 z"
       style="fill:none;stroke:#000000;stroke-width:1px;stroke-linecap:butt;stroke-linejoin:miter;stroke-opacity:1" />
    <path
       sodipodi:nodetypes="ccccc"
       id="path1152"
       d="m 62.0039,59.441396 c -0.543785,3.273234 -1.488627,6.571975 2.224622,7.44615 1.055467,-0.226071 6.325363,-2.060041 6.685212,-5.828242 0.771882,-3.69236 -2.149759,-3.501618 -4.59228,-4.017653 -1.925553,-0.437334 -3.90893,0.288735 -4.317554,2.399745 z"
       style="fill:none;stroke:#000000;stroke-width:1px;stroke-linecap:butt;stroke-linejoin:miter;stroke-opacity:1" />
    <path
       id="path1191"
       d="m 47.255447,18.359035 c -3.496322,0.0851 -6.974127,0.594863 -10.399285,1.282867 -6.384496,1.332697 -12.714654,3.752412 -17.729284,8.022984 -3.998087,3.371211 -6.854658,8.046235 -8.040303,13.13896 -0.730874,3.09762 -1.071937,6.32784 -0.561293,9.489077 0.763588,5.923681 2.959036,11.786223 6.956766,16.296063 4.09393,4.700307 9.844939,7.684369 15.820324,9.228225 4.332203,1.128652 8.810829,1.679369 13.28384,1.743075 5.215882,-0.04555 10.330337,-1.385683 15.215245,-3.127427 6.351691,-2.334384 12.545448,-5.506732 17.436487,-10.261729 2.896576,-2.851427 5.292365,-6.46804 5.841894,-10.567313 0.06203,-1.740003 0.192292,-3.525406 -0.301306,-5.220032 -0.449754,-1.668231 -1.030661,-3.339507 -1.988684,-4.787975 -1.370965,-1.693669 -3.317507,-2.934091 -5.443489,-3.420327 -2.196691,-0.435661 -4.403209,0.254076 -6.416899,1.088752 -1.954804,0.736633 -3.828147,1.782862 -5.911471,2.100375 -1.239305,0.161835 -2.553191,0.08799 -3.651465,-0.57036 -0.868592,-0.419922 -1.793417,-1.146974 -1.746162,-2.213836 -0.09144,-1.073911 0.794167,-1.907616 1.553122,-2.550694 2.261261,-1.817603 4.931878,-3.094924 7.040328,-5.105911 1.186025,-1.161184 2.366637,-2.604524 2.312551,-4.361757 0.02573,-0.924409 -0.329227,-1.872722 -1.101013,-2.4214 C 65.820824,23.028388 61.69848,20.289866 56.98586,19.249833 53.80145,18.5296 50.50782,18.41516 47.255447,18.359035 Z m -2.025954,8.735639 c 2.977623,-0.06138 6.127261,0.976772 8.105834,3.29209 0.877432,1.005356 1.362927,2.328168 1.282912,3.661591 -0.03697,2.129762 -1.598094,3.928108 -3.361412,4.957364 -2.005851,1.197958 -4.365523,1.64323 -6.67708,1.551448 -2.596613,-0.09455 -5.240384,-0.981128 -7.125166,-2.816087 -1.472848,-1.410901 -2.207367,-3.658121 -1.45913,-5.606898 0.839757,-2.290764 3.074998,-3.784112 5.323673,-4.490506 1.258337,-0.436974 2.580288,-0.583481 3.910369,-0.549002 z m 19.99076,29.411503 c 1.423281,0.143976 2.849446,0.353341 4.229507,0.733496 0.996041,0.314803 1.926255,1.14344 1.962546,2.239575 0.142358,1.656706 -0.329633,3.411041 -1.483262,4.649711 -1.380459,1.473805 -3.24678,2.424145 -5.137462,3.05074 -0.754025,0.319891 -1.556541,-0.145017 -2.205852,-0.516973 -1.145935,-0.70517 -1.612462,-2.115963 -1.492689,-3.407007 0.09609,-1.625788 0.235913,-3.302433 0.821775,-4.841483 0.580585,-1.248856 1.96016,-1.94092 3.305437,-1.908059 z m -23.627762,2.367971 c 1.469833,-0.03668 2.996061,0.755539 3.559014,2.16015 0.413362,0.996626 0.423632,2.121004 0.335739,3.176048 -0.516807,1.129539 -1.334554,2.170358 -2.518178,2.636235 -0.572647,0.317991 -1.420667,0.241656 -1.728962,0.926604 -0.629194,1.035547 -1.783943,1.829 -3.034043,1.705214 -1.72031,0.09429 -3.40932,-0.859619 -4.402244,-2.213161 -0.887397,-1.194605 -0.829754,-2.867172 -0.02075,-4.092014 1.400262,-2.204068 3.825319,-3.623288 6.344158,-4.15759 0.482188,-0.09489 0.973462,-0.148437 1.465264,-0.141486 z M 53.5553,59.176025 c 2.138027,0.0018 3.951308,1.589915 4.922744,3.388804 0.625849,1.142593 0.955753,2.581842 0.325377,3.789903 -0.363325,0.650842 -1.115122,0.891352 -1.770469,1.147479 -1.761601,0.86781 -2.637876,2.764532 -4.151074,3.927812 -0.687994,0.494474 -1.65018,0.232791 -2.164236,-0.391876 -1.052259,-1.086264 -2.309117,-2.097185 -2.83612,-3.564332 -0.680703,-1.664486 -0.119242,-3.545752 0.874279,-4.954537 0.993119,-1.392311 2.145746,-2.955045 3.940271,-3.274411 0.276141,-0.04961 0.576141,-0.07058 0.859228,-0.06884 z"
       style="fill:#000000;stroke:#000000;stroke-width:0.0345979;stroke-miterlimit:4;stroke-dasharray:none;stroke-opacity:1" />
  </g>
</svg>
