<?xml version="1.0" encoding="UTF-8" standalone="no"?>
<svg
   xmlns:dc="http://purl.org/dc/elements/1.1/"
   xmlns:cc="http://creativecommons.org/ns#"
   xmlns:rdf="http://www.w3.org/1999/02/22-rdf-syntax-ns#"
   xmlns:svg="http://www.w3.org/2000/svg"
   xmlns="http://www.w3.org/2000/svg"
   xmlns:sodipodi="http://sodipodi.sourceforge.net/DTD/sodipodi-0.dtd"
   xmlns:inkscape="http://www.inkscape.org/namespaces/inkscape"
   inkscape:version="1.0 (4035a4fb49, 2020-05-01)"
   sodipodi:docname="Pear.svg"
   id="svg47"
   version="1.1"
   viewBox="0 0 210 297"
   height="297mm"
   width="210mm">
  <defs
     id="defs41" />
  <sodipodi:namedview
     inkscape:window-maximized="0"
     inkscape:window-y="-8"
     inkscape:window-x="3832"
     inkscape:window-height="1417"
     inkscape:window-width="1280"
     showgrid="false"
     inkscape:document-rotation="0"
     inkscape:current-layer="layer3"
     inkscape:document-units="mm"
     inkscape:cy="451.01372"
     inkscape:cx="389.29047"
     inkscape:zoom="2.8"
     inkscape:pageshadow="2"
     inkscape:pageopacity="0.0"
     borderopacity="1.0"
     bordercolor="#666666"
     pagecolor="#ffffff"
     id="base" />
  <metadata
     id="metadata44">
    <rdf:RDF>
      <cc:Work
         rdf:about="">
        <dc:format>image/svg+xml</dc:format>
        <dc:type
           rdf:resource="http://purl.org/dc/dcmitype/StillImage" />
        <dc:title></dc:title>
      </cc:Work>
    </rdf:RDF>
  </metadata>
  <g
     inkscape:label="Tracing Layer"
     id="layer3"
     inkscape:groupmode="layer">
    <path
       transform="scale(0.26458333)"
       d="M 436.73828 417.61914 C 435.12039 417.56407 433.44682 418.0852 432.44727 419.35938 C 430.42862 420.75715 428.72104 422.5503 427.19336 424.46875 C 426.89992 426.73605 426.84011 428.61807 422.7832 427.86719 C 420.98857 429.43992 419.29394 431.15421 417.81055 433.02734 C 416.03062 435.78927 414.45668 438.95814 414.60938 442.33594 C 414.37569 446.02037 415.06785 449.94351 417.56445 452.79883 C 419.01288 454.87734 420.90285 456.55251 422.97656 457.98242 C 426.73209 460.36205 431.28476 461.6209 435.73633 461.27734 C 438.54391 461.13036 441.68796 460.49045 444.07031 459.01367 C 445.80988 457.81318 447.55169 456.90553 448.9082 455.22852 C 451.17743 452.51652 452.26218 448.93651 452.39258 445.4375 C 452.3357 442.08117 452.51172 438.56499 451.11133 435.42969 C 450.661 433.38224 450.3229 431.23578 450.3418 429.11523 C 450.6612 425.77081 449.54016 422.14421 446.78711 420.05273 C 445.37035 418.56515 445.36023 420.72823 445.79102 421.54688 C 447.6177 424.13758 443.96791 423.94582 442.36523 423.96094 C 440.32591 424.23851 439.33661 423.70091 436.92188 422.36133 C 436.24103 421.7631 435.07442 421.07204 435.64648 420.07617 C 436.4293 418.79873 438.83639 419.76183 438.31055 417.85938 C 437.81068 417.7195 437.27758 417.6375 436.73828 417.61914 z "
       style="fill:none;stroke:#000000;stroke-width:0.999999px;stroke-linecap:butt;stroke-linejoin:miter;stroke-opacity:1"
       id="path99" />
    <path
       transform="scale(0.26458333)"
       d="M 429.33984 451.88281 C 428.55786 451.86391 427.98292 451.93587 427.90234 452.7832 C 427.80634 453.30531 427.74213 453.88406 427.76367 454.41406 C 427.95756 455.54142 429.11661 454.56977 429.60742 454.36719 C 430.26907 453.77161 430.41618 452.90196 429.94336 452.25195 L 429.33984 451.88281 z "
       style="fill:none;stroke:#000000;stroke-width:0.999999px;stroke-linecap:butt;stroke-linejoin:miter;stroke-opacity:1"
       id="path111" />
    <path
       transform="scale(0.26458333)"
       d="M 420.99219 442.54883 C 420.41322 442.49058 419.88756 442.77227 419.65039 443.30469 C 419.35634 443.96399 419.32117 444.93334 419.54492 445.48047 C 419.82007 445.84028 420.23917 446.79513 421.18945 446.82227 C 422.12439 446.71455 422.74034 445.29296 422.58398 444.29297 C 422.49101 443.81852 422.36284 443.28443 422.04102 443.03906 C 421.70588 442.74086 421.33957 442.58378 420.99219 442.54883 z "
       style="fill:none;stroke:#000000;stroke-width:0.999999px;stroke-linecap:butt;stroke-linejoin:miter;stroke-opacity:1"
       id="path103" />
    <path
       transform="scale(0.26458333)"
       d="M 441.3418 452.65625 C 441.07071 452.66856 440.69016 452.76842 440.54883 452.91016 C 440.2321 453.11085 440.21312 453.14529 439.84961 453.37305 C 439.68331 453.56013 439.17787 454.25938 439.24023 454.55078 C 439.25157 454.84218 439.26817 455.14733 439.39062 455.41602 C 439.62155 455.68587 440.01501 455.69254 440.34375 455.70312 C 440.73538 455.68045 441.07218 455.69127 441.46094 455.61719 C 441.63026 455.53101 441.85202 455.51932 441.99609 455.39648 C 442.16995 455.2865 442.31113 455.19895 442.47656 455.10938 C 442.7434 454.98919 442.92573 454.82079 443.04883 454.63477 C 443.23289 454.31275 443.3287 453.97803 443.38086 453.60352 C 443.39598 453.38619 443.21784 453.21636 443.0625 453.12305 C 442.77148 452.97867 442.45073 452.91191 442.13477 452.84766 C 441.59426 452.68136 441.75441 452.76592 441.5957 452.68164 L 441.56445 452.67383 L 441.5625 452.67383 C 441.5093 452.65654 441.43216 452.65215 441.3418 452.65625 z M 439.84961 453.37305 C 439.87985 453.17198 439.68785 453.56656 439.84961 453.37305 z M 439.84961 453.37305 C 441.48384 452.32415 439.62246 453.33525 439.84961 453.37305 z "
       style="fill:none;stroke:#000000;stroke-width:0.999999px;stroke-linecap:butt;stroke-linejoin:miter;stroke-opacity:1"
       id="path119" />
    <path
       transform="scale(0.26458333)"
       d="M 439.29102 445.73047 C 435.41314 445.47044 436.25498 451.51019 438.87695 450.19922 C 439.68271 449.98227 440.08478 449.56519 440.54297 449.04883 C 440.87595 448.47865 440.85451 447.72707 440.79102 447.14453 C 440.6353 446.03361 440.18363 445.97043 439.29102 445.73047 z "
       style="fill:none;stroke:#000000;stroke-width:0.999999px;stroke-linecap:butt;stroke-linejoin:miter;stroke-opacity:1"
       id="path113" />
    <path
       transform="scale(0.26458333)"
       d="M 433.4043 440.78906 C 432.797 440.7745 432.1264 441.14376 431.90039 441.68945 C 431.76206 442.06438 431.9004 442.47773 432.0918 442.80859 C 432.32008 443.20703 432.65055 443.56461 433.08984 443.72656 C 433.52169 443.89815 434.065 443.90128 434.44141 443.60156 C 434.84585 443.24024 434.93078 442.6443 434.8457 442.13281 C 434.64085 441.40299 434.30253 441.21029 433.97266 440.93945 C 433.80316 440.84159 433.60673 440.79392 433.4043 440.78906 z "
       style="fill:none;stroke:#000000;stroke-width:0.999999px;stroke-linecap:butt;stroke-linejoin:miter;stroke-opacity:1"
       id="path109" />
    <path
       transform="scale(0.26458333)"
       d="M 449.55859 443.00977 C 449.21655 442.95458 448.54261 443.26674 448.12891 443.8125 C 447.27572 445.26543 447.00091 445.81473 447.10742 446.99023 C 447.41583 447.66239 447.8596 447.65143 448.30078 447.87695 C 449.26649 448.03116 449.41713 447.83243 449.89062 447.40039 C 450.09585 447.03226 450.14669 446.80778 450.32422 446.34766 C 450.45386 445.92624 450.37855 445.47695 450.47266 445.03516 C 450.53162 444.75509 450.88661 443.11688 449.55859 443.00977 z "
       style="fill:none;stroke:#000000;stroke-width:0.999999px;stroke-linecap:butt;stroke-linejoin:miter;stroke-opacity:1"
       id="path115" />
    <path
       sodipodi:nodetypes="scccccccccccccss"
       transform="scale(0.26458333)"
       d="m 440.35938,407.97461 c -0.3436,0.002 -0.59128,0.0376 -0.69532,0.12695 -0.30198,0.30425 -0.32225,0.66111 -0.27539,2.18555 -0.43026,0.44081 -1.13052,0.63218 -1.35351,1.27734 -0.35483,0.57498 0.11076,1.20625 0.66601,1.41602 0.67015,0.24899 1.24388,0.70917 1.63086,1.3125 0.13614,0.79612 0.16708,1.62981 0.14063,2.44336 0.14902,0.75549 -0.17288,1.1424 -0.45899,1.61133 -0.24529,0.55559 -0.6059,1.21843 -0.54883,1.90234 0.12318,0.57846 0.0178,1.32191 0.46094,1.76562 0.657,0.30728 1.41435,0.14496 2.10547,0.0527 0.58938,-0.14721 0.78675,-0.41773 1.26183,-0.82818 0.63436,-0.83528 0.65773,-1.13236 0.77981,-2.14002 0.30777,-2.93587 0.65381,-7.34647 0.70445,-10.7525 -1.49017,-0.0765 -3.38717,-0.37773 -4.41796,-0.37305 z"
       style="fill:none;stroke:#000000;stroke-width:0.999999px;stroke-linecap:butt;stroke-linejoin:miter;stroke-opacity:1"
       id="path144" />
    <path
       transform="scale(0.26458333)"
       id="path253"
       d="m 440.2491,408.19298 c -0.2139,-0.0112 -0.47422,0.0248 -0.56807,0.2489 -0.11887,0.31855 -0.0642,0.66941 -0.0828,1.00248 -10e-4,0.31322 -0.002,0.62645 -0.004,0.93967 -0.33692,0.35751 -0.80674,0.55373 -1.14356,0.90955 -0.16756,0.21386 -0.32771,0.47414 -0.31691,0.75498 0.051,0.42941 0.46444,0.67486 0.83289,0.812 0.63874,0.28385 1.20346,0.75672 1.56178,1.3594 0.17091,0.90047 0.15752,1.8084 0.17683,2.72124 0.006,0.32079 -0.009,0.6528 -0.17358,0.93835 -0.17846,0.34788 -0.39896,0.67401 -0.54236,1.03999 -0.21129,0.4761 -0.39357,1.00135 -0.28095,1.52791 0.0689,0.42954 0.0318,0.90312 0.27013,1.28575 0.18829,0.23095 0.52226,0.22402 0.79428,0.23875 0.44879,-0.005 0.90272,-0.0414 1.33813,-0.15364 0.44662,-0.15308 0.79395,-0.50057 1.10401,-0.84276 0.30949,-0.37509 0.5129,-0.83323 0.56789,-1.31755 0.1675,-1.22924 0.25774,-2.46765 0.36811,-3.70299 0.19506,-2.36973 0.34524,-4.74555 0.40503,-7.12142 9.9e-4,-0.21112 -0.21476,-0.33148 -0.40656,-0.31537 -1.11541,-0.095 -2.22598,-0.24591 -3.34327,-0.3171 -0.18569,-0.007 -0.37159,-0.009 -0.55741,-0.008 z"
       style="fill:#000000;fill-opacity:1;stroke-width:0.0223214" />
    <path
       transform="scale(0.26458333)"
       id="path255"
       d="m 436.35443,417.86474 c -1.36108,-0.004 -2.71825,0.53554 -3.65164,1.5368 -1.07197,0.87782 -2.1792,1.7197 -3.13224,2.73239 -0.73261,0.78554 -1.51981,1.54609 -2.10052,2.45397 -0.26567,0.91353 -0.22622,1.95918 -0.81851,2.75939 -0.69881,0.94376 -2.01409,0.98991 -3.08077,0.86607 -0.37419,-0.0473 -0.81917,-0.15039 -1.0657,0.225 -1.4497,1.33465 -2.84641,2.73848 -4.10198,4.25855 -1.62337,2.14755 -2.84369,4.63596 -3.39017,7.27966 -0.23359,1.52046 -0.19348,3.07036 -0.17084,4.6043 0.091,2.8516 0.97002,5.73289 2.80271,7.95536 1.60035,2.18377 3.60902,4.07362 5.90422,5.51125 3.09825,1.85046 6.67167,2.9478 10.28486,3.04666 3.27895,-0.002 6.65833,-0.44182 9.59548,-1.98461 1.42043,-0.88535 2.8296,-1.80438 4.13473,-2.8541 2.65009,-2.36616 4.04307,-5.86074 4.4728,-9.3301 0.23149,-1.97442 0.0663,-3.96758 0.0184,-5.94805 -0.0606,-1.84901 -0.45485,-3.67762 -1.10778,-5.40581 -0.43968,-1.68864 -0.71566,-3.42318 -0.7881,-5.16371 -0.0542,-1.98511 0.1288,-4.05271 -0.58386,-5.95818 -0.56493,-1.69833 -1.63304,-3.21874 -3.0465,-4.31832 -0.1841,-0.25507 -0.67796,-0.33518 -0.72727,0.0648 -0.12224,0.80412 0.39613,1.4747 0.67053,2.18126 0.12141,0.51636 -0.0558,1.12019 -0.56829,1.3517 -0.95942,0.49626 -2.04588,0.39766 -3.08842,0.47188 -1.28927,0.0377 -2.66161,0.13173 -3.84238,-0.51009 -1.22482,-0.62398 -2.59736,-1.19167 -3.44506,-2.33396 -0.51574,-0.64936 -0.18638,-1.64823 0.54752,-1.96635 0.60664,-0.33332 1.36587,-0.30804 1.93573,-0.70123 0.3219,-0.34378 -0.0934,-0.79469 -0.48528,-0.75637 -0.38872,-0.0421 -0.78059,-0.0687 -1.1717,-0.0681 z m -2.88261,22.71607 c 1.05224,0.0601 1.75015,1.23991 1.61161,2.22416 -0.0532,0.74622 -0.76149,1.3738 -1.5192,1.22824 -1.0557,-0.007 -1.92403,-1.04668 -1.93856,-2.06685 0.0282,-0.89222 1.04068,-1.43548 1.84615,-1.38555 z m -12.62102,1.77241 c 0.96685,-0.0915 1.78324,0.7465 1.90668,1.66536 0.23733,1.07657 -0.15505,2.40505 -1.18335,2.92532 -0.7739,0.30681 -1.54611,-0.26811 -1.93158,-0.91034 -0.34191,-0.38653 -0.48154,-0.88577 -0.4471,-1.39531 -0.0549,-0.86877 0.24746,-1.96083 1.16522,-2.25778 0.16135,-0.0303 0.32675,-0.0256 0.49013,-0.0272 z m 28.67364,0.44922 c 0.72164,-0.0695 1.24077,0.61373 1.24079,1.28482 -10e-4,0.78072 -0.10179,1.56647 -0.24141,2.33428 -0.15972,0.69311 -0.51236,1.45821 -1.25033,1.67225 -0.80938,0.15882 -1.73371,-0.1077 -2.25117,-0.76752 -0.28797,-0.43642 -0.11804,-0.99695 -0.0854,-1.48323 0.20129,-0.89198 0.6805,-1.71539 1.25605,-2.41752 0.33568,-0.3764 0.81082,-0.66173 1.33148,-0.62308 z m -10.34733,2.6897 c 0.67133,0.093 1.50366,0.33412 1.7085,1.07832 0.24416,0.86627 0.26915,1.88285 -0.20561,2.67438 -0.63309,0.80284 -1.67727,1.32935 -2.7122,1.36276 -1.08267,-0.19083 -1.60427,-1.42132 -1.522,-2.40693 -0.0305,-0.82995 0.28846,-1.68297 0.9659,-2.1892 0.49932,-0.39794 1.14148,-0.51901 1.76541,-0.51933 z m -9.42765,6.35896 c 0.88613,0.47045 0.86391,1.78915 0.22588,2.45948 -0.45554,0.41493 -1.03256,0.73374 -1.63396,0.86802 -0.59742,0.0797 -0.90416,-0.62805 -0.81468,-1.13005 0.0793,-0.69062 0.0496,-1.46381 0.4529,-2.06003 0.36573,-0.36503 0.94125,-0.30047 1.41329,-0.3599 0.11886,0.0742 0.23772,0.14832 0.35657,0.22248 z m 11.60785,0.58887 c 0.64926,0.0706 1.30152,0.26068 1.88993,0.5401 0.3042,0.1501 0.34791,0.45817 0.30043,0.75732 -0.004,0.69317 -0.42376,1.33045 -1.04469,1.63291 -0.5489,0.38783 -1.19225,0.55537 -1.85285,0.53529 -0.50978,-0.009 -1.28461,0.0919 -1.50953,-0.50152 -0.20975,-0.59707 -0.16648,-1.28497 0.23969,-1.7922 0.37492,-0.6979 1.16969,-1.09654 1.93288,-1.1723 z"
       style="fill:#000000;fill-opacity:1;stroke-width:0.0631345" />
  </g>
</svg>
