<?xml version="1.0" standalone="no"?>
<!DOCTYPE svg PUBLIC "-//W3C//DTD SVG 20010904//EN"
 "http://www.w3.org/TR/2001/REC-SVG-20010904/DTD/svg10.dtd">
<svg version="1.0" xmlns="http://www.w3.org/2000/svg"
 width="64.000000pt" height="64.000000pt" viewBox="0 0 64.000000 64.000000"
 preserveAspectRatio="xMidYMid meet">
<metadata>
Created by potrace 1.16, written by Peter Selinger 2001-2019
</metadata>
<g transform="translate(0.000000,64.000000) scale(0.100000,-0.100000)"
fill="#000000" stroke="none">
<path d="M213 539 c-180 -89 -178 -352 2 -439 38 -18 59 -21 120 -18 62 3 80
8 117 33 71 50 102 104 106 185 5 85 -8 126 -59 183 -66 76 -196 101 -286 56z
m267 -115 c0 -20 -197 -234 -215 -234 -17 0 -115 89 -115 104 0 7 11 23 25 36
l25 24 35 -34 34 -33 43 35 c24 20 65 54 93 77 53 44 75 51 75 25z"/>
</g>
</svg>
