<?xml version="1.0" standalone="no"?>
<!DOCTYPE svg PUBLIC "-//W3C//DTD SVG 20010904//EN"
 "http://www.w3.org/TR/2001/REC-SVG-20010904/DTD/svg10.dtd">
<svg version="1.0" xmlns="http://www.w3.org/2000/svg"
 width="64.000000pt" height="64.000000pt" viewBox="0 0 64.000000 64.000000"
 preserveAspectRatio="xMidYMid meet">
<metadata>
Created by potrace 1.16, written by Peter Selinger 2001-2019
</metadata>
<g transform="translate(0.000000,64.000000) scale(0.100000,-0.100000)"
fill="#000000" stroke="none">
<path d="M215 541 c-87 -40 -135 -120 -135 -223 1 -142 97 -238 240 -238 144
0 240 96 240 240 0 104 -53 187 -142 224 -52 22 -153 20 -203 -3z m174 -99
c19 -10 43 -34 53 -53 17 -33 25 -119 11 -119 -10 0 -183 173 -183 182 0 15
86 8 119 -10z m-106 -160 c48 -48 87 -91 87 -95 0 -14 -86 -6 -119 11 -19 10
-43 34 -53 53 -18 33 -25 119 -10 119 4 0 47 -39 95 -88z"/>
</g>
</svg>
