<?xml version="1.0" standalone="no"?>
<!DOCTYPE svg PUBLIC "-//W3C//DTD SVG 20010904//EN"
 "http://www.w3.org/TR/2001/REC-SVG-20010904/DTD/svg10.dtd">
<svg version="1.0" xmlns="http://www.w3.org/2000/svg"
 width="64.000000pt" height="64.000000pt" viewBox="0 0 64.000000 64.000000"
 preserveAspectRatio="xMidYMid meet">
<metadata>
Created by potrace 1.16, written by Peter Selinger 2001-2019
</metadata>
<g transform="translate(0.000000,64.000000) scale(0.100000,-0.100000)"
fill="#000000" stroke="none">
<path d="M93 465 c-41 -17 -44 -55 -10 -106 41 -61 119 -83 191 -54 17 8 18 3
11 -89 l-7 -96 42 0 42 0 -7 96 c-7 92 -6 97 11 89 42 -17 99 -16 134 2 42 22
80 76 80 115 0 24 -6 32 -35 44 -39 16 -131 19 -168 5 -13 -5 -31 -17 -40 -26
-16 -15 -18 -15 -34 0 -9 9 -27 21 -40 26 -36 13 -133 10 -170 -6z"/>
</g>
</svg>
