<?xml version="1.0" standalone="no"?>
<!DOCTYPE svg PUBLIC "-//W3C//DTD SVG 20010904//EN"
 "http://www.w3.org/TR/2001/REC-SVG-20010904/DTD/svg10.dtd">
<svg version="1.0" xmlns="http://www.w3.org/2000/svg"
 width="64.000000pt" height="64.000000pt" viewBox="0 0 64.000000 64.000000"
 preserveAspectRatio="xMidYMid meet">
<metadata>
Created by potrace 1.16, written by Peter Selinger 2001-2019
</metadata>
<g transform="translate(0.000000,64.000000) scale(0.100000,-0.100000)"
fill="#000000" stroke="none">
<path d="M270 459 c-22 -23 -40 -45 -40 -50 0 -5 -6 -9 -14 -9 -7 0 -30 -18
-49 -39 -81 -90 -54 -217 58 -271 36 -18 59 -21 105 -18 112 8 178 81 166 182
-20 171 -24 188 -46 210 l-23 21 6 -22 c4 -20 1 -23 -25 -23 -16 0 -40 8 -53
18 -21 17 -21 19 -7 30 15 9 13 11 -11 11 -19 1 -39 -11 -67 -40z"/>
</g>
</svg>
