<?xml version="1.0" standalone="no"?>
<!DOCTYPE svg PUBLIC "-//W3C//DTD SVG 20010904//EN"
 "http://www.w3.org/TR/2001/REC-SVG-20010904/DTD/svg10.dtd">
<svg version="1.0" xmlns="http://www.w3.org/2000/svg"
 width="64.000000pt" height="64.000000pt" viewBox="0 0 64.000000 64.000000"
 preserveAspectRatio="xMidYMid meet">
<metadata>
Created by potrace 1.16, written by Peter Selinger 2001-2019
</metadata>
<g transform="translate(0.000000,64.000000) scale(0.100000,-0.100000)"
fill="#000000" stroke="none">
<path d="M214 492 c-95 -79 -114 -111 -114 -183 0 -51 4 -63 31 -94 23 -25 39
-35 61 -35 l31 0 -7 50 c-5 34 -2 60 8 85 8 19 16 35 18 35 2 0 3 -29 3 -65 0
-57 3 -68 27 -91 39 -40 117 -44 178 -12 52 28 90 85 90 136 0 39 -28 98 -62
128 -42 39 -151 104 -173 104 -12 0 -53 -26 -91 -58z"/>
</g>
</svg>
