<?xml version="1.0" standalone="no"?>
<!DOCTYPE svg PUBLIC "-//W3C//DTD SVG 20010904//EN"
 "http://www.w3.org/TR/2001/REC-SVG-20010904/DTD/svg10.dtd">
<svg version="1.0" xmlns="http://www.w3.org/2000/svg"
 width="64.000000pt" height="64.000000pt" viewBox="0 0 64.000000 64.000000"
 preserveAspectRatio="xMidYMid meet">
<metadata>
Created by potrace 1.16, written by Peter Selinger 2001-2019
</metadata>
<g transform="translate(0.000000,64.000000) scale(0.100000,-0.100000)"
fill="#000000" stroke="none">
<path d="M206 490 c-67 -20 -114 -105 -103 -185 15 -109 77 -194 158 -215 75
-21 178 12 218 69 51 71 69 197 38 258 -28 54 -102 88 -127 58 -12 -15 -12
-19 5 -31 25 -19 9 -34 -43 -41 -65 -9 -136 35 -87 53 8 4 15 15 15 25 0 21
-24 24 -74 9z"/>
</g>
</svg>
