<?xml version="1.0" standalone="no"?>
<!DOCTYPE svg PUBLIC "-//W3C//DTD SVG 20010904//EN"
 "http://www.w3.org/TR/2001/REC-SVG-20010904/DTD/svg10.dtd">
<svg version="1.0" xmlns="http://www.w3.org/2000/svg"
 width="64.000000pt" height="64.000000pt" viewBox="0 0 64.000000 64.000000"
 preserveAspectRatio="xMidYMid meet">
<metadata>
Created by potrace 1.16, written by Peter Selinger 2001-2019
</metadata>
<g transform="translate(0.000000,64.000000) scale(0.100000,-0.100000)"
fill="#000000" stroke="none">
<path d="M315 551 c-5 -17 -10 -19 -31 -11 -64 25 -131 2 -158 -54 -26 -55
-22 -82 15 -90 44 -8 109 11 142 42 19 18 37 26 53 24 24 -3 25 -2 22 50 -2
40 -7 54 -20 56 -9 2 -19 -5 -23 -17z"/>
<path d="M380 497 c0 -7 5 -18 11 -24 8 -8 3 -16 -20 -28 -17 -9 -36 -13 -42
-9 -12 7 -49 -23 -49 -40 0 -6 -10 -12 -22 -13 -64 -5 -124 -17 -130 -27 -4
-6 -8 -35 -8 -64 0 -100 67 -182 167 -202 105 -22 211 35 249 136 37 96 -8
228 -89 265 -50 22 -67 24 -67 6z"/>
</g>
</svg>
