<?xml version="1.0" encoding="UTF-8" standalone="no"?>
<svg
   xmlns:dc="http://purl.org/dc/elements/1.1/"
   xmlns:cc="http://creativecommons.org/ns#"
   xmlns:rdf="http://www.w3.org/1999/02/22-rdf-syntax-ns#"
   xmlns:svg="http://www.w3.org/2000/svg"
   xmlns="http://www.w3.org/2000/svg"
   xmlns:sodipodi="http://sodipodi.sourceforge.net/DTD/sodipodi-0.dtd"
   xmlns:inkscape="http://www.inkscape.org/namespaces/inkscape"
   inkscape:version="1.0 (4035a4fb49, 2020-05-01)"
   sodipodi:docname="Rug.svg"
   viewBox="0 0 128 128"
   height="128"
   width="128"
   id="svg2736"
   version="1.1">
  <metadata
     id="metadata2742">
    <rdf:RDF>
      <cc:Work
         rdf:about="">
        <dc:format>image/svg+xml</dc:format>
        <dc:type
           rdf:resource="http://purl.org/dc/dcmitype/StillImage" />
        <dc:title></dc:title>
      </cc:Work>
    </rdf:RDF>
  </metadata>
  <defs
     id="defs2740" />
  <sodipodi:namedview
     inkscape:current-layer="layer15"
     inkscape:window-maximized="1"
     inkscape:window-y="0"
     inkscape:window-x="2560"
     inkscape:cy="403.87859"
     inkscape:cx="-86.385278"
     inkscape:zoom="0.80861528"
     showgrid="false"
     id="namedview2738"
     inkscape:window-height="1361"
     inkscape:window-width="2544"
     inkscape:pageshadow="2"
     inkscape:pageopacity="0"
     guidetolerance="10"
     gridtolerance="10"
     objecttolerance="10"
     borderopacity="1"
     bordercolor="#666666"
     pagecolor="#ffffff" />
  <g
     inkscape:label="Trace"
     id="layer15"
     inkscape:groupmode="layer">
    <path
       id="path2748"
       d="M 170.75388,540.64601 C 161.29327,537.26516 146.99073,529.82642 138.97046,524.11549 112.25757,505.09426 105.12982,487.02193 97.126237,418.02023 82.790886,294.43005 76.282585,272.23391 38.245505,217.21133 c -21.288222,-30.7945 -23.970442,-37.45 -23.970442,-59.47877 0,-62.255198 45.230493,-107.215668 107.436267,-106.794887 15.90787,0.107634 34.10858,2.877529 40.44601,6.155373 38.12444,19.718754 61.48531,51.287704 61.48531,83.088844 v 16.8438 l 105.87338,0.0729 c 58.23036,0.04 108.72142,1.87836 112.20235,4.08508 3.59478,2.27889 5.65045,9.95617 4.75836,17.77096 -1.14676,10.04566 -4.45995,14.16912 -12.27692,15.2793 -5.88846,0.8363 -10.70629,4.5835 -10.70629,8.32712 0,4.8758 5.9615,6.80659 21.01606,6.80659 12.54512,0 21.844,2.39744 23.07013,5.94794 3.48552,10.09301 -7.05175,27.36054 -16.69638,27.36054 -17.72363,0 -5.0785,11.9077 14.16288,13.33694 16.36071,1.21527 19.88541,3.37339 22.49575,13.77375 3.48883,13.90053 0.004,18.94696 -14.68224,21.25952 -8.25496,1.29989 -9.39375,3.51187 -6.19766,12.03826 3.35702,8.95567 5.91884,9.87122 17.95889,6.41818 24.41069,-7.0009 35.54914,18.76222 12.62706,29.20623 -12.89643,5.876 -13.78234,7.82627 -7.82298,17.22151 3.18772,5.02552 6.40832,5.06098 17.10267,0.18829 11.56171,-5.26787 13.9858,-4.8949 19.79171,3.04516 9.86721,13.49422 8.12793,20.72499 -7.23203,30.06596 -10.97834,6.67632 -12.89966,10.11682 -9.27085,16.60121 3.60065,6.43394 8.4901,7.5539 22.911,5.24791 15.61283,-2.49659 19.15599,-1.39477 23.87609,7.42478 6.69448,12.50881 0.80435,21.6264 -16.83044,26.05245 -10.04688,2.52161 -11.05613,4.36324 -6.7749,12.36274 3.87268,7.23624 9.98993,9.39975 26.57722,9.39975 21.44267,0 21.53945,0.0746 20.05561,15.46465 -1.25107,12.97528 -3.64286,15.71142 -14.85868,16.99751 -19.43869,2.22905 -13.05226,12.46304 8.9153,14.28629 20.08991,1.66738 25.67841,6.74569 25.79204,23.43728 l 0.0729,10.7063 -205.79882,-0.20885 c -155.69947,-0.15802 -209.98623,-1.7053 -222.99993,-6.35588 z m 32.66576,-48.49881 c -16.03685,-8.70017 -16.66305,-21.13861 -1.92671,-38.27063 l 11.15876,-12.97283 19.66898,7.86997 c 35.88348,14.35772 58.65526,-6.31104 48.50083,-44.02169 -5.56641,-20.67206 -14.97781,-30.37044 -39.35634,-40.55645 -23.33968,-9.75194 -34.64698,-9.23729 -59.30452,2.69922 -22.06457,10.68127 -39.41001,36.41934 -39.41001,58.47858 0,27.26135 19.23072,55.99264 45.20436,67.53674 19.46588,8.65164 31.70545,8.04785 15.46465,-0.76291 z m 237.58009,3.37862 43.67714,-3.03616 -21.57336,-49.96272 c -11.86535,-27.47949 -38.2827,-89.57602 -58.70522,-137.99227 l -37.13185,-88.02955 -65.03839,-1.32624 -65.03839,-1.32624 3.25224,10.84295 c 7.13137,23.77592 21.36453,51.95389 40.40656,79.99453 25.65054,37.7721 46.90056,84.7123 50.61379,111.80326 3.97308,28.98673 -8.76292,61.86673 -28.66456,74.00215 l -14.91726,9.09607 54.72107,-0.51481 c 30.09659,-0.28312 74.3758,-1.88107 98.39823,-3.55097 z"
       style="fill:#000000;stroke-width:4.75835" />
  </g>
</svg>
