<?xml version="1.0" encoding="UTF-8" standalone="no"?>
<svg
   xmlns:dc="http://purl.org/dc/elements/1.1/"
   xmlns:cc="http://creativecommons.org/ns#"
   xmlns:rdf="http://www.w3.org/1999/02/22-rdf-syntax-ns#"
   xmlns:svg="http://www.w3.org/2000/svg"
   xmlns="http://www.w3.org/2000/svg"
   xmlns:sodipodi="http://sodipodi.sourceforge.net/DTD/sodipodi-0.dtd"
   xmlns:inkscape="http://www.inkscape.org/namespaces/inkscape"
   sodipodi:docname="Seasons.svg"
   inkscape:version="1.0 (4035a4fb49, 2020-05-01)"
   id="svg1929"
   version="1.1"
   viewBox="0 0 210 297"
   height="297mm"
   width="210mm">
  <defs
     id="defs1923" />
  <sodipodi:namedview
     inkscape:window-maximized="1"
     inkscape:window-y="-8"
     inkscape:window-x="2552"
     inkscape:window-height="1417"
     inkscape:window-width="2560"
     showborder="false"
     showgrid="false"
     inkscape:document-rotation="0"
     inkscape:current-layer="layer5"
     inkscape:document-units="mm"
     inkscape:cy="560"
     inkscape:cx="400"
     inkscape:zoom="0.35"
     inkscape:pageshadow="2"
     inkscape:pageopacity="0.0"
     borderopacity="1.0"
     bordercolor="#666666"
     pagecolor="#ffffff"
     id="base" />
  <metadata
     id="metadata1926">
    <rdf:RDF>
      <cc:Work
         rdf:about="">
        <dc:format>image/svg+xml</dc:format>
        <dc:type
           rdf:resource="http://purl.org/dc/dcmitype/StillImage" />
        <dc:title></dc:title>
      </cc:Work>
    </rdf:RDF>
  </metadata>
  <g
     inkscape:label="Trace"
     id="layer5"
     inkscape:groupmode="layer">
    <path
       id="path1946"
       d="m 153.41128,245.03283 c -2.10757,-3.00894 -3.83194,-8.58647 -3.83194,-12.39444 0,-6.2036 -0.52164,-6.64442 -5.01612,-4.23905 -9.78183,5.23507 -19.75466,-2.86886 -14.83738,-12.05689 1.25563,-2.34617 6.23633,-6.39479 11.06823,-8.99694 11.06369,-5.95818 12.28569,-15.99592 2.49068,-20.45883 -10.38586,-4.73211 -15.47114,-0.13876 -16.34691,14.76559 -0.51697,8.79785 -2.05558,13.47481 -5.05116,15.35412 -5.90648,3.7055 -12.6975,-0.80843 -13.69127,-9.10043 -0.76773,-6.40591 -0.77133,-6.40685 -9.165691,-2.40387 -12.216402,5.8256 -20.835901,1.57531 -20.835901,-10.2742 0,-6.7267 1.481609,-9.5384 6.769317,-12.84638 3.723124,-2.32918 7.256339,-4.59561 7.851591,-5.0365 0.595249,-0.44091 -1.406477,-2.54483 -4.448284,-4.67539 -3.846052,-2.69389 -5.300313,-5.86307 -4.774628,-10.40506 1.005187,-8.68492 8.936857,-9.70481 21.325316,-2.7421 7.77819,4.37158 10.49912,4.83955 14.78919,2.54357 6.96693,-3.72858 7.05549,-15.10262 0.15117,-19.41444 -4.35763,-2.72138 -6.36293,-2.44734 -13.67934,1.86945 -9.139157,5.39224 -19.342078,6.62292 -21.809427,2.63066 -0.8252,-1.3352 2.474877,-5.91794 7.333499,-10.18387 11.710988,-10.28238 14.396778,-15.59023 15.954468,-31.53039 1.19702,-12.249296 1.9092,-13.532495 8.48056,-15.280104 9.93256,-2.6415 11.28796,-1.115241 11.28796,12.710844 0,14.25479 5.95388,19.73606 16.31158,15.01677 8.89092,-4.05097 7.81386,-13.97957 -2.15755,-19.888796 -14.51524,-8.601976 -15.15858,-9.800246 -8.86078,-16.503947 4.00502,-4.263151 7.28698,-5.607493 11.25704,-4.611072 4.90388,1.230795 5.60384,0.478212 5.60384,-6.025132 0,-7.984033 7.36954,-17.277886 13.70046,-17.277886 9.41976,0 13.37681,4.847869 13.37681,16.388215 0,9.547292 0.54746,10.837509 3.5435,8.351021 1.94892,-1.617463 6.65668,-2.583875 10.46167,-2.147584 5.46511,0.626647 7.08103,2.207486 7.69359,7.52652 0.65677,5.70311 -0.94379,7.771698 -10.46167,13.520709 -13.19677,7.971142 -14.61827,14.729072 -4.329,20.580362 6.01623,3.4213 7.54133,3.46967 12.18495,0.38642 4.10735,-2.72718 4.98837,-5.12246 3.89494,-10.58954 -2.01873,-10.09378 0.82561,-18.967808 6.6747,-20.824238 6.82556,-2.166351 12.184,2.83773 12.184,11.378267 v 7.043791 l 9.87568,-5.14748 c 9.26497,-4.829183 10.25438,-4.899338 16.0002,-1.134529 9.02891,5.915979 8.31826,16.771569 -1.55832,23.804319 l -7.68286,5.47067 5.57329,4.20394 c 4.31986,3.25848 5.20679,5.66426 3.94361,10.69715 -2.02833,8.08154 -9.90272,8.62264 -22.50168,1.54624 -11.21343,-6.29822 -18.41933,-3.34537 -18.41933,7.54792 0,10.95041 9.34444,14.61384 19.26232,7.55168 8.23779,-5.86582 15.22973,-6.67634 19.63048,-2.27561 4.55885,4.55885 3.51076,11.14632 -2.43614,15.31169 -2.9645,2.07643 -4.90298,4.13605 -4.30775,4.57696 0.59526,0.44089 4.12847,2.70732 7.8516,5.0365 4.78504,2.99352 6.76931,6.27105 6.76931,11.18133 0,12.71959 -13.01198,19.05961 -23.24,11.32354 -6.92432,-5.23731 -8.35772,-4.55541 -9.21983,4.38602 -0.57618,5.97574 -2.09522,8.18898 -6.00306,8.7465 -8.77658,1.25213 -13.98489,-6.27545 -12.39048,-17.90792 1.13771,-8.30051 0.51912,-10.65102 -3.45639,-13.13378 -3.91966,-2.44785 -6.24189,-2.30009 -12.18972,0.77565 -10.61223,5.48779 -9.39813,11.84997 3.72945,19.54323 8.29384,4.86052 11.07707,7.99001 11.07707,12.45515 0,7.57371 -7.90362,12.2728 -14.6076,8.68494 -7.08318,-3.79079 -7.54653,-3.37292 -7.54653,6.8058 0,5.14468 -1.32925,10.68321 -2.95388,12.30784 -4.89618,4.89619 -16.06987,3.51018 -20.29145,-2.51698 z M 51.117814,134.632 C 40.792626,130.30339 33.830692,122.00265 30.958436,110.5959 28.310777,100.08109 28.093095,99.888613 24.28422,104.69465 c -5.444104,6.86936 -18.1992498,12.88428 -27.3222039,12.88428 -14.8840911,0 -29.3981731,-12.15971 -33.3611741,-27.949566 -2.784162,-11.092988 5.054679,-27.654473 16.248959,-34.329938 l 9.575787,-5.71031 -8.466687,-3.061592 C -43.682747,37.616988 -45.99457,3.1536477 -22.98191,-12.219808 c 13.892659,-9.280898 28.3254899,-7.168768 42.713446,6.2507748 l 6.769317,6.31369014 0.0091,-8.46063924 C 26.536297,-32.245007 51.983735,-46.789557 75.035454,-35.8508 c 16.708895,7.928889 23.12651,30.411248 13.286909,46.547054 l -4.622471,7.580316 9.038682,-2.41256 c 13.814746,-3.687368 25.771976,-0.371101 34.498606,9.567974 6.30266,7.178339 7.57274,10.695257 7.57274,20.969318 0,23.278117 -12.29135,35.450742 -34.18636,33.856147 l -11.435684,-0.83285 4.349251,8.520581 c 11.012603,21.57469 -2.457296,45.71629 -26.941982,48.28712 -5.128567,0.53848 -12.093367,-0.18164 -15.477331,-1.6003 z"
       style="display:inline;fill:#000000;stroke-width:2.46157" />
  </g>
</svg>
