<?xml version="1.0" encoding="UTF-8" standalone="no"?>
<svg
   xmlns:dc="http://purl.org/dc/elements/1.1/"
   xmlns:cc="http://creativecommons.org/ns#"
   xmlns:rdf="http://www.w3.org/1999/02/22-rdf-syntax-ns#"
   xmlns:svg="http://www.w3.org/2000/svg"
   xmlns="http://www.w3.org/2000/svg"
   xmlns:sodipodi="http://sodipodi.sourceforge.net/DTD/sodipodi-0.dtd"
   xmlns:inkscape="http://www.inkscape.org/namespaces/inkscape"
   sodipodi:docname="Shoes.svg"
   inkscape:version="1.0 (4035a4fb49, 2020-05-01)"
   id="svg2083"
   version="1.1"
   viewBox="0 0 210 297"
   height="297mm"
   width="210mm">
  <defs
     id="defs2077" />
  <sodipodi:namedview
     inkscape:window-maximized="1"
     inkscape:window-y="-8"
     inkscape:window-x="2552"
     inkscape:window-height="1417"
     inkscape:window-width="2560"
     showgrid="false"
     inkscape:document-rotation="0"
     inkscape:current-layer="layer11"
     inkscape:document-units="mm"
     inkscape:cy="585.941"
     inkscape:cx="480.28251"
     inkscape:zoom="0.35"
     inkscape:pageshadow="2"
     inkscape:pageopacity="0.0"
     borderopacity="1.0"
     bordercolor="#666666"
     pagecolor="#ffffff"
     id="base" />
  <metadata
     id="metadata2080">
    <rdf:RDF>
      <cc:Work
         rdf:about="">
        <dc:format>image/svg+xml</dc:format>
        <dc:type
           rdf:resource="http://purl.org/dc/dcmitype/StillImage" />
        <dc:title></dc:title>
      </cc:Work>
    </rdf:RDF>
  </metadata>
  <g
     style="display:inline"
     inkscape:label="Trace"
     id="layer11"
     inkscape:groupmode="layer">
    <path
       sodipodi:nodetypes="ssssssscsssssscssssssssssssssssssssssssssssssssssssss"
       id="path2099"
       d="m 106.90505,270.35693 c -13.846562,-3.89029 -37.145088,-29.224 -40.913347,-44.48723 -0.357446,-1.44783 -0.287974,-4.02032 -1.726641,-5.80042 -1.522423,-1.88374 -4.597826,-2.97072 -6.56398,-4.29273 -8.26491,-5.55719 -21.720773,-22.71894 -27.09576,-34.55822 -4.400023,-9.69176 -5.029273,-24.53425 -1.534635,-36.19832 2.982362,-9.95423 17.732689,-26.64542 28.320481,-32.04691 9.508936,-4.8511 36.046605,-11.88934 44.796612,-11.88084 3.88011,0.004 19.7022,-6.862737 41.86263,-18.167658 39.93511,-20.372488 47.75358,-22.139679 60.31041,-13.631812 6.61536,4.482239 8.90216,9.246638 14.04895,29.270122 1.79556,6.985588 3.07269,8.579178 6.87542,8.579178 2.56864,0 7.66946,2.04386 11.33515,4.54191 5.96398,4.06426 7.89477,8.15088 18.35941,38.85861 6.432,18.87418 11.74257,36.80042 11.80129,39.83608 0.0644,3.33305 -2.09219,7.89237 -5.44447,11.50997 -6.19767,6.6882 -98.23537,58.40514 -115.56651,64.93803 -13.37071,5.04003 -28.5755,6.42113 -38.86501,3.53024 z m 28.17494,-75.63235 c 0.99622,-2.98866 -13.07044,-18.60598 -19.97417,-22.17604 -5.8854,-3.04346 -11.72697,-2.65936 -11.72697,0.77108 0,0.93946 3.09079,3.182 6.86842,4.98343 3.77763,1.80142 9.85001,6.98551 13.49418,11.52019 6.28227,7.81744 9.85213,9.36059 11.33854,4.90134 z m 20.78321,-10.51124 c 0,-9.12244 -24.42393,-29.37895 -29.27012,-24.2758 -1.36769,1.44022 -0.71675,2.87192 2.01863,4.43989 2.22049,1.27282 8.57918,7.03779 14.13041,12.81106 11.01489,11.45546 13.12108,12.58308 13.12108,7.02485 z m 53.98359,-37.80578 c 13.5924,-7.58318 25.22235,-15.39099 25.84435,-17.35069 0.62198,-1.9597 -0.38424,-5.87546 -2.23605,-8.70168 -5.57915,-8.51487 -14.23748,-6.96192 -40.00656,7.17554 -12.34508,6.77278 -24.01209,13.70545 -25.92668,15.40595 -5.54549,4.92539 -6.37838,10.46824 -2.25726,15.02202 6.08771,6.72685 16.79057,3.95376 44.5822,-11.55114 z M 85.803556,148.26805 C 90.049538,144.02207 67.475888,120.61 60.183741,121.69668 c -5.881324,0.87644 -6.132962,4.97291 -0.393957,6.41331 2.768628,0.69489 8.939777,5.79895 13.713665,11.34237 8.786628,10.20301 10.025132,11.09067 12.300107,8.81569 z m 21.612554,-13.29841 c 0,-7.0376 -23.458035,-27.76789 -28.144297,-24.87162 -3.796833,2.34657 -2.267815,6.66624 2.81081,7.94089 2.720272,0.68275 8.803938,5.72021 13.519253,11.19435 7.961894,9.24319 11.814234,11.11369 11.814234,5.73638 z m 69.15357,-31.54233 c 14.16417,-6.70174 26.3413,-13.71794 27.06027,-15.591555 0.71897,-1.873614 -0.13256,-5.790328 -1.89233,-8.703809 -5.67366,-9.393412 -14.86602,-8.058495 -43.85579,6.368748 -20.82017,10.361512 -25.57876,13.5653 -27.21082,18.320076 -1.70728,4.97395 -1.29931,6.31205 2.98131,9.77828 6.86721,5.56073 12.47639,4.23131 42.91736,-10.17174 z"
       style="fill:#000000;stroke-width:2.01863" />
  </g>
</svg>
