<?xml version="1.0" encoding="UTF-8" standalone="no"?>
<svg
   xmlns:dc="http://purl.org/dc/elements/1.1/"
   xmlns:cc="http://creativecommons.org/ns#"
   xmlns:rdf="http://www.w3.org/1999/02/22-rdf-syntax-ns#"
   xmlns:svg="http://www.w3.org/2000/svg"
   xmlns="http://www.w3.org/2000/svg"
   xmlns:sodipodi="http://sodipodi.sourceforge.net/DTD/sodipodi-0.dtd"
   xmlns:inkscape="http://www.inkscape.org/namespaces/inkscape"
   inkscape:version="1.0 (4035a4fb49, 2020-05-01)"
   sodipodi:docname="Umbrella.svg"
   viewBox="0 0 128 128"
   height="128"
   width="128"
   id="svg2127"
   version="1.1">
  <metadata
     id="metadata2133">
    <rdf:RDF>
      <cc:Work
         rdf:about="">
        <dc:format>image/svg+xml</dc:format>
        <dc:type
           rdf:resource="http://purl.org/dc/dcmitype/StillImage" />
        <dc:title></dc:title>
      </cc:Work>
    </rdf:RDF>
  </metadata>
  <defs
     id="defs2131" />
  <sodipodi:namedview
     inkscape:current-layer="layer13"
     inkscape:window-maximized="1"
     inkscape:window-y="-8"
     inkscape:window-x="2552"
     inkscape:cy="220.52866"
     inkscape:cx="178.83096"
     inkscape:zoom="0.69605824"
     showgrid="false"
     id="namedview2129"
     inkscape:window-height="1417"
     inkscape:window-width="2560"
     inkscape:pageshadow="2"
     inkscape:pageopacity="0"
     guidetolerance="10"
     gridtolerance="10"
     objecttolerance="10"
     borderopacity="1"
     bordercolor="#666666"
     pagecolor="#ffffff" />
  <g
     inkscape:label="Trace"
     id="layer13"
     inkscape:groupmode="layer">
    <path
       id="path2700"
       d="M 114.0341,527.41612 C 92.267695,502.02095 70.82474,457.53688 62.899855,421.3366 59.105481,404.00418 57.847131,373.95898 59.446825,338.88994 62.272742,276.93918 72.132552,242.07352 99.836429,196.06667 l 16.788051,-27.87932 -10.21371,-10.87201 c -22.855781,-24.32886 2.70609,-49.1549 27.05715,-26.27827 l 11.2736,10.59099 20.98796,-14.18643 C 210.4016,97.24629 266.31348,81.470524 329.78663,81.152241 401.783,80.791222 458.1498,99.326782 503.16711,138.16639 c 32.32665,27.8905 25.73155,54.95968 -10.31059,42.31918 -20.75598,-7.27942 -38.20851,-2.77191 -59.06131,15.25391 -25.09325,21.6914 -28.16417,50.53666 -9.34098,87.74004 11.13278,22.00355 12.39676,27.89472 7.30203,34.03349 -7.74723,9.33484 -14.20847,9.33162 -32.9471,-0.0165 -12.34303,-6.15752 -18.75671,-6.47274 -37.20107,-1.8284 -12.2577,3.08653 -23.60855,7.75062 -25.22411,10.36465 -4.17233,6.75102 66.44957,76.50092 77.45727,76.50092 5.01899,0 24.88054,15.27688 44.13679,33.94862 19.25626,18.67174 37.64263,33.94862 40.85868,33.94862 12.63262,0 10.89358,-15.1233 -3.64288,-31.67942 -17.75897,-20.22632 -18.41144,-25.80348 -5.01169,-42.83849 12.8142,-16.29061 28.64861,-16.31582 47.94811,-0.0763 20.54813,17.29008 29.29674,35.94488 29.29674,62.46974 0,57.27308 -52.31279,90.62479 -103.37496,65.90602 -25.10883,-12.15501 -85.76737,-73.09114 -85.76737,-86.1599 0,-4.98988 -17.19161,-26.16327 -38.20357,-47.05199 l -38.20357,-37.97951 -8.73182,22.86394 c -7.46939,19.55831 -7.83493,25.06577 -2.52832,38.09328 10.63536,26.1094 11.22545,34.9072 2.8098,41.89158 -6.93953,5.75929 -11.0031,5.05478 -29.67424,-5.14476 -28.16593,-15.38629 -68.44165,-16.39587 -84.50515,-2.11826 -17.6647,15.70079 -29.90167,47.66716 -24.09444,62.94133 2.68958,7.07412 4.89015,18.176 4.89015,24.67085 0,9.8177 -2.38947,11.80879 -14.1715,11.80879 -10.66794,0 -18.53908,-5.09574 -31.83791,-20.61167 z"
       style="fill:#000000;stroke-width:4.8498" />
  </g>
</svg>
