<?xml version="1.0" encoding="UTF-8" standalone="no"?>
<svg
   xmlns:dc="http://purl.org/dc/elements/1.1/"
   xmlns:cc="http://creativecommons.org/ns#"
   xmlns:rdf="http://www.w3.org/1999/02/22-rdf-syntax-ns#"
   xmlns:svg="http://www.w3.org/2000/svg"
   xmlns="http://www.w3.org/2000/svg"
   xmlns:sodipodi="http://sodipodi.sourceforge.net/DTD/sodipodi-0.dtd"
   xmlns:inkscape="http://www.inkscape.org/namespaces/inkscape"
   inkscape:version="1.0 (4035a4fb49, 2020-05-01)"
   sodipodi:docname="Villager.svg"
   viewBox="0 0 80 80"
   height="80"
   width="80"
   id="svg3454"
   version="1.1">
  <metadata
     id="metadata3460">
    <rdf:RDF>
      <cc:Work
         rdf:about="">
        <dc:format>image/svg+xml</dc:format>
        <dc:type
           rdf:resource="http://purl.org/dc/dcmitype/StillImage" />
        <dc:title></dc:title>
      </cc:Work>
    </rdf:RDF>
  </metadata>
  <defs
     id="defs3458" />
  <sodipodi:namedview
     inkscape:current-layer="layer20"
     inkscape:window-maximized="1"
     inkscape:window-y="0"
     inkscape:window-x="2560"
     inkscape:cy="10.007663"
     inkscape:cx="332.52546"
     inkscape:zoom="0.91484375"
     showgrid="false"
     id="namedview3456"
     inkscape:window-height="1361"
     inkscape:window-width="2544"
     inkscape:pageshadow="2"
     inkscape:pageopacity="0"
     guidetolerance="10"
     gridtolerance="10"
     objecttolerance="10"
     borderopacity="1"
     bordercolor="#666666"
     pagecolor="#ffffff" />
  <g
     inkscape:label="Trace"
     id="layer20"
     inkscape:groupmode="layer">
    <path
       id="path3467"
       d="M 197.21249,490.2503 C 79.5828,454.14069 38.725114,338.77489 116.14682,261.35318 c 14.36951,-14.36952 42.26006,-55.8574 61.979,-92.19529 19.71892,-36.33789 39.0865,-65.89069 43.03905,-65.67288 3.95256,0.2178 14.29755,21.74153 22.98885,47.8305 l 15.80239,47.43449 36.89694,2.18759 36.89695,2.1876 17.53921,-49.03048 c 9.64656,-26.96675 20.51313,-50.86845 24.14792,-53.11487 3.63478,-2.24642 22.31172,27.27037 41.5043,65.59288 19.19258,38.3225 47.60343,83.53464 63.13523,100.47141 67.62373,73.74081 30.7174,185.3337 -72.628,219.60368 -46.77221,15.50996 -164.85531,17.53337 -210.23617,3.60249 z"
       style="fill:#000000;stroke-width:7.5" />
  </g>
</svg>
