<?xml version="1.0" standalone="no"?>
<!DOCTYPE svg PUBLIC "-//W3C//DTD SVG 20010904//EN"
 "http://www.w3.org/TR/2001/REC-SVG-20010904/DTD/svg10.dtd">
<svg version="1.0" xmlns="http://www.w3.org/2000/svg"
 width="64.000000pt" height="64.000000pt" viewBox="0 0 64.000000 64.000000"
 preserveAspectRatio="xMidYMid meet">

<g transform="translate(0.000000,64.000000) scale(0.100000,-0.100000)"
fill="#000000" stroke="none">
<path d="M300 582 c-14 -2 -71 -26 -127 -52 -79 -38 -105 -55 -113 -75 -14
-36 -13 -271 1 -297 17 -31 212 -120 264 -120 52 0 247 89 264 120 14 26 15
261 1 297 -8 20 -33 37 -107 72 -103 49 -143 61 -183 55z m143 -94 c51 -23 95
-47 99 -53 4 -5 8 -62 8 -125 0 -63 -4 -120 -8 -125 -12 -18 -189 -95 -217
-95 -28 0 -205 77 -217 95 -10 13 -10 237 0 250 13 18 186 94 215 95 16 0 70
-19 120 -42z"/>
<path d="M275 480 c-22 -10 -62 -28 -90 -39 -57 -25 -59 -23 61 -76 l80 -36
92 42 c51 23 89 45 85 49 -10 10 -172 80 -181 79 -4 0 -25 -9 -47 -19z"/>
<path d="M160 326 c0 -12 47 -36 71 -36 23 0 5 29 -22 39 -42 14 -49 14 -49
-3z"/>
</g>
</svg>
