<?xml version="1.0" standalone="no"?>
<!DOCTYPE svg PUBLIC "-//W3C//DTD SVG 20010904//EN"
 "http://www.w3.org/TR/2001/REC-SVG-20010904/DTD/svg10.dtd">
<svg version="1.0" xmlns="http://www.w3.org/2000/svg"
 width="64.000000pt" height="64.000000pt" viewBox="0 0 64.000000 64.000000"
 preserveAspectRatio="xMidYMid meet">

<g transform="translate(0.000000,64.000000) scale(0.100000,-0.100000)"
fill="#000000" stroke="none">
<path d="M256 575 c-45 -16 -90 -56 -106 -95 -9 -21 -21 -30 -53 -36 -65 -14
-74 -43 -53 -163 27 -155 55 -192 162 -217 113 -26 262 -11 324 34 37 27 57
75 76 183 21 120 12 149 -53 163 -32 7 -44 15 -54 37 -24 59 -107 110 -179
109 -14 -1 -42 -7 -64 -15z m132 -55 c36 -16 47 -29 64 -69 20 -46 24 -50 64
-56 24 -3 46 -10 49 -15 8 -12 -24 -178 -40 -210 -22 -43 -90 -65 -200 -65
-110 0 -178 22 -200 65 -20 38 -48 201 -36 213 5 5 26 11 48 14 37 5 42 9 61
54 17 40 28 53 64 69 54 24 72 24 126 0z"/>
<path d="M269 451 c-16 -16 -29 -34 -29 -40 0 -7 31 -11 85 -11 54 0 85 4 85
11 0 21 -58 69 -85 69 -16 0 -38 -12 -56 -29z"/>
</g>
</svg>
