<?xml version="1.0" standalone="no"?>
<!DOCTYPE svg PUBLIC "-//W3C//DTD SVG 20010904//EN"
 "http://www.w3.org/TR/2001/REC-SVG-20010904/DTD/svg10.dtd">
<svg version="1.0" xmlns="http://www.w3.org/2000/svg"
 width="80.000000pt" height="80.000000pt" viewBox="0 0 80.000000 80.000000"
 preserveAspectRatio="xMidYMid meet">
<metadata>
Created by potrace 1.16, written by Peter Selinger 2001-2019
</metadata>
<g transform="translate(0.000000,80.000000) scale(0.100000,-0.100000)"
fill="#000000" stroke="none">
<path d="M567 683 c-20 -5 -41 -43 -52 -90 -3 -18 -11 -35 -16 -39 -5 -3 -36
9 -68 27 -53 29 -61 31 -89 20 -27 -12 -84 -94 -72 -104 4 -3 342 -197 371
-213 3 -2 18 19 34 47 24 44 26 54 15 79 -8 19 -32 40 -66 60 -30 16 -54 35
-54 40 0 6 18 28 40 49 48 46 52 80 14 110 -15 12 -29 20 -33 20 -3 -1 -14 -3
-24 -6z"/>
<path d="M221 426 c-35 -63 -63 -86 -106 -86 -29 -1 -29 -1 -10 -16 11 -9 39
-25 62 -35 38 -18 45 -18 77 -5 19 8 41 24 48 35 13 22 28 28 28 11 0 -17 -62
-80 -78 -80 -9 0 39 -32 107 -72 125 -72 165 -84 196 -58 25 21 87 132 78 141
-4 4 -87 53 -183 109 -96 56 -178 104 -182 106 -3 2 -20 -20 -37 -50z"/>
</g>
</svg>
