<?xml version="1.0" standalone="no"?>
<!DOCTYPE svg PUBLIC "-//W3C//DTD SVG 20010904//EN"
 "http://www.w3.org/TR/2001/REC-SVG-20010904/DTD/svg10.dtd">
<svg version="1.0" xmlns="http://www.w3.org/2000/svg"
 width="64.000000pt" height="64.000000pt" viewBox="0 0 64.000000 64.000000"
 preserveAspectRatio="xMidYMid meet">
<metadata>
Created by potrace 1.16, written by Peter Selinger 2001-2019
</metadata>
<g transform="translate(0.000000,64.000000) scale(0.100000,-0.100000)"
fill="#000000" stroke="none">
<path d="M232 569 c-41 -21 -92 -80 -92 -106 0 -8 -12 -13 -29 -13 -15 0 -40
-9 -55 -21 -31 -25 -34 -69 -11 -181 22 -104 43 -138 101 -168 44 -23 59 -25
179 -25 120 0 135 2 179 25 58 30 79 64 101 168 23 112 20 156 -11 181 -15 12
-38 21 -53 21 -21 0 -30 9 -45 41 -40 87 -170 126 -264 78z m156 -49 c36 -16
47 -29 64 -69 20 -46 24 -50 64 -56 24 -3 46 -10 49 -15 8 -12 -24 -178 -40
-210 -22 -43 -90 -65 -200 -65 -110 0 -178 22 -200 65 -20 38 -48 201 -36 213
5 5 26 11 48 14 37 5 42 9 61 54 17 40 28 53 64 69 54 24 72 24 126 0z"/>
</g>
</svg>
