<?xml version="1.0" standalone="no"?>
<!DOCTYPE svg PUBLIC "-//W3C//DTD SVG 20010904//EN"
 "http://www.w3.org/TR/2001/REC-SVG-20010904/DTD/svg10.dtd">
<svg version="1.0" xmlns="http://www.w3.org/2000/svg"
 width="64.000000pt" height="64.000000pt" viewBox="0 0 64.000000 64.000000"
 preserveAspectRatio="xMidYMid meet">
<metadata>
Created by potrace 1.16, written by Peter Selinger 2001-2019
</metadata>
<g transform="translate(0.000000,64.000000) scale(0.100000,-0.100000)"
fill="#000000" stroke="none">
<path d="M185 539 c-60 -27 -116 -57 -122 -66 -18 -24 -17 -301 1 -325 19 -25
225 -118 261 -118 36 0 242 93 261 118 18 24 19 301 2 325 -19 24 -227 117
-263 117 -16 0 -79 -23 -140 -51z m258 -51 c51 -23 95 -47 99 -53 4 -5 8 -62
8 -125 0 -63 -4 -120 -8 -125 -12 -18 -189 -95 -217 -95 -28 0 -205 77 -217
95 -10 13 -10 237 0 250 13 18 186 94 215 95 16 0 70 -19 120 -42z"/>
<path d="M275 480 c-22 -10 -62 -28 -90 -39 -57 -25 -59 -23 61 -76 l80 -36
92 42 c51 23 89 45 85 49 -10 10 -172 80 -181 79 -4 0 -25 -9 -47 -19z"/>
</g>
</svg>
